<svg width="16" height="16" viewBox="0 0 16 16" fill="none" xmlns="http://www.w3.org/2000/svg">
<path d="M13.1428 0H2.85713C1.27995 0.001875 0.001875 1.27995 0 2.85713V13.1428C0.001875 14.72 1.27995 15.9981 2.85713 16H13.1428C14.72 15.9981 15.9981 14.72 16 13.1428V2.85713C15.9981 1.27995 14.72 0.001875 13.1428 0ZM14.8571 13.1428C14.8571 14.0896 14.0896 14.8571 13.1428 14.8571H2.85713C1.91036 14.8571 1.14285 14.0896 1.14285 13.1428V2.85713C1.14285 1.91036 1.91036 1.14285 2.85713 1.14285H13.1428C14.0896 1.14285 14.8571 1.91036 14.8571 2.85713V13.1428Z" fill="#FF8204"/>
<path d="M10.8573 7.42845H8.57154V5.14273C8.57154 4.82713 8.3157 4.57129 8.0001 4.57129C7.6845 4.57129 7.42866 4.82713 7.42866 5.14273V7.42845H5.14297C4.82737 7.42845 4.57153 7.68429 4.57153 7.99989C4.57153 8.31549 4.82737 8.5713 5.14297 8.5713H7.4287V10.857C7.4287 11.1726 7.68453 11.4285 8.00014 11.4285C8.31574 11.4285 8.57154 11.1726 8.57154 10.857V8.5713H10.8573C11.1729 8.5713 11.4287 8.31546 11.4287 7.99986C11.4287 7.68426 11.1728 7.42845 10.8573 7.42845Z" fill="#FF8204"/>
</svg>
