<svg width="11" height="11" viewBox="0 0 11 11" fill="none" xmlns="http://www.w3.org/2000/svg">
<path d="M5.35293 0.176758C4.32912 0.176758 3.3283 0.480352 2.47703 1.04915C1.62577 1.61795 0.962285 2.4264 0.57049 3.37228C0.178696 4.31816 0.0761841 5.35897 0.275919 6.36311C0.475655 7.36725 0.968666 8.2896 1.69261 9.01355C2.41655 9.73749 3.33891 10.2305 4.34305 10.4302C5.34718 10.63 6.388 10.5275 7.33387 10.1357C8.27975 9.74387 9.08821 9.08039 9.657 8.22912C10.2258 7.37786 10.5294 6.37704 10.5294 5.35323C10.5278 3.98084 9.98188 2.66513 9.01145 1.6947C8.04103 0.724274 6.72531 0.178377 5.35293 0.176758ZM7.70587 5.82382H5.82351V7.70617C5.82351 7.83098 5.77393 7.95067 5.68568 8.03893C5.59743 8.12718 5.47773 8.17676 5.35293 8.17676C5.22812 8.17676 5.10842 8.12718 5.02017 8.03893C4.93192 7.95067 4.88234 7.83098 4.88234 7.70617V5.82382H2.99998C2.87518 5.82382 2.75548 5.77424 2.66723 5.68598C2.57898 5.59773 2.5294 5.47804 2.5294 5.35323C2.5294 5.22842 2.57898 5.10873 2.66723 5.02047C2.75548 4.93222 2.87518 4.88264 2.99998 4.88264H4.88234V3.00029C4.88234 2.87548 4.93192 2.75578 5.02017 2.66753C5.10842 2.57928 5.22812 2.5297 5.35293 2.5297C5.47773 2.5297 5.59743 2.57928 5.68568 2.66753C5.77393 2.75578 5.82351 2.87548 5.82351 3.00029V4.88264H7.70587C7.83067 4.88264 7.95037 4.93222 8.03862 5.02047C8.12688 5.10873 8.17645 5.22842 8.17645 5.35323C8.17645 5.47804 8.12688 5.59773 8.03862 5.68598C7.95037 5.77424 7.83067 5.82382 7.70587 5.82382Z" fill="#666666"/>
</svg>
