<svg width="40" height="40" viewBox="0 0 40 40" fill="none" xmlns="http://www.w3.org/2000/svg">
<circle cx="20" cy="20" r="20" fill="#9D28AC"/>
<path d="M14.832 29H25.3789C26.2513 29 26.9609 28.2903 26.9609 27.418V16.2734H23.2695C22.3972 16.2734 21.6875 15.5638 21.6875 14.6914V11H14.832C13.9597 11 13.25 11.7097 13.25 12.582V27.418C13.25 28.2903 13.9597 29 14.832 29ZM16.9414 18.418H23.2695C23.561 18.418 23.7969 18.6538 23.7969 18.9453C23.7969 19.2368 23.561 19.4727 23.2695 19.4727H16.9414C16.6499 19.4727 16.4141 19.2368 16.4141 18.9453C16.4141 18.6538 16.6499 18.418 16.9414 18.418ZM16.9414 20.5273H23.2695C23.561 20.5273 23.7969 20.7632 23.7969 21.0547C23.7969 21.3462 23.561 21.582 23.2695 21.582H16.9414C16.6499 21.582 16.4141 21.3462 16.4141 21.0547C16.4141 20.7632 16.6499 20.5273 16.9414 20.5273ZM16.9414 22.6367H23.2695C23.561 22.6367 23.7969 22.8726 23.7969 23.1641C23.7969 23.4555 23.561 23.6914 23.2695 23.6914H16.9414C16.6499 23.6914 16.4141 23.4555 16.4141 23.1641C16.4141 22.8726 16.6499 22.6367 16.9414 22.6367ZM16.9414 24.7461H21.1602C21.4516 24.7461 21.6875 24.982 21.6875 25.2734C21.6875 25.5649 21.4516 25.8008 21.1602 25.8008H16.9414C16.6499 25.8008 16.4141 25.5649 16.4141 25.2734C16.4141 24.982 16.6499 24.7461 16.9414 24.7461Z" fill="white"/>
<path d="M23.2695 15.2184H26.6519L22.7422 11.3086V14.691C22.7422 14.982 22.9786 15.2184 23.2695 15.2184Z" fill="white"/>
</svg>
