<svg width="40" height="40" viewBox="0 0 40 40" fill="none" xmlns="http://www.w3.org/2000/svg">
<circle cx="20" cy="20" r="20" fill="#4AAF57"/>
<g clip-path="url(#clip0_1551_5301)">
<path d="M21.1109 31.4C23.5156 28.3906 29 21.0969 29 17C29 12.0312 24.9688 8 20 8C15.0312 8 11 12.0312 11 17C11 21.0969 16.4844 28.3906 18.8891 31.4C19.4656 32.1172 20.5344 32.1172 21.1109 31.4ZM20 20C18.3453 20 17 18.6547 17 17C17 15.3453 18.3453 14 20 14C21.6547 14 23 15.3453 23 17C23 18.6547 21.6547 20 20 20Z" fill="white"/>
</g>
<defs>
<clipPath id="clip0_1551_5301">
<rect width="18" height="24" fill="white" transform="translate(11 8)"/>
</clipPath>
</defs>
</svg>
