<svg width="40" height="40" viewBox="0 0 40 40" fill="none" xmlns="http://www.w3.org/2000/svg">
<circle cx="20" cy="20" r="20" fill="#795BCF"/>
<path d="M28.25 14.0938H25.0625L24.3031 11.9656C24.2507 11.82 24.1545 11.6941 24.0278 11.6052C23.9011 11.5163 23.7501 11.4686 23.5953 11.4688H16.4047C16.0883 11.4688 15.8047 11.668 15.6992 11.9656L14.9375 14.0938H11.75C10.7141 14.0938 9.875 14.9328 9.875 15.9688V26.6562C9.875 27.6922 10.7141 28.5312 11.75 28.5312H28.25C29.2859 28.5312 30.125 27.6922 30.125 26.6562V15.9688C30.125 14.9328 29.2859 14.0938 28.25 14.0938ZM20 24.7812C17.9281 24.7812 16.25 23.1031 16.25 21.0312C16.25 18.9594 17.9281 17.2813 20 17.2813C22.0719 17.2813 23.75 18.9594 23.75 21.0312C23.75 23.1031 22.0719 24.7812 20 24.7812ZM17.75 21.0312C17.75 21.628 17.9871 22.2003 18.409 22.6222C18.831 23.0442 19.4033 23.2812 20 23.2812C20.5967 23.2812 21.169 23.0442 21.591 22.6222C22.0129 22.2003 22.25 21.628 22.25 21.0312C22.25 20.4345 22.0129 19.8622 21.591 19.4403C21.169 19.0183 20.5967 18.7812 20 18.7812C19.4033 18.7812 18.831 19.0183 18.409 19.4403C17.9871 19.8622 17.75 20.4345 17.75 21.0312Z" fill="white"/>
</svg>
