<svg width="40" height="40" viewBox="0 0 40 40" fill="none" xmlns="http://www.w3.org/2000/svg">
<circle cx="20" cy="20" r="20" fill="#5BA5CF"/>
<path d="M26.6173 9.5H13.3828C12.3533 9.50099 11.3663 9.91039 10.6383 10.6383C9.91039 11.3663 9.50099 12.3533 9.5 13.3828V26.6173C9.50099 27.6467 9.91039 28.6337 10.6383 29.3617C11.3663 30.0896 12.3533 30.499 13.3828 30.5H26.6173C26.6472 30.5 26.675 30.4918 26.705 30.491C26.7198 30.4948 26.7349 30.4978 26.75 30.5C26.7985 30.4952 26.8465 30.4859 26.8932 30.4722C27.8702 30.4042 28.7853 29.9689 29.4544 29.2537C30.1235 28.5385 30.4971 27.5966 30.5 26.6173V13.3828C30.499 12.3533 30.0896 11.3663 29.3617 10.6383C28.6337 9.91039 27.6467 9.50099 26.6173 9.5ZM13.3828 11H26.6173C27.249 11.0006 27.8547 11.2518 28.3015 11.6985C28.7482 12.1453 28.9994 12.751 29 13.3828V23.5895L25.6302 20.2197C25.4896 20.0791 25.2989 20.0002 25.1 20.0002C24.9011 20.0002 24.7104 20.0791 24.5697 20.2197L21.425 23.3645L14.9052 16.8448C14.7646 16.7041 14.5739 16.6252 14.375 16.6252C14.1761 16.6252 13.9854 16.7041 13.8448 16.8448L11 19.6895V13.3828C11.0006 12.751 11.2518 12.1453 11.6985 11.6985C12.1453 11.2518 12.751 11.0006 13.3828 11ZM11 26.6173V21.8105L14.375 18.4355L24.9395 29H13.3828C12.751 28.9994 12.1453 28.7482 11.6985 28.3015C11.2518 27.8547 11.0006 27.249 11 26.6173ZM27.02 28.9595L22.4855 24.425L25.1 21.8105L29 25.7105V26.6173C28.9985 27.1783 28.7991 27.7208 28.4369 28.1493C28.0747 28.5778 27.573 28.8647 27.02 28.9595Z" fill="white"/>
<path d="M24.875 17.75C25.3942 17.75 25.9017 17.596 26.3334 17.3076C26.7651 17.0192 27.1015 16.6092 27.3002 16.1295C27.4989 15.6499 27.5508 15.1221 27.4496 14.6129C27.3483 14.1037 27.0983 13.636 26.7312 13.2688C26.364 12.9017 25.8963 12.6517 25.3871 12.5504C24.8779 12.4492 24.3501 12.5011 23.8705 12.6998C23.3908 12.8985 22.9808 13.235 22.6924 13.6666C22.404 14.0983 22.25 14.6058 22.25 15.125C22.25 15.8212 22.5266 16.4889 23.0188 16.9812C23.5111 17.4734 24.1788 17.75 24.875 17.75ZM24.875 14C25.0975 14 25.315 14.066 25.5 14.1896C25.685 14.3132 25.8292 14.4889 25.9144 14.6945C25.9995 14.9 26.0218 15.1262 25.9784 15.3445C25.935 15.5627 25.8278 15.7632 25.6705 15.9205C25.5132 16.0778 25.3127 16.185 25.0945 16.2284C24.8762 16.2718 24.65 16.2495 24.4445 16.1644C24.2389 16.0792 24.0632 15.935 23.9396 15.75C23.816 15.565 23.75 15.3475 23.75 15.125C23.75 14.8266 23.8685 14.5405 24.0795 14.3295C24.2905 14.1185 24.5766 14 24.875 14Z" fill="white"/>
</svg>
