<svg width="32" height="32" viewBox="0 0 32 32" fill="none" xmlns="http://www.w3.org/2000/svg">
<path fill-rule="evenodd" clip-rule="evenodd" d="M18.6207 25.3333C18.54 25.3278 18.5195 25.3284 18.4396 25.3147C18.26 25.2837 18.0873 25.2156 17.9349 25.1156C17.8578 25.0651 17.7905 25.0063 17.7233 24.9435L9.72298 16.9432C9.66778 16.8841 9.65238 16.8706 9.60337 16.806C9.54837 16.7335 9.50084 16.6553 9.4617 16.573C9.29076 16.2136 9.29076 15.7871 9.4617 15.4277C9.50084 15.3454 9.54837 15.2672 9.60337 15.1947C9.65238 15.1301 9.66778 15.1166 9.72298 15.0575L17.7233 7.05718C17.7825 7.00197 17.796 6.98651 17.8605 6.93757C18.03 6.80897 18.23 6.72216 18.4396 6.68596C18.5893 6.66023 18.7431 6.66023 18.8928 6.68596C19.0124 6.70663 19.1292 6.7437 19.2389 6.79583C19.6554 6.99391 19.9454 7.40479 19.9926 7.86361C20.0112 8.04495 19.9922 8.22963 19.9371 8.40337C19.8911 8.54811 19.8204 8.68471 19.7287 8.80565C19.6797 8.87025 19.6643 8.88372 19.6091 8.94286L12.5516 16.0004L19.6091 23.0579L19.6712 23.1244C19.7222 23.1871 19.7367 23.2017 19.7811 23.2694C19.8644 23.3963 19.9257 23.5375 19.9617 23.685C19.9904 23.803 20.003 23.9248 19.9988 24.0462C19.9831 24.5072 19.7217 24.9369 19.3197 25.163C19.1874 25.2374 19.0424 25.2889 18.8928 25.3147C18.8129 25.3284 18.7924 25.3278 18.7117 25.3333C18.6814 25.3333 18.651 25.3333 18.6207 25.3333Z" fill="black"/>
</svg>
