<svg width="16" height="16" viewBox="0 0 16 16" fill="none" xmlns="http://www.w3.org/2000/svg">
<g clip-path="url(#clip0_299_17623)">
<path d="M12.6451 9.91137C12.3176 9.5703 11.9225 9.38795 11.5037 9.38795C11.0884 9.38795 10.6899 9.56693 10.3488 9.90799L9.28172 10.9717C9.19392 10.9244 9.10612 10.8805 9.0217 10.8366C8.90013 10.7759 8.78532 10.7185 8.68739 10.6577C7.68782 10.0228 6.77943 9.19547 5.90819 8.12499C5.48608 7.59143 5.20242 7.1423 4.99643 6.68642C5.27333 6.43315 5.52998 6.16975 5.77987 5.91649C5.87442 5.82193 5.96898 5.724 6.06353 5.62945C6.77268 4.9203 6.77268 4.00178 6.06353 3.29263L5.14163 2.37073C5.03695 2.26605 4.92889 2.15799 4.82758 2.04993C4.62497 1.84056 4.41222 1.62444 4.19272 1.42182C3.86516 1.09764 3.47344 0.925415 3.06146 0.925415C2.64947 0.925415 2.251 1.09764 1.91331 1.42182C1.90993 1.4252 1.90993 1.4252 1.90655 1.42857L0.758404 2.58685C0.326159 3.0191 0.0796448 3.5459 0.0256142 4.15712C-0.0554316 5.14318 0.234983 6.06169 0.457859 6.66278C1.00492 8.13849 1.82213 9.50614 3.04119 10.9717C4.52028 12.7378 6.29991 14.1325 8.33281 15.1152C9.1095 15.4833 10.1462 15.9189 11.3045 15.9932C11.3754 15.9966 11.4497 15.9999 11.5172 15.9999C12.2973 15.9999 12.9524 15.7197 13.4657 15.1625C13.4691 15.1557 13.4758 15.1523 13.4792 15.1456C13.6548 14.9328 13.8574 14.7404 14.0702 14.5344C14.2154 14.3959 14.364 14.2507 14.5092 14.0987C14.8435 13.7509 15.0191 13.3457 15.0191 12.9303C15.0191 12.5116 14.8401 12.1097 14.499 11.772L12.6451 9.91137ZM13.8541 13.4673C13.8507 13.4673 13.8507 13.4706 13.8541 13.4673C13.7224 13.6091 13.5873 13.7374 13.4421 13.8792C13.2226 14.0886 12.9997 14.3081 12.7903 14.5546C12.4493 14.9193 12.0474 15.0915 11.5206 15.0915C11.47 15.0915 11.4159 15.0915 11.3653 15.0882C10.3623 15.024 9.43031 14.6323 8.73129 14.298C6.81996 13.3727 5.14163 12.0591 3.74697 10.3943C2.59544 9.00636 1.82551 7.72313 1.31559 6.34535C1.00154 5.5045 0.886726 4.84938 0.93738 4.23141C0.971149 3.83631 1.12311 3.50875 1.40339 3.22847L2.55492 2.07694C2.72039 1.9216 2.89599 1.83718 3.06821 1.83718C3.28096 1.83718 3.45318 1.9655 3.56124 2.07356C3.56462 2.07694 3.56799 2.08032 3.57137 2.0837C3.77736 2.27618 3.97322 2.47542 4.17921 2.68816C4.2839 2.79622 4.39196 2.90428 4.50002 3.01572L5.42192 3.93762C5.77987 4.29557 5.77987 4.62651 5.42192 4.98446C5.32399 5.08239 5.22943 5.18032 5.1315 5.27487C4.84784 5.56529 4.57769 5.83544 4.2839 6.09884C4.27714 6.10559 4.27039 6.10897 4.26701 6.11572C3.9766 6.40614 4.03063 6.6898 4.09141 6.88228C4.09479 6.89241 4.09817 6.90254 4.10154 6.91267C4.3413 7.4935 4.679 8.04056 5.19229 8.69231L5.19566 8.69568C6.12769 9.84383 7.11037 10.7387 8.19436 11.4242C8.33281 11.512 8.47464 11.5829 8.60972 11.6505C8.73129 11.7113 8.8461 11.7687 8.94403 11.8295C8.95754 11.8362 8.97105 11.8463 8.98456 11.8531C9.09937 11.9105 9.20743 11.9375 9.31887 11.9375C9.59915 11.9375 9.77475 11.7619 9.83216 11.7045L10.9871 10.5496C11.1019 10.4348 11.2842 10.2963 11.497 10.2963C11.7063 10.2963 11.8786 10.428 11.9833 10.5429C11.9866 10.5462 11.9866 10.5462 11.99 10.5496L13.8507 12.4103C14.1985 12.7547 14.1985 13.1093 13.8541 13.4673Z" fill="#4232C6"/>
<path d="M8.64698 3.80597C9.53173 3.95456 10.3354 4.37329 10.977 5.01491C11.6187 5.65652 12.034 6.46022 12.186 7.34497C12.2231 7.56785 12.4156 7.72319 12.6351 7.72319C12.6621 7.72319 12.6858 7.71981 12.7128 7.71643C12.9627 7.67591 13.1281 7.43953 13.0876 7.18964C12.9053 6.11916 12.3987 5.14323 11.6254 4.36992C10.8521 3.5966 9.87617 3.09007 8.80569 2.90771C8.5558 2.86719 8.3228 3.03266 8.2789 3.27917C8.235 3.52569 8.39709 3.76545 8.64698 3.80597Z" fill="#4232C6"/>
<path d="M15.9816 7.05794C15.6811 5.29519 14.8504 3.69116 13.5739 2.41469C12.2974 1.13821 10.6934 0.307495 8.93064 0.00695018C8.68413 -0.0369496 8.45112 0.131896 8.40722 0.37841C8.3667 0.628302 8.53217 0.861308 8.78206 0.905208C10.3557 1.17198 11.7909 1.91828 12.9323 3.0563C14.0737 4.1977 14.8166 5.63288 15.0834 7.20652C15.1205 7.4294 15.313 7.58474 15.5325 7.58474C15.5595 7.58474 15.5832 7.58136 15.6102 7.57798C15.8567 7.54084 16.0255 7.30445 15.9816 7.05794Z" fill="#4232C6"/>
</g>
<defs>
<clipPath id="clip0_299_17623">
<rect width="16" height="16" fill="white"/>
</clipPath>
</defs>
</svg>
