<svg width="32" height="32" viewBox="0 0 32 32" fill="none" xmlns="http://www.w3.org/2000/svg">
<path d="M22.4858 21.8995L19.6565 20.266C19.219 20.0141 18.6995 19.946 18.2119 20.0766C17.7243 20.2073 17.3084 20.526 17.0555 20.9629L16.9438 21.1563C16.8617 21.2985 16.7504 21.4216 16.6172 21.5176C16.484 21.6136 16.332 21.6803 16.1711 21.7132C16.0103 21.7461 15.8443 21.7445 15.6841 21.7085C15.5239 21.6725 15.3731 21.603 15.2418 21.5044C14.3452 20.8286 13.4973 20.0904 12.7046 19.2953C11.9094 18.5026 11.1713 17.6548 10.4955 16.7581C10.3969 16.6268 10.3274 16.476 10.2914 16.3158C10.2554 16.1557 10.2538 15.9896 10.2867 15.8288C10.3196 15.6679 10.3863 15.5159 10.4823 15.3827C10.5783 15.2495 10.7014 15.1382 10.8436 15.0561L11.037 14.9445C11.4739 14.6916 11.7926 14.2757 11.9233 13.7881C12.0539 13.3004 11.9858 12.7809 11.7339 12.3434L10.1005 9.51404C9.8742 9.11755 9.51227 8.81618 9.08136 8.66544C8.65046 8.5147 8.17959 8.52474 7.75551 8.69372L7.7204 8.70751C6.32301 9.25594 5.37604 9.64674 4.96255 10.0603C3.80132 11.2215 3.6869 13.2161 4.64038 15.6766C5.51694 17.9383 7.20993 20.3944 9.40757 22.5922C11.6052 24.7899 14.0616 26.4831 16.3233 27.3595C17.4267 27.7871 18.4363 28 19.3192 28C20.4051 28 21.2991 27.678 21.9395 27.0375C22.3531 26.624 22.7436 25.6771 23.2923 24.2796L23.3061 24.2445C23.4752 23.8204 23.4853 23.3495 23.3345 22.9186C23.1838 22.4877 22.8823 22.1257 22.4858 21.8995ZM21.9099 23.6962L21.8961 23.7314C21.6417 24.3795 21.1122 25.7282 20.8789 25.9767C20.1738 26.6817 18.7109 26.6761 16.8653 25.9609C14.7938 25.1581 12.522 23.5851 10.4686 21.5313C8.41522 19.4775 6.84177 17.2061 6.03894 15.1346C5.32372 13.289 5.31796 11.8261 6.02183 11.1221C6.27158 10.8877 7.62027 10.358 8.26846 10.1037L8.30362 10.0899C8.35216 10.0706 8.40388 10.0607 8.4561 10.0605C8.52652 10.0607 8.59562 10.0797 8.65629 10.1154C8.71696 10.1512 8.767 10.2025 8.80129 10.264L10.4348 13.0933C10.4882 13.1862 10.5027 13.2964 10.4749 13.3999C10.4472 13.5034 10.3795 13.5917 10.2868 13.6454L10.0936 13.7571C9.7677 13.9452 9.4854 14.2004 9.26537 14.5057C9.04533 14.811 8.89257 15.1596 8.81717 15.5283C8.74177 15.897 8.74545 16.2775 8.82795 16.6447C8.91046 17.0119 9.06993 17.3574 9.29582 17.6584C10.0141 18.6117 10.7988 19.5131 11.644 20.3559C12.4868 21.2012 13.3883 21.986 14.3416 22.7044C14.6426 22.9302 14.9881 23.0897 15.3553 23.1721C15.7225 23.2546 16.103 23.2583 16.4717 23.1828C16.8404 23.1074 17.1889 22.9546 17.4942 22.7346C17.7995 22.5145 18.0547 22.2322 18.2428 21.9063L18.3545 21.7129C18.4082 21.6202 18.4965 21.5525 18.5999 21.5248C18.7034 21.4971 18.8137 21.5115 18.9065 21.5649L21.7358 23.1985C21.8207 23.2457 21.8854 23.3225 21.9175 23.4142C21.9496 23.506 21.9469 23.6063 21.9099 23.6962ZM22.7499 9.85046C22.6044 9.79841 22.4464 9.79254 22.2974 9.83364C22.1485 9.87475 22.0158 9.96084 21.9176 10.0801L18.3463 14.42C18.256 14.5297 18.1987 14.6629 18.1812 14.804C18.1637 14.9451 18.1866 15.0882 18.2473 15.2168C18.3079 15.3453 18.4039 15.454 18.524 15.53C18.6441 15.6061 18.7833 15.6465 18.9254 15.6466H21.7468V16.4767C21.7468 16.6756 21.8258 16.8664 21.9664 17.007C22.1071 17.1477 22.2978 17.2267 22.4968 17.2267C22.6957 17.2267 22.8864 17.1477 23.0271 17.007C23.1677 16.8664 23.2468 16.6756 23.2468 16.4767V15.6466H23.3865C23.5854 15.6466 23.7762 15.5675 23.9168 15.4269C24.0575 15.2862 24.1365 15.0955 24.1365 14.8966C24.1365 14.6976 24.0575 14.5069 23.9168 14.3662C23.7762 14.2256 23.5854 14.1466 23.3865 14.1466H23.2468V10.5565C23.2468 10.402 23.199 10.2512 23.1101 10.1248C23.0212 9.99843 22.8953 9.90261 22.7499 9.85046ZM21.7468 14.1463H20.5139L21.7468 12.6481V14.1463ZM16.6637 12.6653C16.8016 12.1603 16.7199 11.7845 16.4217 11.5484C16.0743 11.2734 15.4957 11.2249 15.1045 11.438C14.8228 11.5914 14.7036 11.8505 14.7401 12.2296C14.7591 12.4276 14.6987 12.625 14.5722 12.7785C14.4456 12.932 14.2633 13.0289 14.0653 13.0479C13.8673 13.067 13.6699 13.0066 13.5164 12.88C13.3629 12.7535 13.266 12.5712 13.247 12.3732C13.1522 11.3879 13.5678 10.5669 14.3871 10.1207C15.3106 9.61777 16.5298 9.72113 17.3525 10.372C18.1324 10.9891 18.4087 11.9688 18.1107 13.0605C17.9076 13.8037 17.2057 14.3515 16.4625 14.9315C16.1454 15.1789 15.8086 15.4417 15.5031 15.7264H17.6821C17.881 15.7264 18.0718 15.8054 18.2125 15.9461C18.3531 16.0867 18.4321 16.2775 18.4321 16.4764C18.4321 16.6753 18.3531 16.8661 18.2125 17.0068C18.0718 17.1474 17.881 17.2264 17.6821 17.2264H13.9761C13.849 17.2264 13.724 17.1941 13.6128 17.1326C13.5016 17.071 13.4079 16.9822 13.3405 16.8745C13.273 16.7668 13.234 16.6437 13.2272 16.5168C13.2203 16.3899 13.2459 16.2633 13.3013 16.149C13.8115 15.0976 14.7697 14.3498 15.5397 13.749C16.0085 13.3831 16.592 12.9278 16.6637 12.6653ZM27.9999 13.7677C28.0034 15.0509 27.7523 16.3221 27.2612 17.5076C26.7701 18.6932 26.0488 19.7695 25.1389 20.6744C24.998 20.8137 24.8077 20.8915 24.6095 20.8909C24.4114 20.8903 24.2216 20.8113 24.0815 20.6712C23.9414 20.5311 23.8624 20.3413 23.8618 20.1431C23.8612 19.945 23.939 19.7547 24.0783 19.6138C24.8484 18.8479 25.459 17.9368 25.8747 16.9333C26.2903 15.9298 26.5028 14.8539 26.4999 13.7677C26.4999 9.20897 22.7909 5.50004 18.2322 5.50004C17.146 5.49708 16.07 5.70959 15.0666 6.12526C14.0631 6.54093 13.152 7.15151 12.3861 7.92165C12.245 8.0602 12.0549 8.13744 11.8572 8.13654C11.6594 8.13565 11.4701 8.0567 11.3302 7.91687C11.1904 7.77704 11.1115 7.58765 11.1106 7.38991C11.1097 7.19217 11.1869 7.00208 11.3255 6.861C12.2304 5.95113 13.3067 5.22978 14.4923 4.73869C15.6778 4.2476 16.9489 3.99654 18.2322 4.00004C23.6181 4.00004 27.9999 8.38186 27.9999 13.7677Z" fill="black"/>
</svg>
