<svg width="197" height="136" viewBox="0 0 197 136" fill="none" xmlns="http://www.w3.org/2000/svg">
<g filter="url(#filter0_d_355_2500)">
<path d="M183.34 53.2092L171.911 44.0821C166.679 39.9016 160.132 31.5011 157.358 25.4113L152.214 14.1103C149.443 8.02354 141.693 3.04041 134.993 3.04041H61.906C55.2064 3.04041 47.4561 8.02354 44.6849 14.1134L39.5414 25.4144C36.7671 31.5042 30.2197 39.9047 24.9879 44.0852L13.5589 53.2123C8.3271 57.3867 4.04541 66.2797 4.04541 72.9685V124.654C4.04541 127.999 6.78618 130.735 10.136 130.735H34.4984C37.8482 130.735 40.589 127.999 40.589 124.654V115.533H156.31V124.654C156.31 127.999 159.051 130.735 162.401 130.735H186.763C190.113 130.735 192.854 127.999 192.854 124.654V72.9685C192.854 66.2797 188.572 57.3867 183.34 53.2092Z" fill="white"/>
<path d="M183.34 53.2092L171.911 44.0821C166.679 39.9016 160.132 31.5011 157.358 25.4113L152.214 14.1103C149.443 8.02354 141.693 3.04041 134.993 3.04041H61.906C55.2064 3.04041 47.4561 8.02354 44.6849 14.1134L39.5414 25.4143C36.7671 31.5042 30.2197 39.9047 24.9879 44.0851L13.5589 53.2123C8.3271 57.3867 4.04541 66.2797 4.04541 72.9685V103.372C4.04541 110.061 9.52694 115.533 16.2266 115.533H180.673C187.372 115.533 192.854 110.061 192.854 103.372V72.9685C192.854 66.2797 188.572 57.3867 183.34 53.2092Z" fill="#A80901"/>
<path d="M148.435 107.671C146.066 105.306 141.388 103.372 138.038 103.372H57.3382C53.9884 103.372 49.3108 105.306 46.9415 107.671L39.0664 115.533H156.31L148.435 107.671Z" fill="white"/>
<path d="M183.718 36.4843L168.491 39.5247V27.3633H183.718V36.4843Z" fill="white"/>
<path d="M13.1816 36.4843L28.4081 39.5247V27.3633H13.1816V36.4843Z" fill="white"/>
<path d="M150.22 63.8476L156.31 69.9283H180.673C188.179 69.9283 189.516 63.7777 189.754 61.5825C188.058 58.229 185.816 55.1856 183.34 53.2094L179.659 50.2664L153.265 60.8073L150.22 63.8476Z" fill="white"/>
<path d="M16.2267 69.9283H40.5891L46.6796 63.8476L43.6343 60.8073L17.2408 50.2664L13.556 53.2094C11.0832 55.1856 8.83881 58.229 7.14258 61.5825C7.38316 63.7777 8.72004 69.9283 16.2267 69.9283Z" fill="white"/>
<path d="M157.361 25.4113L152.217 14.1103C149.443 8.02354 141.693 3.04041 134.993 3.04041H61.9059C55.2062 3.04041 47.4559 8.02354 44.6847 14.1134L39.5412 25.4143C38.4266 27.8618 36.6908 30.6772 34.687 33.447H162.215C160.211 30.6742 158.472 27.8588 157.361 25.4113Z" fill="white"/>
<path d="M185.243 50.8347L173.817 41.7076C173.772 41.6711 173.726 41.6255 173.68 41.589L184.318 39.4638C185.74 39.181 186.763 37.9345 186.763 36.4842V27.3632C186.763 25.6849 185.399 24.3228 183.718 24.3228H168.491C166.81 24.3228 165.446 25.6849 165.446 27.3632V32.6899C165.376 32.5956 165.306 32.5014 165.236 32.4071C165.044 31.8781 164.703 31.4464 164.27 31.1028C162.556 28.6796 161.088 26.2534 160.132 24.1556L154.985 12.8546C151.706 5.64593 142.923 0 134.993 0H61.9059C53.976 0 45.1933 5.64593 41.9135 12.8546L36.77 24.1526C35.8138 26.2504 34.346 28.6796 32.6315 31.1028C32.1991 31.4464 31.861 31.8781 31.6661 32.4071C31.5961 32.5014 31.5291 32.5926 31.456 32.6899V27.3632C31.456 25.6849 30.0917 24.3228 28.4107 24.3228H13.1812C11.5002 24.3228 10.1359 25.6849 10.1359 27.3632V36.4842C10.1359 37.9345 11.1591 39.181 12.5843 39.4638L23.2215 41.589C23.1758 41.6255 23.1302 41.6711 23.0845 41.7076L11.6555 50.8347C5.68062 55.608 1 65.3311 1 72.9684V124.654C1 129.683 5.09897 133.775 10.1359 133.775H34.4982C39.5352 133.775 43.6341 129.683 43.6341 124.654V118.574H153.265V124.654C153.265 129.683 157.364 133.775 162.401 133.775H186.763C191.8 133.775 195.899 129.683 195.899 124.654V72.9684C195.899 65.3311 191.218 55.608 185.243 50.8347ZM157.571 112.493L150.588 105.521C147.625 102.563 142.229 100.332 138.038 100.332H57.338C53.1476 100.332 47.7514 102.563 44.7883 105.521L37.8054 112.493H16.2265C11.1896 112.493 7.09059 108.401 7.09059 103.372V88.1702H10.1359V91.2106C10.1359 97.9176 15.5991 103.372 22.3171 103.372H31.453C33.134 103.372 34.4982 102.01 34.4982 100.332C34.4982 98.6533 33.134 97.2913 31.453 97.2913H22.3171C18.9581 97.2913 16.2265 94.5641 16.2265 91.2106V88.1702H22.3171C24.8447 88.1702 28.7731 89.7937 30.5607 91.5784C31.1545 92.1713 31.9341 92.4693 32.7137 92.4693C33.4933 92.4693 34.2729 92.1713 34.8667 91.5784C36.0574 90.3897 36.0574 88.4682 34.8667 87.2794C31.9037 84.3211 26.5104 82.0895 22.3171 82.0895H7.09059V72.9684C7.09059 71.8952 7.26113 70.7368 7.50171 69.5541C9.45069 71.5851 12.2859 72.9684 16.2265 72.9684H40.5888C41.3958 72.9684 42.1693 72.6492 42.7419 72.0776L46.6794 68.1465L50.617 72.0776C51.1865 72.6492 51.963 72.9684 52.77 72.9684H88.0528L96.2964 81.1987C96.8903 81.7915 97.6699 82.0895 98.4494 82.0895C99.229 82.0895 100.009 81.7915 100.602 81.1987L108.846 72.9684H144.129C144.936 72.9684 145.712 72.6492 146.282 72.0776L150.219 68.1465L154.157 72.0776C154.727 72.6492 155.503 72.9684 156.31 72.9684H180.672C184.613 72.9684 187.448 71.5851 189.397 69.5541C189.638 70.7368 189.808 71.8952 189.808 72.9684V82.0895H174.582C170.391 82.0895 164.995 84.3211 162.032 87.2794C160.841 88.4682 160.841 90.3897 162.032 91.5784C162.626 92.1713 163.406 92.4693 164.185 92.4693C164.965 92.4693 165.744 92.1713 166.338 91.5784C168.126 89.7937 172.054 88.1702 174.582 88.1702H180.672V91.2106C180.672 94.5641 177.941 97.2913 174.582 97.2913H165.446C163.765 97.2913 162.401 98.6533 162.401 100.332C162.401 102.01 163.765 103.372 165.446 103.372H174.582C181.3 103.372 186.763 97.9176 186.763 91.2106V88.1702H189.808V103.372C189.808 108.401 185.709 112.493 180.672 112.493H157.571ZM148.959 112.493H46.4175L49.0943 109.821C50.8819 108.036 54.8104 106.412 57.338 106.412H138.038C140.566 106.412 144.494 108.036 146.282 109.821L148.959 112.493ZM36.2036 36.4842H160.695C163.646 40.3789 167.017 44.0638 170.011 46.4566L173.674 49.3814L152.135 57.9825C152.132 57.9825 152.132 57.9856 152.129 57.9856C151.76 58.1346 151.413 58.3565 151.115 58.6545L148.069 61.6948L142.868 66.8877H107.585C106.778 66.8877 106.002 67.207 105.432 67.7786L98.4494 74.7501L91.4666 67.7786C90.8971 67.207 90.1206 66.8877 89.3136 66.8877H54.0308L48.8325 61.6979L45.7872 58.6575C45.4887 58.3596 45.1416 58.1376 44.7731 57.9886C44.77 57.9886 44.77 57.9856 44.767 57.9856L23.2276 49.3844L26.8911 46.4596C29.8816 44.0638 33.2527 40.3789 36.2036 36.4842ZM186.583 62.0809C185.971 65.2581 183.998 66.8877 180.672 66.8877H157.571L154.526 63.8474L154.976 63.3974L179.141 53.7473L181.437 55.5837C183.368 57.1252 185.149 59.4693 186.583 62.0809ZM171.537 30.4035H180.672V33.9911L171.537 35.8153V30.4035ZM42.3094 26.67L47.4529 15.372C49.7491 10.3342 56.3665 6.0807 61.9059 6.0807H134.993C140.532 6.0807 147.15 10.3342 149.443 15.369L154.589 26.67C155.125 27.8435 155.823 29.1114 156.587 30.4035H40.3117C41.0761 29.1114 41.7765 27.8435 42.3094 26.67ZM16.2265 30.4035H25.3624V35.8153L16.2265 33.9911V30.4035ZM15.4591 55.5837L17.7552 53.7473L41.9227 63.3974L42.3734 63.8474L39.3281 66.8877H16.2265C12.901 66.8877 10.9277 65.2581 10.3156 62.0809C11.7499 59.4693 13.5283 57.1252 15.4591 55.5837ZM34.4982 127.695H10.1359C8.45793 127.695 7.09059 126.33 7.09059 124.654V115.457C9.64255 117.385 12.7853 118.574 16.2265 118.574H37.5435V124.654C37.5435 126.33 36.1762 127.695 34.4982 127.695ZM186.763 127.695H162.401C160.723 127.695 159.355 126.33 159.355 124.654V118.574H180.672C184.114 118.574 187.256 117.385 189.808 115.457V124.654C189.808 126.33 188.441 127.695 186.763 127.695Z" fill="#2E2D2D"/>
</g>
<defs>
<filter id="filter0_d_355_2500" x="0.045971" y="0" width="196.807" height="135.684" filterUnits="userSpaceOnUse" color-interpolation-filters="sRGB">
<feFlood flood-opacity="0" result="BackgroundImageFix"/>
<feColorMatrix in="SourceAlpha" type="matrix" values="0 0 0 0 0 0 0 0 0 0 0 0 0 0 0 0 0 0 127 0" result="hardAlpha"/>
<feOffset dy="0.954029"/>
<feGaussianBlur stdDeviation="0.477015"/>
<feComposite in2="hardAlpha" operator="out"/>
<feColorMatrix type="matrix" values="0 0 0 0 0 0 0 0 0 0 0 0 0 0 0 0 0 0 0.25 0"/>
<feBlend mode="normal" in2="BackgroundImageFix" result="effect1_dropShadow_355_2500"/>
<feBlend mode="normal" in="SourceGraphic" in2="effect1_dropShadow_355_2500" result="shape"/>
</filter>
</defs>
</svg>
