<svg width="24" height="21" viewBox="0 0 24 21" fill="none" xmlns="http://www.w3.org/2000/svg">
<path d="M6.93767 16.4857C5.88913 16.4321 5.90887 14.9573 6.93762 14.9061C9.85175 14.9162 17.538 14.9088 20.5448 14.9109C21.3672 14.9109 22.0708 14.3512 22.2557 13.55L23.9631 6.15665C24.0609 5.73333 23.9622 5.29519 23.6924 4.95465C23.4227 4.61411 23.0188 4.41605 22.5844 4.41605C21.3748 4.41605 11.1072 4.36957 5.84819 4.34861L5.01454 1.25542C4.81442 0.516227 4.13986 0 3.37407 0H0.703499C0.31498 0 0 0.31498 0 0.703499C0 1.09202 0.31498 1.407 0.703499 1.407H3.37407C3.50591 1.407 3.62199 1.49587 3.65627 1.62236L6.85789 13.501C6.29495 13.5214 5.77061 13.7504 5.373 14.1538C4.95521 14.5778 4.73084 15.139 4.74121 15.7341C4.76194 16.9243 5.74726 17.8926 6.93767 17.8926H7.96347C7.811 18.2126 7.7254 18.5704 7.7254 18.9479C7.7254 20.3056 8.82999 21.4102 10.1877 21.4102C11.5455 21.4102 12.6501 20.3056 12.6501 18.9479C12.6501 18.5704 12.5644 18.2126 12.412 17.8926H16.8541C16.7018 18.2126 16.6162 18.5702 16.6162 18.9475C16.6162 20.3053 17.7209 21.4099 19.0786 21.4099C20.4363 21.4099 21.5409 20.3052 21.5409 18.9475C21.5409 18.5555 21.4484 18.1848 21.2847 17.8555C21.5631 17.7617 21.7638 17.4991 21.7638 17.1891C21.7638 16.8006 21.4488 16.4857 21.0603 16.4857H6.93767ZM11.243 18.9479C11.243 19.5299 10.7696 20.0033 10.1877 20.0033C9.60576 20.0033 9.13235 19.5299 9.13235 18.9479C9.13235 18.3663 9.60529 17.8931 10.1868 17.8926H10.1886C10.7701 17.8931 11.243 18.3663 11.243 18.9479ZM19.0786 20.0029C18.4967 20.0029 18.0233 19.5295 18.0233 18.9476C18.0233 18.3714 18.4875 17.9019 19.0615 17.8926H19.0958C19.6698 17.9019 20.134 18.3714 20.134 18.9476C20.134 19.5295 19.6605 20.0029 19.0786 20.0029ZM22.5895 5.82821C22.5937 5.83346 22.5931 5.83594 22.5922 5.83998L21.8728 8.95531H19.4367L19.8516 5.81193L22.5788 5.82291C22.5829 5.823 22.5854 5.823 22.5895 5.82821ZM15.3367 13.5038V10.3623H17.8319L17.4173 13.5038H15.3367ZM11.8482 13.5038L11.4302 10.3623H13.9297V13.5038H11.8482ZM8.60961 13.5038H8.6074C8.43594 13.5038 8.28487 13.3881 8.24027 13.2234L7.46914 10.3623H10.0108L10.4288 13.5038H8.60961ZM11.243 8.95535L10.8199 5.77558L13.9297 5.78811V8.95535H11.243ZM15.3367 8.95535V5.79378L18.4331 5.80626L18.0175 8.95535H15.3367ZM9.39973 5.76982L9.82356 8.95531H7.08991L6.22789 5.75701L9.39973 5.76982ZM20.5448 13.5038H18.8364L19.251 10.3623H21.5478L20.8848 13.2334C20.848 13.3926 20.7082 13.5038 20.5448 13.5038Z" fill="#072B4F"/>
</svg>
