<svg width="24" height="24" viewBox="0 0 24 24" fill="none" xmlns="http://www.w3.org/2000/svg">
<path d="M1 5H22V19H1V5ZM11.5 8.5C12.4283 8.5 13.3185 8.86875 13.9749 9.52513C14.6313 10.1815 15 11.0717 15 12C15 12.9283 14.6313 13.8185 13.9749 14.4749C13.3185 15.1313 12.4283 15.5 11.5 15.5C10.5717 15.5 9.6815 15.1313 9.02513 14.4749C8.36875 13.8185 8 12.9283 8 12C8 11.0717 8.36875 10.1815 9.02513 9.52513C9.6815 8.86875 10.5717 8.5 11.5 8.5ZM5.66667 7.33333C5.66667 7.95217 5.42083 8.54566 4.98325 8.98325C4.54566 9.42083 3.95217 9.66667 3.33333 9.66667V14.3333C3.95217 14.3333 4.54566 14.5792 4.98325 15.0168C5.42083 15.4543 5.66667 16.0478 5.66667 16.6667H17.3333C17.3333 16.0478 17.5792 15.4543 18.0168 15.0168C18.4543 14.5792 19.0478 14.3333 19.6667 14.3333V9.66667C19.0478 9.66667 18.4543 9.42083 18.0168 8.98325C17.5792 8.54566 17.3333 7.95217 17.3333 7.33333H5.66667Z" fill="#3244CD"/>
</svg>
