<svg width="25" height="24" viewBox="0 0 25 24" fill="none" xmlns="http://www.w3.org/2000/svg">
<path fill-rule="evenodd" clip-rule="evenodd" d="M13.7917 12.8333C13.5397 12.8333 13.3334 13.0387 13.3334 13.2917V20.625C13.3334 20.878 13.5397 21.0833 13.7917 21.0833H21.1251C21.3772 21.0833 21.5834 20.878 21.5834 20.625V13.2917C21.5834 13.0387 21.3772 12.8333 21.1251 12.8333H13.7917ZM21.1251 22H13.7917C13.0337 22 12.4167 21.3831 12.4167 20.625V13.2917C12.4167 12.5336 13.0337 11.9167 13.7917 11.9167H21.1251C21.8832 11.9167 22.5001 12.5336 22.5001 13.2917V20.625C22.5001 21.3831 21.8832 22 21.1251 22Z" fill="#AEAEAE"/>
<path fill-rule="evenodd" clip-rule="evenodd" d="M1.875 0.91667C1.62292 0.91667 1.41667 1.122 1.41667 1.375V20.625C1.41667 20.878 1.62292 21.0833 1.875 21.0833H9.20833C9.46041 21.0833 9.66666 20.878 9.66666 20.625V1.375C9.66666 1.122 9.46041 0.91667 9.20833 0.91667H1.875ZM9.20833 22H1.875C1.11692 22 0.5 21.3831 0.5 20.625V1.375C0.5 0.61692 1.11692 0 1.875 0H9.20833C9.96641 0 10.5833 0.61692 10.5833 1.375V20.625C10.5833 21.3831 9.96641 22 9.20833 22Z" fill="#AEAEAE"/>
<path fill-rule="evenodd" clip-rule="evenodd" d="M13.7917 0.91667C13.5397 0.91667 13.3334 1.122 13.3334 1.375V8.70833C13.3334 8.96133 13.5397 9.16666 13.7917 9.16666H21.1251C21.3772 9.16666 21.5834 8.96133 21.5834 8.70833V1.375C21.5834 1.122 21.3772 0.91667 21.1251 0.91667H13.7917ZM21.1251 10.0833H13.7917C13.0337 10.0833 12.4167 9.46641 12.4167 8.70833V1.375C12.4167 0.61692 13.0337 0 13.7917 0H21.1251C21.8832 0 22.5001 0.61692 22.5001 1.375V8.70833C22.5001 9.46641 21.8832 10.0833 21.1251 10.0833Z" fill="#AEAEAE"/>
</svg>
