<svg width="17" height="17" viewBox="0 0 17 17" fill="none" xmlns="http://www.w3.org/2000/svg">
<g clip-path="url(#clip0_504_3951)">
<path d="M3.58332 8.62973C4.61087 8.62973 5.51588 8.12293 6.07463 7.3468C6.61304 8.12129 7.50636 8.62973 8.51959 8.62973C9.53019 8.62973 10.4228 8.12392 10.9617 7.35281C11.5172 8.12522 12.4225 8.62973 13.4447 8.62973C15.4055 8.62973 16.8884 6.72961 16.4094 4.82768L15.4746 1.11636C15.3326 0.552481 14.8268 0.158691 14.2448 0.158691H2.74814C2.16619 0.158691 1.66054 0.552481 1.51852 1.11639L0.589729 4.8056C0.324742 5.85769 0.673046 6.77452 1.28818 7.60922V14.8854C1.28818 15.5839 1.85216 16.1522 2.55133 16.1522H14.4463C15.1455 16.1522 15.7097 15.5839 15.7097 14.8854V10.1666C15.7097 9.86048 15.4522 9.61234 15.1458 9.61234C14.8395 9.61234 14.582 9.86045 14.582 10.1666V14.8854C14.582 14.9728 14.5337 15.0587 14.4463 15.0587H10.9595V10.73C10.9595 10.4239 10.7107 10.1717 10.4043 10.1717H6.59363C6.28726 10.1717 6.03843 10.4239 6.03843 10.73V15.0587H2.55133C2.46395 15.0587 2.41593 14.9727 2.41593 14.8854V8.39701C2.75767 8.54908 3.17108 8.62973 3.58332 8.62973ZM11.5063 1.25227H14.2448C14.3176 1.25227 14.3807 1.30893 14.3985 1.37939L15.3331 5.09437C15.6371 6.3012 14.6964 7.51938 13.4492 7.51938C12.375 7.51938 11.5063 6.64756 11.5063 5.57363V1.25227ZM6.65354 1.25227H10.4127V5.57363C10.4127 6.61694 9.59645 7.52126 8.53104 7.52126C7.44816 7.52126 6.65354 6.60682 6.65354 5.55593V1.25227ZM7.16615 11.2995H9.83174V15.0587H7.16615V11.2995ZM1.66471 5.07609L2.59412 1.37946C2.61189 1.30896 2.67542 1.2523 2.74814 1.2523H5.52579V5.55596C5.52579 6.63919 4.65055 7.5205 3.56719 7.52126C2.30675 7.52047 1.35708 6.29772 1.66471 5.07609Z" fill="#4232C6"/>
</g>
<defs>
<clipPath id="clip0_504_3951">
<rect width="16" height="16" fill="white" transform="translate(0.5 0.155273)"/>
</clipPath>
</defs>
</svg>
