<svg width="25" height="24" viewBox="0 0 25 24" fill="none" xmlns="http://www.w3.org/2000/svg">
<path fill-rule="evenodd" clip-rule="evenodd" d="M13.625 12.8332C13.3729 12.8332 13.1667 13.0385 13.1667 13.2915V20.6248C13.1667 20.8778 13.3729 21.0832 13.625 21.0832H20.9583C21.2104 21.0832 21.4167 20.8778 21.4167 20.6248V13.2915C21.4167 13.0385 21.2104 12.8332 20.9583 12.8332H13.625ZM20.9583 21.9998H13.625C12.8669 21.9998 12.25 21.3829 12.25 20.6248V13.2915C12.25 12.5334 12.8669 11.9165 13.625 11.9165H20.9583C21.7164 11.9165 22.3333 12.5334 22.3333 13.2915V20.6248C22.3333 21.3829 21.7164 21.9998 20.9583 21.9998Z" fill="#AEAEAE"/>
<path fill-rule="evenodd" clip-rule="evenodd" d="M1.70825 0.91667C1.45617 0.91667 1.24992 1.122 1.24992 1.375V20.625C1.24992 20.878 1.45617 21.0833 1.70825 21.0833H9.04158C9.29366 21.0833 9.49991 20.878 9.49991 20.625V1.375C9.49991 1.122 9.29366 0.91667 9.04158 0.91667H1.70825ZM9.04158 22H1.70825C0.950172 22 0.333252 21.3831 0.333252 20.625V1.375C0.333252 0.61692 0.950172 0 1.70825 0H9.04158C9.79966 0 10.4166 0.61692 10.4166 1.375V20.625C10.4166 21.3831 9.79966 22 9.04158 22Z" fill="#AEAEAE"/>
<path fill-rule="evenodd" clip-rule="evenodd" d="M13.625 0.91667C13.3729 0.91667 13.1667 1.122 13.1667 1.375V8.70833C13.1667 8.96133 13.3729 9.16666 13.625 9.16666H20.9583C21.2104 9.16666 21.4167 8.96133 21.4167 8.70833V1.375C21.4167 1.122 21.2104 0.91667 20.9583 0.91667H13.625ZM20.9583 10.0833H13.625C12.8669 10.0833 12.25 9.46641 12.25 8.70833V1.375C12.25 0.61692 12.8669 0 13.625 0H20.9583C21.7164 0 22.3333 0.61692 22.3333 1.375V8.70833C22.3333 9.46641 21.7164 10.0833 20.9583 10.0833Z" fill="#AEAEAE"/>
</svg>
