<svg width="24" height="23" viewBox="0 0 24 23" fill="none" xmlns="http://www.w3.org/2000/svg">
<path d="M11.9531 0C5.27836 0 0 4.77858 0 10.5469C0 13.0042 0.972328 15.3848 2.742 17.271C3.09216 18.7149 2.66705 20.2448 1.61222 21.2997C1.17122 21.7407 1.48336 22.5 2.10938 22.5C4.113 22.5 6.04425 21.7148 7.48003 20.331C8.89997 20.8373 10.4024 21.0938 11.9531 21.0938C18.6464 21.0938 24 16.3012 24 10.5469C24 4.78936 18.6427 0 11.9531 0ZM11.9531 19.6969C10.4193 19.6969 8.94061 19.4083 7.55803 18.8577C7.28648 18.7496 6.97645 18.8206 6.77916 19.0363C5.92987 19.9643 4.82583 20.6115 3.6232 20.909C4.28583 19.6392 4.45519 18.1423 4.05183 16.7242C4.02005 16.6124 3.96098 16.5102 3.87998 16.4268C2.28478 14.7837 1.39687 12.6955 1.39687 10.5469C1.39687 5.50673 6.13758 1.39687 11.9531 1.39687C17.8204 1.39687 22.6031 5.50673 22.6031 10.5469C22.6031 15.587 17.8204 19.6969 11.9531 19.6969Z" fill="#072B4F"/>
<path d="M6.32812 8.4375C5.16502 8.4375 4.21875 9.38377 4.21875 10.5469C4.21875 11.71 5.16502 12.6562 6.32812 12.6562C7.49123 12.6562 8.4375 11.71 8.4375 10.5469C8.4375 9.38377 7.49123 8.4375 6.32812 8.4375ZM6.32812 11.25C5.94042 11.25 5.625 10.9346 5.625 10.5469C5.625 10.1592 5.94042 9.84375 6.32812 9.84375C6.71583 9.84375 7.03125 10.1592 7.03125 10.5469C7.03125 10.9346 6.71583 11.25 6.32812 11.25Z" fill="#072B4F"/>
<path d="M11.9531 8.4375C10.79 8.4375 9.84375 9.38377 9.84375 10.5469C9.84375 11.71 10.79 12.6562 11.9531 12.6562C13.1162 12.6562 14.0625 11.71 14.0625 10.5469C14.0625 9.38377 13.1162 8.4375 11.9531 8.4375ZM11.9531 11.25C11.5654 11.25 11.25 10.9346 11.25 10.5469C11.25 10.1592 11.5654 9.84375 11.9531 9.84375C12.3408 9.84375 12.6562 10.1592 12.6562 10.5469C12.6562 10.9346 12.3408 11.25 11.9531 11.25Z" fill="#072B4F"/>
<path d="M17.6719 8.4375C16.5088 8.4375 15.5625 9.38377 15.5625 10.5469C15.5625 11.71 16.5088 12.6562 17.6719 12.6562C18.835 12.6562 19.7812 11.71 19.7812 10.5469C19.7812 9.38377 18.835 8.4375 17.6719 8.4375ZM17.6719 11.25C17.2842 11.25 16.9688 10.9346 16.9688 10.5469C16.9688 10.1592 17.2842 9.84375 17.6719 9.84375C18.0596 9.84375 18.375 10.1592 18.375 10.5469C18.375 10.9346 18.0596 11.25 17.6719 11.25Z" fill="#072B4F"/>
</svg>
