<svg width="17" height="16" viewBox="0 0 17 16" fill="none" xmlns="http://www.w3.org/2000/svg">
<g clip-path="url(#clip0_454_23078)">
<path d="M8.46875 0.5C4.01891 0.5 0.5 3.68572 0.5 7.53125C0.5 9.16944 1.14822 10.7566 2.328 12.014C2.56144 12.9766 2.27803 13.9966 1.57481 14.6998C1.28081 14.9938 1.48891 15.5 1.90625 15.5C3.242 15.5 4.5295 14.9766 5.48669 14.054C6.43331 14.3916 7.43494 14.5625 8.46875 14.5625C12.9309 14.5625 16.5 11.3674 16.5 7.53125C16.5 3.69291 12.9285 0.5 8.46875 0.5ZM8.46875 13.6313C7.44622 13.6313 6.46041 13.4389 5.53869 13.0718C5.35766 12.9998 5.15097 13.0471 5.01944 13.1908C4.45325 13.8096 3.71722 14.241 2.91547 14.4393C3.35722 13.5928 3.47013 12.5949 3.20122 11.6495C3.18003 11.5749 3.14066 11.5068 3.08666 11.4512C2.02319 10.3558 1.43125 8.96366 1.43125 7.53125C1.43125 4.17116 4.59172 1.43125 8.46875 1.43125C12.3802 1.43125 15.5688 4.17116 15.5688 7.53125C15.5688 10.8913 12.3802 13.6313 8.46875 13.6313Z" fill="#072B4F"/>
<path d="M4.71875 6.125C3.94334 6.125 3.3125 6.75584 3.3125 7.53125C3.3125 8.30666 3.94334 8.9375 4.71875 8.9375C5.49416 8.9375 6.125 8.30666 6.125 7.53125C6.125 6.75584 5.49416 6.125 4.71875 6.125ZM4.71875 8C4.46028 8 4.25 7.78972 4.25 7.53125C4.25 7.27278 4.46028 7.0625 4.71875 7.0625C4.97722 7.0625 5.1875 7.27278 5.1875 7.53125C5.1875 7.78972 4.97722 8 4.71875 8Z" fill="#072B4F"/>
<path d="M8.46875 6.125C7.69334 6.125 7.0625 6.75584 7.0625 7.53125C7.0625 8.30666 7.69334 8.9375 8.46875 8.9375C9.24416 8.9375 9.875 8.30666 9.875 7.53125C9.875 6.75584 9.24416 6.125 8.46875 6.125ZM8.46875 8C8.21028 8 8 7.78972 8 7.53125C8 7.27278 8.21028 7.0625 8.46875 7.0625C8.72722 7.0625 8.9375 7.27278 8.9375 7.53125C8.9375 7.78972 8.72722 8 8.46875 8Z" fill="#072B4F"/>
<path d="M12.2812 6.125C11.5058 6.125 10.875 6.75584 10.875 7.53125C10.875 8.30666 11.5058 8.9375 12.2812 8.9375C13.0567 8.9375 13.6875 8.30666 13.6875 7.53125C13.6875 6.75584 13.0567 6.125 12.2812 6.125ZM12.2812 8C12.0228 8 11.8125 7.78972 11.8125 7.53125C11.8125 7.27278 12.0228 7.0625 12.2812 7.0625C12.5397 7.0625 12.75 7.27278 12.75 7.53125C12.75 7.78972 12.5397 8 12.2812 8Z" fill="#072B4F"/>
</g>
<defs>
<clipPath id="clip0_454_23078">
<rect width="16" height="16" fill="white" transform="translate(0.5)"/>
</clipPath>
</defs>
</svg>
