<svg width="24" height="24" viewBox="0 0 24 24" fill="none" xmlns="http://www.w3.org/2000/svg">
<g clip-path="url(#clip0_723_1259)">
<path d="M4.56942 16.8154C4.41476 16.8154 4.28823 16.6888 4.28823 16.5342V13.9753H0.871705C0.393673 13.9753 0 13.5957 0 13.1036V2.82591C0 2.34788 0.393673 1.96826 0.871705 1.96826H16.3796C16.8576 1.96826 17.2513 2.34788 17.2513 2.82591V13.1036C17.2513 13.5957 16.8576 13.9753 16.3796 13.9753H9.39192C9.16696 14.0456 4.80844 16.8154 4.56942 16.8154ZM0.871705 2.53065C0.702988 2.53065 0.56239 2.65719 0.56239 2.82591V13.1036C0.56239 13.2723 0.702988 13.4129 0.871705 13.4129H4.56942C4.72408 13.4129 4.85062 13.5394 4.85062 13.6941V16.0421L9.16696 13.4551C9.20914 13.427 9.26538 13.4129 9.32162 13.4129H16.3796C16.5483 13.4129 16.6889 13.2723 16.6889 13.1036V2.82591C16.6889 2.65719 16.5483 2.53065 16.3796 2.53065H0.871705Z" fill="black"/>
<path d="M19.4304 22.0316C19.1774 22.0316 14.8329 19.2477 14.6079 19.1915H7.60618C7.12815 19.1915 6.74854 18.7978 6.74854 18.3198V15.0579C6.74854 14.9595 6.80477 14.8752 6.88913 14.8189C7.18439 14.6361 9.13869 13.4129 9.32147 13.4129H16.3795C16.5482 13.4129 16.6888 13.2723 16.6888 13.1036V7.45161C16.6888 7.29695 16.8153 7.17041 16.97 7.17041H23.1281C23.6062 7.17041 23.9999 7.56408 23.9999 8.04211V18.3198C23.9999 18.7978 23.6062 19.1915 23.1281 19.1915H19.7116V21.7504C19.7116 21.905 19.5851 22.0316 19.4304 22.0316ZM7.31093 15.2266V18.3198C7.31093 18.4885 7.43746 18.6291 7.60618 18.6291H14.6782C14.7345 18.6291 14.7767 18.6432 14.8188 18.6713L19.1492 21.2583V18.9103C19.1492 18.7556 19.2617 18.6291 19.4304 18.6291H23.1281C23.2969 18.6291 23.4375 18.4885 23.4375 18.3198V8.04211C23.4375 7.8734 23.2969 7.7328 23.1281 7.7328H17.2512V13.1036C17.2512 13.5957 16.8575 13.9753 16.3795 13.9753H9.39177L7.31093 15.2266Z" fill="black"/>
<path d="M12.6536 5.24427H4.59741C4.23185 5.24427 4.23185 4.68188 4.59741 4.68188H12.6536C13.0192 4.68188 13.0192 5.24427 12.6536 5.24427Z" fill="black"/>
<path d="M14.2705 8.25306H2.98051C2.6009 8.25306 2.6009 7.69067 2.98051 7.69067H14.2705C14.6501 7.69067 14.6501 8.25306 14.2705 8.25306Z" fill="black"/>
<path d="M12.6536 11.2619H4.59741C4.23185 11.2619 4.23185 10.6995 4.59741 10.6995H12.6536C13.0192 10.6995 13.0192 11.2619 12.6536 11.2619Z" fill="black"/>
</g>
<defs>
<clipPath id="clip0_723_1259">
<rect width="24" height="24" fill="white"/>
</clipPath>
</defs>
</svg>
