<svg width="40" height="40" viewBox="0 0 40 40" fill="none" xmlns="http://www.w3.org/2000/svg">
<circle cx="20" cy="20" r="20" fill="#5BB3CF"/>
<path d="M12.0749 11.4287C11.4498 11.4287 10.8502 11.6771 10.4082 12.1191C9.96611 12.5612 9.71777 13.1607 9.71777 13.7859V26.2144C9.71777 26.8396 9.96611 27.4391 10.4082 27.8812C10.8502 28.3232 11.4498 28.5716 12.0749 28.5716H27.9286C28.5538 28.5716 29.1533 28.3232 29.5954 27.8812C30.0374 27.4391 30.2858 26.8396 30.2858 26.2144V13.7859C30.2858 13.1607 30.0374 12.5612 29.5954 12.1191C29.1533 11.6771 28.5538 11.4287 27.9286 11.4287H12.0758H12.0749ZM20.8572 18.0716C20.8572 17.9011 20.9249 17.7376 21.0455 17.617C21.166 17.4964 21.3296 17.4287 21.5001 17.4287H26.2143C26.3848 17.4287 26.5484 17.4964 26.6689 17.617C26.7895 17.7376 26.8572 17.9011 26.8572 18.0716C26.8572 18.2421 26.7895 18.4056 26.6689 18.5261C26.5484 18.6467 26.3848 18.7144 26.2143 18.7144H21.5001C21.3296 18.7144 21.166 18.6467 21.0455 18.5261C20.9249 18.4056 20.8572 18.2421 20.8572 18.0716ZM21.5001 20.8573H26.2143C26.3848 20.8573 26.5484 20.925 26.6689 21.0456C26.7895 21.1661 26.8572 21.3296 26.8572 21.5001C26.8572 21.6706 26.7895 21.8341 26.6689 21.9547C26.5484 22.0753 26.3848 22.143 26.2143 22.143H21.5001C21.3296 22.143 21.166 22.0753 21.0455 21.9547C20.9249 21.8341 20.8572 21.6706 20.8572 21.5001C20.8572 21.3296 20.9249 21.1661 21.0455 21.0456C21.166 20.925 21.3296 20.8573 21.5001 20.8573ZM17.6429 18.0716C17.6429 18.4694 17.4849 18.8509 17.2036 19.1322C16.9223 19.4135 16.5407 19.5716 16.1429 19.5716C15.7451 19.5716 15.3636 19.4135 15.0823 19.1322C14.801 18.8509 14.6429 18.4694 14.6429 18.0716C14.6429 17.6737 14.801 17.2922 15.0823 17.0109C15.3636 16.7296 15.7451 16.5716 16.1429 16.5716C16.5407 16.5716 16.9223 16.7296 17.2036 17.0109C17.4849 17.2922 17.6429 17.6737 17.6429 18.0716ZM14.0001 20.4287H18.2858C18.5131 20.4287 18.7311 20.519 18.8919 20.6798C19.0526 20.8405 19.1429 21.0585 19.1429 21.2859V21.7144C19.1429 21.7144 18.7143 23.8573 16.1429 23.8573C13.5715 23.8573 13.1429 21.7144 13.1429 21.7144V21.2859C13.1429 21.0585 13.2332 20.8405 13.394 20.6798C13.5547 20.519 13.7727 20.4287 14.0001 20.4287Z" fill="white"/>
</svg>
