<svg width="16" height="16" viewBox="0 0 16 16" fill="none" xmlns="http://www.w3.org/2000/svg">
<circle cx="8" cy="8" r="8" fill="#C00319"/>
<path fill-rule="evenodd" clip-rule="evenodd" d="M8 2C8.30125 2 8.54545 2.24421 8.54545 2.54545V3.12087C10.8209 3.37241 12.6276 5.17912 12.8791 7.45455H13.4545C13.7558 7.45455 14 7.69875 14 8C14 8.30125 13.7558 8.54545 13.4545 8.54545H12.8791C12.6276 10.8209 10.8209 12.6276 8.54545 12.8791V13.4545C8.54545 13.7558 8.30125 14 8 14C7.69875 14 7.45455 13.7558 7.45455 13.4545V12.8791C5.17912 12.6276 3.37241 10.8209 3.12087 8.54545H2.54545C2.24421 8.54545 2 8.30125 2 8C2 7.69875 2.24421 7.45455 2.54545 7.45455H3.12087C3.37241 5.17912 5.17912 3.37241 7.45455 3.12087V2.54545C7.45455 2.24421 7.69875 2 8 2ZM8 4.18182C5.89128 4.18182 4.18182 5.89128 4.18182 8C4.18182 10.1087 5.89128 11.8182 8 11.8182C10.1087 11.8182 11.8182 10.1087 11.8182 8C11.8182 5.89128 10.1087 4.18182 8 4.18182ZM6.90909 8C6.90909 7.39749 7.39749 6.90909 8 6.90909C8.60251 6.90909 9.09091 7.39749 9.09091 8C9.09091 8.60251 8.60251 9.09091 8 9.09091C7.39749 9.09091 6.90909 8.60251 6.90909 8Z" fill="white"/>
</svg>
