<svg width="16" height="12" viewBox="0 0 16 12" fill="none" xmlns="http://www.w3.org/2000/svg">
<path d="M9.33716 7.80279C8.93909 8.06817 8.47672 8.20845 8 8.20845C7.52331 8.20845 7.06094 8.06817 6.66288 7.80279L0.106531 3.43176C0.0701562 3.40751 0.0347187 3.38223 0 3.35623V10.5186C0 11.3398 0.666406 11.9915 1.47291 11.9915H14.5271C15.3482 11.9915 16 11.3251 16 10.5186V3.3562C15.9652 3.38226 15.9297 3.40761 15.8932 3.43189L9.33716 7.80279Z" fill="#666666"/>
<path d="M0.626562 2.6518L7.18291 7.02286C7.43109 7.18833 7.71553 7.27105 7.99997 7.27105C8.28444 7.27105 8.56891 7.1883 8.81709 7.02286L15.3734 2.6518C15.7658 2.39039 16 1.95289 16 1.48071C16 0.668801 15.3395 0.00830078 14.5276 0.00830078H1.47241C0.660531 0.00833203 0 0.668832 0 1.48149C0 1.95289 0.23425 2.39039 0.626562 2.6518Z" fill="#666666"/>
</svg>
