<svg width="250" height="200" viewBox="0 0 250 200" fill="none" xmlns="http://www.w3.org/2000/svg">
<rect width="250" height="200" fill="white"/>
<path fill-rule="evenodd" clip-rule="evenodd" d="M63 134H154C154.515 134 155.017 133.944 155.5 133.839C155.983 133.944 156.485 134 157 134H209C212.866 134 216 130.866 216 127C216 123.134 212.866 120 209 120H203C199.134 120 196 116.866 196 113C196 109.134 199.134 106 203 106H222C225.866 106 229 102.866 229 99C229 95.134 225.866 92 222 92H200C203.866 92 207 88.866 207 85C207 81.134 203.866 78 200 78H136C139.866 78 143 74.866 143 71C143 67.134 139.866 64 136 64H79C75.134 64 72 67.134 72 71C72 74.866 75.134 78 79 78H39C35.134 78 32 81.134 32 85C32 88.866 35.134 92 39 92H64C67.866 92 71 95.134 71 99C71 102.866 67.866 106 64 106H24C20.134 106 17 109.134 17 113C17 116.866 20.134 120 24 120H63C59.134 120 56 123.134 56 127C56 130.866 59.134 134 63 134ZM226 134C229.866 134 233 130.866 233 127C233 123.134 229.866 120 226 120C222.134 120 219 123.134 219 127C219 130.866 222.134 134 226 134Z" fill="#F3F7FF"/>
<path d="M120.5 133C139.002 133 154 118.002 154 99.5C154 80.9985 139.002 66 120.5 66C101.998 66 87 80.9985 87 99.5C87 118.002 101.998 133 120.5 133Z" fill="#F3F7FF" stroke="#074F7C" stroke-width="2.5"/>
<path fill-rule="evenodd" clip-rule="evenodd" d="M115.132 125.494C116.891 125.819 118.68 125.987 120.5 126C135.136 126 147 114.136 147 99.5C147 84.8645 135.136 73 120.5 73C116.74 73 113.164 73.7829 109.924 75.1946C104.294 77.6479 99.6816 81.9999 96.896 87.4419C95.0445 91.0589 94 95.1575 94 99.5C94 103.44 94.8599 107.179 96.4021 110.54C97.5032 112.94 98.9521 115.146 100.684 117.096" fill="white"/>
<path d="M115.132 125.494C116.891 125.819 118.68 125.987 120.5 126C135.136 126 147 114.136 147 99.5C147 84.8645 135.136 73 120.5 73C116.74 73 113.164 73.7829 109.924 75.1946C104.294 77.6479 99.6816 81.9999 96.896 87.4419C95.0445 91.0589 94 95.1575 94 99.5C94 103.44 94.8599 107.179 96.4021 110.54C97.5032 112.94 98.9521 115.146 100.684 117.096" stroke="#074F7C" stroke-width="2.5" stroke-linecap="round"/>
<path d="M103.797 120.075C105.945 121.821 108.372 123.237 111 124.247" stroke="#074F7C" stroke-width="2.5" stroke-linecap="round"/>
<path d="M148 126L154 132" stroke="#074F7C" stroke-width="2.5"/>
<path fill-rule="evenodd" clip-rule="evenodd" d="M153.031 131.03C151.138 132.923 151.138 135.991 153.031 137.884L164.116 148.969C166.009 150.862 169.078 150.862 170.97 148.969C172.863 147.077 172.863 144.008 170.97 142.115L159.885 131.03C157.992 129.137 154.924 129.137 153.031 131.03Z" fill="#E8F0FE" stroke="#074F7C" stroke-width="2.5"/>
<path d="M158 133L169 144" stroke="white" stroke-width="2.5" stroke-linecap="round"/>
<path fill-rule="evenodd" clip-rule="evenodd" d="M114.001 88.0005C114.001 99.5985 123.403 109.001 135.001 109.001C137.279 109.001 139.472 108.638 141.527 107.967C138.174 116.288 130.023 122.161 120.501 122.161C107.985 122.161 97.8398 112.016 97.8398 99.5005C97.8398 88.1601 106.17 78.7653 117.046 77.1016C115.113 80.2798 114.001 84.0102 114.001 88.0005Z" fill="#E8F0FE"/>
<path d="M121 81C119.727 81 118.482 81.1253 117.279 81.3642M113.645 82.4761C106.804 85.3508 102 92.1144 102 100" stroke="#074F7C" stroke-width="2.5" stroke-linecap="round"/>
<path d="M174.176 99.7773H166M180.5 92H163.324H180.5ZM187.5 92H185.279H187.5Z" stroke="#074F7C" stroke-width="2.5" stroke-linecap="round" stroke-linejoin="round"/>
<path d="M84.1763 121.777H76.0005M79.5005 113H62.3247H79.5005ZM56.5005 113H52.2793H56.5005Z" stroke="#074F7C" stroke-width="2.5" stroke-linecap="round" stroke-linejoin="round"/>
</svg>
