<svg width="250" height="200" viewBox="0 0 250 200" fill="none" xmlns="http://www.w3.org/2000/svg">
<rect width="250" height="200" fill="white"/>
<path fill-rule="evenodd" clip-rule="evenodd" d="M63 134H154C154.515 134 155.017 133.944 155.5 133.839C155.983 133.944 156.485 134 157 134H209C212.866 134 216 130.866 216 127C216 123.134 212.866 120 209 120H203C199.134 120 196 116.866 196 113C196 109.134 199.134 106 203 106H222C225.866 106 229 102.866 229 99C229 95.134 225.866 92 222 92H200C203.866 92 207 88.866 207 85C207 81.134 203.866 78 200 78H136C139.866 78 143 74.866 143 71C143 67.134 139.866 64 136 64H79C75.134 64 72 67.134 72 71C72 74.866 75.134 78 79 78H39C35.134 78 32 81.134 32 85C32 88.866 35.134 92 39 92H64C67.866 92 71 95.134 71 99C71 102.866 67.866 106 64 106H24C20.134 106 17 109.134 17 113C17 116.866 20.134 120 24 120H63C59.134 120 56 123.134 56 127C56 130.866 59.134 134 63 134ZM226 134C229.866 134 233 130.866 233 127C233 123.134 229.866 120 226 120C222.134 120 219 123.134 219 127C219 130.866 222.134 134 226 134Z" fill="#FFF8F5"/>
<path d="M115.5 125C134.002 125 149 110.002 149 91.5C149 72.9985 134.002 58 115.5 58C96.9985 58 82 72.9985 82 91.5C82 110.002 96.9985 125 115.5 125Z" fill="#F3F7FF" stroke="#C00319" stroke-width="2.5"/>
<path fill-rule="evenodd" clip-rule="evenodd" d="M110.132 117.494C111.891 117.819 113.68 117.987 115.5 118C130.136 118 142 106.136 142 91.5C142 76.8645 130.136 65 115.5 65C111.74 65 108.164 65.7829 104.924 67.1946C99.2938 69.6479 94.6816 73.9999 91.896 79.4419C90.0445 83.0589 89 87.1575 89 91.5C89 95.44 89.8599 99.1792 91.4021 102.54C92.5032 104.94 93.9521 107.146 95.6843 109.096" fill="white"/>
<path d="M110.132 117.494C111.891 117.819 113.68 117.987 115.5 118C130.136 118 142 106.136 142 91.5C142 76.8645 130.136 65 115.5 65C111.74 65 108.164 65.7829 104.924 67.1946C99.2938 69.6479 94.6816 73.9999 91.896 79.4419C90.0445 83.0589 89 87.1575 89 91.5C89 95.44 89.8599 99.1792 91.4021 102.54C92.5032 104.94 93.9521 107.146 95.6843 109.096" stroke="#C00319" stroke-width="2.5" stroke-linecap="round"/>
<path d="M98.7974 112.075C100.945 113.821 103.372 115.237 106.001 116.247" stroke="#C00319" stroke-width="2.5" stroke-linecap="round"/>
<path d="M143 118L149 124" stroke="#C00319" stroke-width="2.5"/>
<path fill-rule="evenodd" clip-rule="evenodd" d="M148.03 123.03C146.138 124.923 146.138 127.991 148.03 129.884L159.116 140.969C161.008 142.862 164.077 142.862 165.97 140.969C167.863 139.077 167.863 136.008 165.97 134.115L154.885 123.03C152.992 121.137 149.923 121.137 148.03 123.03Z" fill="#FFF8F5" stroke="#C00319" stroke-width="2.5"/>
<path d="M153 125L164 136" stroke="white" stroke-width="2.5" stroke-linecap="round"/>
<path fill-rule="evenodd" clip-rule="evenodd" d="M109 80.0005C109 91.5985 118.402 101.001 130 101.001C132.278 101.001 134.472 100.638 136.526 99.9667C133.173 108.288 125.023 114.161 115.5 114.161C102.985 114.161 92.8394 104.016 92.8394 91.5005C92.8394 80.1601 101.17 70.7653 112.045 69.1016C110.113 72.2798 109 76.0102 109 80.0005Z" fill="#FFF8F5"/>
<path d="M116 73C114.727 73 113.482 73.1253 112.279 73.3642M108.645 74.4761C101.804 77.3508 97 84.1144 97 92" stroke="#C00319" stroke-width="2.5" stroke-linecap="round"/>
<path d="M174.176 91.7773H166M180.5 84H163.324H180.5ZM187.5 84H185.279H187.5Z" stroke="#C00319" stroke-width="2.5" stroke-linecap="round" stroke-linejoin="round"/>
<path d="M84.1758 113.777H76M79.5 105H62.3242H79.5ZM56.5 105H52.2788H56.5Z" stroke="#C00319" stroke-width="2.5" stroke-linecap="round" stroke-linejoin="round"/>
</svg>
