<svg width="57" height="56" viewBox="0 0 57 56" fill="none" xmlns="http://www.w3.org/2000/svg">
<g clip-path="url(#clip0_856_3308)">
<path fill-rule="evenodd" clip-rule="evenodd" d="M6.53174 21.2012C13.8471 21.2012 21.1668 21.2012 28.4822 21.2012C35.7975 21.2012 43.1216 21.2012 50.4414 21.2012C49.0582 18.5787 44.668 10.2342 43.8524 8.68342C42.7808 6.64604 40.8409 5.46033 38.5793 5.46033C35.2109 5.46033 31.8443 5.46033 28.4777 5.46033C25.1156 5.46033 21.751 5.46033 18.3878 5.46033C16.1274 5.46033 14.1886 6.64451 13.1164 8.67998C12.2997 10.2304 7.91044 18.5787 6.53174 21.2012Z" fill="#EDF3F6"/>
<path fill-rule="evenodd" clip-rule="evenodd" d="M43.8521 8.68342C42.7807 6.64604 40.8407 5.46033 38.5791 5.46033C35.2108 5.46033 31.8442 5.46033 28.4776 5.46033C28.4745 5.46033 28.4713 5.46033 28.4683 5.46033V21.2012C28.4729 21.2012 28.4774 21.2012 28.4819 21.2012C35.7972 21.2012 43.1214 21.2012 50.4411 21.2012C49.058 18.5787 44.6678 10.2342 43.8521 8.68342Z" fill="#E1EDF0"/>
<path d="M50.4416 23.1143H6.53187C5.86185 23.1143 5.24055 22.7638 4.89424 22.1902C4.54781 21.6167 4.52664 20.9037 4.83838 20.3107C4.83838 20.3107 10.6069 9.33898 11.4237 7.78808C12.8227 5.13234 15.4262 3.54688 18.3879 3.54688H38.5794C41.5433 3.54688 44.1475 5.134 45.5457 7.79255C45.5457 7.79255 50.751 17.6867 52.1338 20.3084C52.4465 20.9014 52.4261 21.615 52.0798 22.1891C51.7335 22.7632 51.112 23.1143 50.4416 23.1143ZM9.69897 19.2877H47.2696C46.3801 17.6 42.159 9.57368 42.159 9.57368C41.4235 8.17546 40.1188 7.37341 38.5794 7.37341H18.3879C16.8269 7.37341 15.556 8.15403 14.8093 9.57138C13.993 11.1214 9.69897 19.2877 9.69897 19.2877Z" fill="#C00319"/>
<path d="M52.1335 20.3084C50.7506 17.6867 45.5455 7.79255 45.5455 7.79255C44.1473 5.134 41.543 3.54688 38.5791 3.54688H28.4683V7.37341H38.5791C40.1185 7.37341 41.4234 8.17546 42.1587 9.57368C42.1587 9.57368 46.3799 17.6 47.2693 19.2877H28.4683V23.1143H50.4413C51.1118 23.1143 51.7334 22.7632 52.0797 22.1891C52.4258 21.615 52.4463 20.9015 52.1335 20.3084Z" fill="#C00319"/>
<path d="M13.0018 41.9395H7.81621C5.43623 41.9395 3.5 39.7948 3.5 37.1585V26.5025C3.5 23.8663 5.43623 21.7215 7.81621 21.7215H13.0018C15.3818 21.7215 17.318 23.8663 17.318 26.5025V37.1585C17.318 39.7948 15.3818 41.9395 13.0018 41.9395Z" fill="#07485E"/>
<path d="M49.1415 41.9395H43.9559C41.5759 41.9395 39.6396 39.7948 39.6396 37.1585V26.5025C39.6396 23.8663 41.5759 21.7215 43.9559 21.7215H49.1415C51.5214 21.7215 53.4577 23.8663 53.4577 26.5025V37.1585C53.4578 39.7948 51.5216 41.9395 49.1415 41.9395Z" fill="#808080"/>
<path d="M45.836 34.2865H11.1606C9.15436 34.2865 7.25589 33.4918 5.81481 32.0488C4.31902 30.5508 3.49695 28.549 3.50001 26.4123L3.50332 24.1041C3.50804 20.8248 5.34797 18.029 8.30525 16.8078C12.9116 14.9055 20.4628 13.7698 28.5047 13.7698C30.4941 13.7698 41.9502 14.2568 48.3755 16.5711C51.4931 17.6941 53.5046 20.6092 53.4999 23.9976L53.4966 26.4262C53.4904 30.7604 50.0538 34.2865 45.836 34.2865Z" fill="#C00319"/>
<path d="M48.3757 16.5715C41.9504 14.2571 30.4943 13.7703 28.5049 13.7703C28.4926 13.7703 28.4805 13.7704 28.4683 13.7704V34.2871H45.8362C50.054 34.2871 53.4906 30.761 53.4968 26.4267L53.5001 23.9981C53.5048 20.6098 51.4934 17.6946 48.3757 16.5715Z" fill="#C00319"/>
<path fill-rule="evenodd" clip-rule="evenodd" d="M13.0661 26.6392C14.1199 26.6392 14.9794 25.7797 14.9794 24.7259C14.9794 23.6721 14.1199 22.8126 13.0661 22.8126C12.0123 22.8126 11.1528 23.6721 11.1528 24.7259C11.1528 25.7797 12.0123 26.6392 13.0661 26.6392Z" fill="#E2B41F"/>
<path fill-rule="evenodd" clip-rule="evenodd" d="M43.9338 26.6341C44.9876 26.6341 45.847 25.7747 45.847 24.7208C45.847 23.667 44.9876 22.8076 43.9338 22.8076C42.8799 22.8076 42.0205 23.667 42.0205 24.7208C42.0205 25.7745 42.8799 26.6341 43.9338 26.6341Z" fill="black"/>
<path d="M36.2813 26.6331H20.7204C19.6638 26.6331 18.8071 25.7764 18.8071 24.7198C18.8071 23.6632 19.6638 22.8065 20.7204 22.8065H36.2813C37.3379 22.8065 38.1945 23.6632 38.1945 24.7198C38.1945 25.7764 37.3379 26.6331 36.2813 26.6331Z" fill="#FFE9B7"/>
<path d="M36.2815 22.8076H28.4683V26.6341H36.2815C37.3382 26.6341 38.1948 25.7775 38.1948 24.7208C38.1948 23.6642 37.3382 22.8076 36.2815 22.8076Z" fill="#FFE9B7"/>
<path fill-rule="evenodd" clip-rule="evenodd" d="M41.0781 46.2031C48.6686 46.2031 54.8594 40.0123 54.8594 32.4219C54.8594 24.8315 48.6686 18.6406 41.0781 18.6406C33.4877 18.6406 27.2969 24.8315 27.2969 32.4219C27.2969 40.0123 33.4877 46.2031 41.0781 46.2031Z" fill="white"/>
<path fill-rule="evenodd" clip-rule="evenodd" d="M41.0967 18.6406V46.2027C48.6788 46.1926 54.8597 40.0059 54.8597 32.4217C54.8597 24.8373 48.6788 18.6506 41.0967 18.6406Z" fill="white"/>
<path d="M41.0781 47.8438C32.5744 47.8438 25.6562 40.9256 25.6562 32.4219C25.6562 23.9182 32.5744 17 41.0781 17C49.5818 17 56.5 23.9182 56.5 32.4219C56.5 40.9256 49.5818 47.8438 41.0781 47.8438ZM41.0781 20.2812C34.3837 20.2812 28.9375 25.7275 28.9375 32.4219C28.9375 39.1163 34.3837 44.5625 41.0781 44.5625C47.7725 44.5625 53.2188 39.1163 53.2188 32.4219C53.2188 25.7275 47.7725 20.2812 41.0781 20.2812Z" fill="#3343CC"/>
<path d="M41.0967 17V20.2812C47.7827 20.2912 53.219 25.7334 53.219 32.4217C53.219 39.1099 47.7827 44.5521 41.0967 44.5621V47.8433C49.5919 47.8334 56.5003 40.9192 56.5003 32.4217C56.5003 23.9241 49.5919 17.01 41.0967 17Z" fill="#3343CC"/>
<path d="M46.5604 39.5451C46.1405 39.5451 45.7207 39.3849 45.4004 39.0645L39.9181 33.5822C39.6103 33.2746 39.4375 32.8574 39.4375 32.4221V24.6768C39.4375 23.7707 40.1721 23.0361 41.0781 23.0361C41.9842 23.0361 42.7187 23.7707 42.7187 24.6768V31.7427L47.7205 36.7444C48.3612 37.385 48.3612 38.4239 47.7205 39.0646C47.4002 39.3848 46.9803 39.5451 46.5604 39.5451Z" fill="#3343CC"/>
<path d="M47.7208 36.7446L42.719 31.7428V24.6769C42.719 23.7769 41.9942 23.0471 41.0967 23.0371V34.7608L45.4007 39.0648C45.7211 39.3852 46.1409 39.5454 46.5607 39.5454C46.9805 39.5454 47.4005 39.3852 47.7208 39.0648C48.3616 38.4241 48.3616 37.3853 47.7208 36.7446Z" fill="#3343CC"/>
</g>
<defs>
<clipPath id="clip0_856_3308">
<rect width="56" height="56" fill="white" transform="translate(0.5)"/>
</clipPath>
</defs>
</svg>
