<svg width="56" height="56" viewBox="0 0 56 56" fill="none" xmlns="http://www.w3.org/2000/svg">
<path d="M25.096 11.6112L8.79383 39.8453C8.49935 40.3551 8.34429 40.9336 8.34424 41.5223C8.34418 42.1111 8.49914 42.6896 8.79352 43.1995C9.08789 43.7094 9.51133 44.1329 10.0212 44.4272C10.5312 44.7216 11.1096 44.8766 11.6984 44.8765H44.3C44.8888 44.8766 45.4672 44.7216 45.9772 44.4272C46.4871 44.1329 46.9105 43.7094 47.2049 43.1995C47.4993 42.6896 47.6542 42.1111 47.6542 41.5223C47.6541 40.9336 47.4991 40.3551 47.2046 39.8453L30.9042 11.6112C30.6099 11.1015 30.1865 10.6781 29.6768 10.3838C29.167 10.0895 28.5887 9.93457 28.0001 9.93457C27.4114 9.93457 26.8332 10.0895 26.3234 10.3838C25.8136 10.6781 25.3903 11.1015 25.096 11.6112Z" fill="#C00319"/>
<path d="M28.2128 20.3192H27.7875C26.7406 20.3192 25.8918 21.1679 25.8918 22.2149V31.276C25.8918 32.3229 26.7406 33.1717 27.7875 33.1717H28.2128C29.2597 33.1717 30.1085 32.3229 30.1085 31.276V22.2149C30.1085 21.1679 29.2597 20.3192 28.2128 20.3192Z" fill="white"/>
<path d="M28.0002 40.358C29.1645 40.358 30.1085 39.4141 30.1085 38.2497C30.1085 37.0853 29.1645 36.1414 28.0002 36.1414C26.8358 36.1414 25.8918 37.0853 25.8918 38.2497C25.8918 39.4141 26.8358 40.358 28.0002 40.358Z" fill="white"/>
</svg>
