<svg width="80" height="80" viewBox="0 0 80 80" fill="none" xmlns="http://www.w3.org/2000/svg">
<path d="M75.3522 75.1919H4.50939C3.71758 75.1838 2.94156 74.9694 2.25783 74.57C1.57411 74.1705 1.0063 73.5998 0.610381 72.914C0.214462 72.2282 0.00410859 71.4511 5.95791e-05 70.6593C-0.00398943 69.8674 0.198406 69.0882 0.587291 68.3984L36.0084 7.04707C36.4059 6.35848 36.9776 5.78666 37.6661 5.3891C38.3547 4.99153 39.1357 4.78223 39.9308 4.78223C40.7259 4.78223 41.5069 4.99153 42.1955 5.3891C42.884 5.78666 43.4558 6.35848 43.8532 7.04707L79.2744 68.3984C79.6635 69.0882 79.866 69.8675 79.862 70.6594C79.8581 71.4513 79.6477 72.2285 79.2518 72.9143C78.8558 73.6001 78.2879 74.1709 77.6041 74.5703C76.9202 74.9697 76.1441 75.1839 75.3522 75.1919ZM39.9306 6.59372C39.453 6.5909 38.9833 6.71533 38.5698 6.9542C38.1562 7.19307 37.8138 7.53778 37.5776 7.95287L2.15595 69.3042C1.92255 69.7181 1.80107 70.1857 1.80349 70.6608C1.8059 71.136 1.93213 71.6023 2.16972 72.0138C2.40732 72.4253 2.74807 72.7677 3.15837 73.0074C3.56867 73.247 4.03435 73.3755 4.50948 73.3803H75.3519C75.827 73.3755 76.2927 73.247 76.7029 73.0073C77.1132 72.7677 77.4539 72.4252 77.6915 72.0137C77.929 71.6022 78.0552 71.1358 78.0575 70.6607C78.0598 70.1856 77.9382 69.718 77.7047 69.3042L42.2839 7.95287C42.0477 7.53772 41.7052 7.19297 41.2916 6.9541C40.878 6.71522 40.4082 6.59083 39.9306 6.59372Z" fill="#C00319"/>
<path d="M74.5866 68.4099L41.4997 11.1023C41.3385 10.8296 41.1091 10.6036 40.8339 10.4466C40.5588 10.2896 40.2475 10.207 39.9307 10.207C39.6139 10.207 39.3026 10.2896 39.0275 10.4466C38.7524 10.6036 38.5229 10.8296 38.3618 11.1023L5.27534 68.4095C5.11964 68.6853 5.03854 68.9971 5.04006 69.3138C5.04158 69.6306 5.12565 69.9415 5.28399 70.2159C5.44232 70.4903 5.66946 70.7187 5.94298 70.8785C6.21649 71.0383 6.52695 71.1241 6.84373 71.1273H73.0173C73.334 71.124 73.6444 71.0382 73.9178 70.8784C74.1913 70.7187 74.4184 70.4904 74.5768 70.2161C74.7352 69.9418 74.8194 69.631 74.8211 69.3143C74.8228 68.9976 74.742 68.6859 74.5866 68.4099Z" fill="#FBF6F7"/>
<path d="M51.5 48.2654L52.3787 48.4851C52.4945 48.514 52.6169 48.5006 52.7236 48.4472L54.7236 47.4472C54.8358 47.3911 54.9228 47.2949 54.9674 47.1777C55.0119 47.0605 55.0108 46.9308 54.9642 46.8143L53.7697 43.8279L53.9975 41.5497C54.0069 41.4557 53.9895 41.3609 53.9472 41.2764L52.9472 39.2764C52.9111 39.2041 52.8579 39.1416 52.7924 39.0944C52.7268 39.0471 52.6508 39.0164 52.5707 39.005L49.0707 38.505C49.0267 38.4987 48.9821 38.4983 48.938 38.5038L45.5 38.9336V37.2434C45.5 36.7107 45.3105 36.1954 44.9653 35.7897C44.6201 35.384 44.1418 35.1143 43.616 35.029C43.0902 34.9436 42.5512 35.0482 42.0954 35.3239C41.6396 35.5997 41.2968 36.0286 41.1284 36.5339L41.063 36.7299L40.1464 37.6464C40.0765 37.7164 40.0289 37.8055 40.0096 37.9024C39.9903 37.9994 40.0002 38.1 40.0381 38.1913C40.0759 38.2827 40.14 38.3608 40.2222 38.4157C40.3044 38.4707 40.4011 38.5 40.5 38.5H41.5V39.5C41.4998 39.8191 41.5764 40.1336 41.7234 40.4168L39.2227 42.084C39.1503 42.1322 39.0917 42.1986 39.0528 42.2764L37.0528 46.2764C37.0112 46.3596 36.9937 46.4527 37.0021 46.5453L37.4888 51.8997L36.5905 52.3834L35.3536 51.1464C35.276 51.0689 35.1751 51.019 35.0664 51.0044C34.9577 50.9899 34.8472 51.0115 34.752 51.0659L33.9148 51.5443C32.0912 52.581 30.7485 54.2933 30.1767 56.3115L30.0527 56.7456C29.7631 56.7604 29.4769 56.8143 29.2018 56.9056L28.4153 57.1678C28.1375 57.2613 27.8438 57.2987 27.5513 57.278C27.2589 57.2572 26.9734 57.1786 26.7115 57.0468L25.7236 56.5528C25.6474 56.5147 25.5627 56.4967 25.4775 56.5005C25.3924 56.5043 25.3096 56.5298 25.2371 56.5746C25.1646 56.6195 25.1048 56.6821 25.0633 56.7565C25.0218 56.831 25 56.9148 25 57V64.5C25 64.6326 25.0527 64.7598 25.1465 64.8536C25.2402 64.9473 25.3674 65 25.5 65H43.5C43.6087 65 43.7143 64.9646 43.8011 64.8992C43.8878 64.8338 43.9509 64.7419 43.9808 64.6374L45.9594 57.7124L46.9045 56.2947L47.5256 58.1581C47.5433 58.2111 47.5697 58.2607 47.6037 58.3049L52.6037 64.8049C52.6504 64.8656 52.7104 64.9147 52.7791 64.9486C52.8478 64.9824 52.9234 65 53 65H54.5C54.5821 65 54.663 64.9798 54.7355 64.9411C54.8079 64.9024 54.8697 64.8465 54.9155 64.7782C54.9612 64.71 54.9893 64.6315 54.9975 64.5498C55.0057 64.4681 54.9936 64.3856 54.9623 64.3096L51.5 55.9011V48.2654ZM53.8649 46.7586L52.4418 47.4701L50.6213 47.015C50.4955 46.9835 50.3624 47.0021 50.2501 47.0669L48.7301 47.9438L48.2585 47.2364L49.7371 46.4403C49.8492 46.3798 49.9341 46.279 49.9744 46.1582L50.4201 44.8209L50.7834 44.5787L51.0031 46.5552C51.0167 46.6775 51.0749 46.7905 51.1666 46.8726C51.2582 46.9546 51.377 47 51.5 47H53C53.124 47 53.2436 46.9539 53.3355 46.8707C53.4275 46.7875 53.4852 46.6731 53.4975 46.5497L53.5543 45.982L53.8649 46.7586ZM39.0681 53.5181L38.5429 52.4678L47.3741 47.7126L47.8621 48.4446L39.0681 53.5181ZM40.9365 47.3408L42.3095 46.6543L43.511 48.6569L40.2543 50.4106L40.9365 47.3408ZM42.3988 41.1684C42.6682 41.3466 42.9767 41.4568 43.298 41.4896C43.6192 41.5225 43.9437 41.477 44.2435 41.357C44.5434 41.237 44.8096 41.0461 45.0195 40.8007C45.2295 40.5553 45.3768 40.2626 45.4488 39.9478L46 39.8789V42.1615L44.1204 42.9133L42.3848 41.1777L42.3988 41.1684ZM43.6464 43.8536C43.7156 43.9228 43.8036 43.9701 43.8995 43.9898C43.9953 44.0095 44.0948 44.0006 44.1857 43.9642L46.6857 42.9642C46.7785 42.9271 46.858 42.8631 46.914 42.7803C46.9701 42.6976 47 42.5999 47 42.5V39.7539L47.3313 39.7125L49.0317 42.6883L49.4796 44.4799L49.0884 45.6538L44.3925 48.1823L42.9385 45.7589L41.0821 42.0462L41.5363 41.7434L43.6464 43.8536ZM50.0974 42.8279L50.5714 42.6699L50.6591 43.4597L50.313 43.6904L50.0974 42.8279ZM52.9881 41.5942L52.5475 46H51.9475L51.5156 42.1126L52.4601 40.5383L52.9881 41.5942ZM48.9955 39.5045L51.6838 39.8885L50.6664 41.5841L49.7307 41.896L48.4062 39.5781L48.9955 39.5045ZM41.8536 37.3536C41.9084 37.2987 41.9498 37.2318 41.9743 37.1581L42.077 36.8502C42.1704 36.5701 42.3604 36.3324 42.613 36.1796C42.8656 36.0267 43.1643 35.9688 43.4558 36.0161C43.7472 36.0634 44.0123 36.2128 44.2036 36.4377C44.395 36.6626 44.5 36.9482 44.5 37.2434V37.5H41.7071L41.8536 37.3536ZM44.5 38.5V39.5C44.5 39.7652 44.3946 40.0196 44.2071 40.2071C44.0196 40.3946 43.7652 40.5 43.5 40.5C43.2348 40.5 42.9804 40.3946 42.7929 40.2071C42.6054 40.0196 42.5 39.7652 42.5 39.5V38.5H44.5ZM39.8878 42.8424L40.2436 42.6052L41.8292 45.7764L40.5219 46.43L38.6543 45.3094L39.8878 42.8424ZM38.0108 46.5964L38.2057 46.2066L39.9337 47.2434L39.0907 51.0371L38.4461 51.3842L38.0108 46.5964ZM31.1382 56.5862C31.6389 54.8193 32.8144 53.3202 34.4109 52.4125L34.9165 52.1236L36.1464 53.3536C36.2225 53.4296 36.321 53.4791 36.4274 53.4947C36.5338 53.5103 36.6424 53.4912 36.7371 53.4403L37.6621 52.9422L38.2003 54.0187L37.2501 54.5669C37.156 54.6212 37.0821 54.7047 37.0397 54.8047C36.9973 54.9047 36.9886 55.0159 37.015 55.1213L37.4177 56.7321L37.3819 56.75C36.4057 57.2396 35.3287 57.4945 34.2367 57.4944C33.1446 57.4944 32.0676 57.2394 31.0915 56.7498L31.1382 56.5862ZM26 64V57.809L26.2643 57.9412C26.6435 58.1321 27.0569 58.2459 27.4804 58.276C27.9039 58.3061 28.3292 58.2519 28.7316 58.1165L29.518 57.8544C29.8116 57.7569 30.1223 57.7213 30.4303 57.7499C30.7384 57.7786 31.0371 57.8708 31.3077 58.0207L34.1177 59.5818C34.4599 59.772 34.746 60.0489 34.9476 60.3845L35.138 60.7019C35.4646 61.2479 35.9453 61.6851 36.5198 61.9585C37.0942 62.2319 37.7367 62.3293 38.3663 62.2385C38.7831 62.1801 39.208 62.2403 39.5922 62.4121C39.9764 62.5839 40.3045 62.8603 40.539 63.2099L41.0657 64H26ZM38.2249 61.2485C37.7901 61.3112 37.3464 61.2439 36.9497 61.0551C36.5531 60.8663 36.2211 60.5644 35.9955 60.1874L35.8051 59.8701C35.5133 59.384 35.0988 58.9832 34.6033 58.7076L34.2193 58.4943C34.2249 58.4943 34.2305 58.4946 34.2361 58.4946C35.4836 58.4942 36.7138 58.2031 37.8291 57.6444L38.2236 57.4472C38.3253 57.3964 38.4067 57.3123 38.4543 57.2089C38.5018 57.1056 38.5127 56.9891 38.485 56.8787L38.0765 55.2446L43.5788 52.0703L42.0301 56.3291C42.0138 56.3741 42.004 56.4211 42.001 56.4688L41.5935 62.9888L41.371 62.6552C41.0314 62.1492 40.5562 61.7489 39.9999 61.5002C39.4436 61.2514 38.8285 61.1642 38.2249 61.2485ZM45.084 57.2227C45.0553 57.2657 45.0335 57.3129 45.0192 57.3626L43.1229 64H42.5322L42.9945 56.6032L44.9254 51.2934L50.5 48.0773V51.2169L48.2427 52.5712C48.1793 52.6093 48.125 52.6611 48.084 52.7227L45.084 57.2227ZM53.7534 64H53.2462L48.4477 57.762L47.6072 55.2405L48.8536 53.3709L50.5 52.3831V56C50.5 56.0653 50.5128 56.13 50.5377 56.1904L53.7534 64Z" fill="black"/>
</svg>
