<svg width="24" height="24" viewBox="0 0 24 24" fill="none" xmlns="http://www.w3.org/2000/svg">
<path d="M12 15.6969C14.0406 15.6969 15.6949 14.0427 15.6949 12.0021C15.6949 9.96149 14.0406 8.30725 12 8.30725C9.95941 8.30725 8.30518 9.96149 8.30518 12.0021C8.30518 14.0427 9.95941 15.6969 12 15.6969Z" fill="#595959"/>
<path d="M23.6319 10.9786C20.7917 7.54657 16.4926 4.24292 12 4.24292C7.50665 4.24292 3.20645 7.54888 0.368214 10.9786C-0.122738 11.5716 -0.122738 12.4325 0.368214 13.0256C1.08178 13.8878 2.57773 15.5524 4.57572 17.0068C9.60759 20.6698 14.3814 20.6779 19.4244 17.0068C21.4224 15.5524 22.9183 13.8878 23.6319 13.0256C24.1214 12.4337 24.1239 11.5736 23.6319 10.9786ZM12 6.82931C14.8525 6.82931 17.1728 9.14967 17.1728 12.0021C17.1728 14.8545 14.8525 17.1749 12 17.1749C9.14763 17.1749 6.82726 14.8545 6.82726 12.0021C6.82726 9.14967 9.14763 6.82931 12 6.82931Z" fill="#595959"/>
</svg>
