<svg width="25" height="24" viewBox="0 0 25 24" fill="none" xmlns="http://www.w3.org/2000/svg">
<path fill-rule="evenodd" clip-rule="evenodd" d="M4.25 12C4.25 7.58172 7.83172 4 12.25 4C16.6683 4 20.25 7.58172 20.25 12C20.25 16.0796 17.1963 19.446 13.25 19.9381L13.25 14H15.25C15.8023 14 16.25 13.5523 16.25 13C16.25 12.4477 15.8023 12 15.25 12H13.25V10C13.25 9.44772 13.6977 9 14.25 9H14.75C15.3023 9 15.75 8.55228 15.75 8C15.75 7.44772 15.3023 7 14.75 7H14.25C12.5931 7 11.25 8.34315 11.25 10V12H9.25C8.69772 12 8.25 12.4477 8.25 13C8.25 13.5523 8.69772 14 9.25 14H11.25L11.25 19.9381C7.30369 19.446 4.25 16.0796 4.25 12ZM12.25 22C17.7728 22 22.25 17.5228 22.25 12C22.25 6.47715 17.7728 2 12.25 2C6.72715 2 2.25 6.47715 2.25 12C2.25 17.5228 6.72715 22 12.25 22Z" fill="#4232C6"/>
</svg>
