<svg width="286" height="288" viewBox="0 0 286 288" fill="none" xmlns="http://www.w3.org/2000/svg">
<g clip-path="url(#clip0_355_12239)">
<path d="M143 288C64.0233 288 0 284.245 0 279.612C0 274.979 64.0233 271.224 143 271.224C221.977 271.224 286 274.979 286 279.612C286 284.245 221.977 288 143 288Z" fill="#E6E6E6"/>
<path d="M123.892 66.4466H125.43V24.359C125.43 17.8986 128 11.7028 132.574 7.13458C137.148 2.56638 143.353 0 149.822 0H239.11C245.579 0 251.783 2.56638 256.358 7.13458C260.932 11.7028 263.502 17.8986 263.502 24.359V255.253C263.502 261.714 260.932 267.91 256.358 272.478C251.783 277.046 245.579 279.612 239.11 279.612H149.822C143.353 279.612 137.148 277.046 132.574 272.478C128 267.91 125.43 261.714 125.43 255.253V96.405H123.892V66.4466Z" fill="#3F3D56"/>
<path d="M130.621 24.5293V255.084C130.621 259.908 132.541 264.535 135.957 267.947C139.373 271.358 144.006 273.275 148.838 273.275H238.554C243.385 273.275 248.018 271.358 251.434 267.947C254.851 264.535 256.77 259.908 256.77 255.084V24.5293C256.77 19.7046 254.851 15.0775 251.434 11.666C248.018 8.25441 243.385 6.33776 238.554 6.33765H227.67C228.205 7.65005 228.408 9.0736 228.263 10.4831C228.118 11.8926 227.628 13.2448 226.836 14.4208C226.045 15.5967 224.976 16.5605 223.724 17.2272C222.472 17.8939 221.075 18.2431 219.656 18.2441H168.504C167.085 18.2431 165.688 17.894 164.436 17.2273C163.184 16.5606 162.115 15.5969 161.324 14.4209C160.532 13.2449 160.042 11.8927 159.897 10.4832C159.751 9.07367 159.955 7.65008 160.49 6.33765H148.838C144.006 6.33776 139.373 8.25441 135.957 11.666C132.541 15.0775 130.621 19.7046 130.621 24.5293Z" fill="white"/>
<path d="M215.325 199.088H217.212L216.582 162.283H215.952L215.325 199.088Z" fill="#E6E6E6"/>
<path d="M213.753 139.111L210.707 134.41C211.61 131.919 212.654 129.48 213.832 127.106L215.801 128.695L214.242 126.288C215.728 123.367 216.897 121.526 216.897 121.526C216.897 121.526 223.004 131.138 225.046 141.316L221.138 147.348L225.463 143.858C225.617 145.043 225.697 146.237 225.701 147.433C225.701 159.486 221.759 169.257 216.896 169.257C212.034 169.257 208.092 159.485 208.092 147.433C208.092 143.696 208.939 139.787 210.108 136.171L213.753 139.111Z" fill="#CCCCCC"/>
<path d="M166.205 199.088H168.092L167.462 162.283H166.832L166.205 199.088Z" fill="#E6E6E6"/>
<path d="M164.634 139.111L161.588 134.41C162.491 131.919 163.534 129.48 164.713 127.106L166.682 128.695L165.122 126.288C166.609 123.367 167.778 121.526 167.778 121.526C167.778 121.526 173.886 131.139 175.925 141.316L172.02 147.347L176.346 143.857C176.5 145.043 176.579 146.237 176.583 147.432C176.583 159.485 172.641 169.256 167.779 169.256C162.916 169.256 158.974 159.484 158.974 147.432C158.974 143.696 159.821 139.786 160.99 136.17L164.634 139.111Z" fill="#CCCCCC"/>
<path d="M216.761 77.0857C207.186 77.0857 199.424 69.3344 199.424 59.7727C199.424 50.211 207.186 42.4597 216.761 42.4597C226.335 42.4597 234.097 50.211 234.097 59.7727C234.097 69.3344 226.335 77.0857 216.761 77.0857Z" fill="#E6E6E6"/>
<path d="M192.748 193.729H196.639L195.342 117.84H194.045L192.748 193.729Z" fill="#E6E6E6"/>
<path d="M189.507 70.0618L183.227 60.3711C185.089 55.2337 187.24 50.2053 189.67 45.3099L193.73 48.585L190.515 43.6226C193.581 37.5991 195.99 33.804 195.99 33.804C195.99 33.804 208.584 53.6233 212.792 74.6078L204.736 87.0452L213.657 79.8495C213.974 82.2939 214.138 84.7559 214.146 87.2209C214.146 112.074 206.018 132.22 195.992 132.22C185.966 132.22 177.839 112.074 177.839 87.2209C177.839 79.5164 179.584 71.4559 181.992 63.9994L189.507 70.0618Z" fill="#CCCCCC"/>
<path d="M130.621 204.668V256.258C130.621 266.722 138.777 275.204 148.838 275.205H238.554C248.615 275.205 256.771 266.722 256.771 256.258V209.698C241.216 190.706 218.726 179.356 194.757 178.4C170.788 177.444 147.529 186.971 130.621 204.668Z" fill="#E6E6E6"/>
<path opacity="0.2" d="M193.598 255.559C178.937 255.559 167.053 243.69 167.053 229.049C167.053 214.408 178.937 202.539 193.598 202.539C208.259 202.539 220.144 214.408 220.144 229.049C220.144 243.69 208.259 255.559 193.598 255.559Z" fill="#A80901"/>
<path d="M193.598 250.395C181.793 250.395 172.224 240.838 172.224 229.049C172.224 217.26 181.793 207.703 193.598 207.703C205.403 207.703 214.973 217.26 214.973 229.049C214.973 240.838 205.403 250.395 193.598 250.395Z" fill="#A80901"/>
<path d="M201.205 218.237L194 225.443L186.832 218.275C186.674 218.106 186.483 217.971 186.271 217.878C186.06 217.785 185.831 217.736 185.6 217.733C185.105 217.733 184.63 217.93 184.28 218.28C183.93 218.63 183.733 219.105 183.733 219.6C183.729 219.829 183.772 220.056 183.858 220.268C183.945 220.48 184.074 220.672 184.237 220.832L191.499 228L184.237 235.261C183.93 235.562 183.749 235.97 183.733 236.4C183.733 236.895 183.93 237.37 184.28 237.72C184.63 238.07 185.105 238.267 185.6 238.267C185.838 238.277 186.075 238.237 186.297 238.15C186.519 238.063 186.72 237.931 186.888 237.763L194 230.557L201.187 237.744C201.345 237.907 201.533 238.037 201.741 238.127C201.949 238.216 202.173 238.264 202.4 238.267C202.895 238.267 203.37 238.07 203.72 237.72C204.07 237.37 204.267 236.895 204.267 236.4C204.271 236.171 204.229 235.944 204.142 235.732C204.055 235.52 203.926 235.328 203.763 235.168L196.501 228L203.763 220.739C204.07 220.438 204.251 220.03 204.267 219.6C204.267 219.105 204.07 218.63 203.72 218.28C203.37 217.93 202.895 217.733 202.4 217.733C201.952 217.739 201.523 217.92 201.205 218.237Z" fill="white"/>
<path d="M80.0101 195.849C72.356 195.849 66.1511 189.652 66.1511 182.008C66.1511 174.364 72.356 168.168 80.0101 168.168C87.6642 168.168 93.8691 174.364 93.8691 182.008C93.8691 189.652 87.6642 195.849 80.0101 195.849Z" fill="#2F2E41"/>
<path d="M74.394 259.706L73.3265 264.736L53.3905 263.016L54.9658 255.593L74.394 259.706Z" fill="#FFB8B8"/>
<path d="M75.9463 275.425L79.301 259.616L73.1847 258.322L71.1262 268.023C70.9559 268.825 70.9456 269.653 71.0957 270.459C71.2458 271.265 71.5535 272.034 72.0011 272.721C72.4487 273.408 73.0274 274.001 73.7044 274.465C74.3813 274.929 75.1431 275.255 75.9463 275.425Z" fill="#2F2E41"/>
<path d="M86.8833 259.437L89.1272 264.065L108.068 257.625L104.756 250.795L86.8833 259.437Z" fill="#FFB8B8"/>
<path d="M92.0524 266.735L87.725 257.809L82.0978 260.53L89.1497 275.075C90.642 274.353 91.7862 273.069 92.3306 271.505C92.875 269.941 92.7749 268.225 92.0524 266.735Z" fill="#2F2E41"/>
<path d="M124.202 250.297C123.554 250.418 122.887 250.395 122.248 250.23C121.61 250.065 121.015 249.763 120.506 249.344C119.997 248.925 119.587 248.399 119.303 247.805C119.02 247.21 118.87 246.56 118.865 245.902L87.6301 217.143L95.387 211.143L123.667 241.316C124.776 241.38 125.822 241.849 126.608 242.633C127.394 243.417 127.865 244.461 127.931 245.569C127.997 246.676 127.654 247.769 126.966 248.641C126.279 249.512 125.295 250.101 124.202 250.297L124.202 250.297Z" fill="#FFB8B8"/>
<path d="M81.7496 196.474C76.0528 196.474 71.4347 191.862 71.4347 186.173C71.4347 180.483 76.0528 175.872 81.7496 175.872C87.4463 175.872 92.0645 180.483 92.0645 186.173C92.0645 191.862 87.4463 196.474 81.7496 196.474Z" fill="#FFB8B8"/>
<path d="M72.4928 246.723C79.7285 246.723 88.4424 245.202 93.8185 238.974L93.9394 238.834L93.8134 238.696C93.7714 238.652 89.8178 234.138 93.7668 226.089L99.197 227.757L104.602 220.632L101.608 211.661L89.3542 201.805C87.5987 200.4 85.4614 199.554 83.2188 199.376C79.1601 198.984 75.2064 197.859 71.5499 196.057C69.8768 195.245 68.0341 194.842 66.1743 194.883L65.9333 194.889C65.3677 194.905 64.8112 195.036 64.2976 195.273C63.7839 195.51 63.3239 195.849 62.9453 196.269C62.5667 196.688 62.2775 197.181 62.0951 197.716C61.9127 198.251 61.841 198.817 61.8843 199.38C62.7154 210.13 64.1824 236.096 59.8718 245.037L59.7605 245.268L60.0091 245.331C64.1062 246.252 68.2924 246.718 72.4919 246.723L72.4928 246.723Z" fill="#A80901"/>
<path d="M92.3992 238.838C92.3992 238.838 119.697 236.321 122.637 244.29C125.577 252.258 122.217 256.033 117.178 257.711C112.138 259.388 99.9587 261.485 99.9587 261.485L94.4991 254.775L80.2201 255.614C80.2201 255.614 64.3095 264.829 59.9103 274.686C58.9664 276.818 57.4613 278.656 55.5551 280.003C53.6489 281.349 51.4128 282.155 49.0847 282.334C45.557 282.579 42.4227 281.249 42.4227 275.744C42.4227 263.162 60.0615 245.128 60.0615 245.128L92.3992 238.838Z" fill="#2F2E41"/>
<path d="M113.188 251.21C113.188 251.21 106.048 249.113 94.7093 254.565L113.188 251.21Z" fill="#2F2E41"/>
<path d="M92.0396 179.603C88.0112 182.059 83.4697 183.553 78.7685 183.97L80.1674 182.296C79.1489 182.672 78.0771 182.884 76.992 182.925C76.4487 182.941 75.9092 182.829 75.4169 182.599C74.9246 182.369 74.4932 182.027 74.1572 181.6C73.8828 181.157 73.7197 180.654 73.6819 180.135C73.6442 179.615 73.7329 179.094 73.9405 178.616C74.3667 177.663 75.0302 176.834 75.8678 176.209C77.3524 175.036 79.1046 174.248 80.9681 173.916C82.8315 173.583 84.7485 173.716 86.548 174.303C87.7831 174.671 88.8893 175.379 89.7398 176.346C90.1577 176.833 90.4479 177.416 90.5844 178.043C90.721 178.67 90.6996 179.32 90.5222 179.937" fill="#2F2E41"/>
<path d="M80.0845 171.37C78.2518 167.12 75.5084 163.322 72.0475 160.245C69.825 158.274 67.2292 156.579 64.3007 156.067C61.3723 155.555 58.0713 156.432 56.2747 158.798C54.8048 160.732 54.5309 163.324 54.6926 165.747C54.8543 168.169 55.3965 170.57 55.3449 172.996C55.2919 175.472 54.6203 177.897 53.3911 180.049C52.1619 182.201 50.414 184.012 48.3061 185.318C46.1982 186.624 43.7971 187.384 41.3206 187.528C38.8441 187.672 36.3707 187.197 34.125 186.144C36.654 187.541 38.6246 189.751 40.9705 191.432C43.3165 193.113 46.4146 194.267 49.081 193.156C51.9023 191.982 53.1967 188.786 54.2071 185.905L58.7143 173.054C59.4803 170.869 60.2845 168.62 61.8481 166.912C63.4116 165.204 65.9491 164.162 68.101 165.021C69.7322 165.672 70.7943 167.226 71.7254 168.711C72.6565 170.197 73.6392 171.781 75.2111 172.561C76.7831 173.341 79.1169 172.861 79.6305 171.183" fill="#2F2E41"/>
<path d="M76.5455 246.76C76.7234 246.759 76.9012 246.75 77.078 246.73C78.2518 246.598 79.3304 246.022 80.0922 245.121C80.8539 244.219 81.2409 243.061 81.1736 241.883C81.1064 240.705 80.5899 239.598 79.7305 238.789C78.871 237.98 77.7338 237.53 76.5526 237.532C76.3466 237.533 76.1409 237.549 75.937 237.578L61.8352 222.586L63.3072 217.686L55.9157 214.376L53.8436 219.434C53.1488 221.147 53.0258 223.038 53.4927 224.827C53.9596 226.616 54.9917 228.207 56.4356 229.363L71.9582 241.694C71.9418 241.844 71.9334 241.995 71.933 242.146C71.9332 242.795 72.0704 243.437 72.3355 244.029C72.6007 244.622 72.9878 245.152 73.4717 245.585C74.3145 246.345 75.4103 246.763 76.5455 246.76Z" fill="#FFB8B8"/>
<path d="M65.521 196.897C65.0321 196.68 64.5042 196.564 63.9693 196.556C63.4343 196.547 62.9031 196.647 62.4078 196.849C61.9124 197.051 61.4631 197.351 61.0867 197.731C60.7103 198.111 60.4147 198.563 60.2176 199.059L52.9219 217.448L64.2611 224.997L65.521 196.897Z" fill="#A80901"/>
</g>
<defs>
<clipPath id="clip0_355_12239">
<rect width="286" height="288" fill="white" transform="matrix(-1 0 0 1 286 0)"/>
</clipPath>
</defs>
</svg>
