<svg width="17" height="16" viewBox="0 0 17 16" fill="none" xmlns="http://www.w3.org/2000/svg">
<g clip-path="url(#clip0_496_2617)">
<path d="M11.875 1C11.2422 1.00074 10.6163 1.13111 10.0358 1.38307C9.45536 1.63503 8.93267 2.00325 8.5 2.465C7.86593 1.78828 7.04307 1.31779 6.13823 1.11463C5.2334 0.911466 4.28839 0.985003 3.42587 1.3257C2.56336 1.66639 1.82319 2.2585 1.30144 3.02517C0.779685 3.79183 0.500457 4.69764 0.5 5.625C0.5 10.23 7.9275 14.75 8.25 14.9275C8.32777 14.9742 8.41678 14.9989 8.5075 14.9989C8.59822 14.9989 8.68723 14.9742 8.765 14.9275C9.0725 14.75 16.5 10.23 16.5 5.625C16.4987 4.39878 16.011 3.22316 15.1439 2.35609C14.2768 1.48902 13.1012 1.00132 11.875 1ZM8.5 13.91C7.2075 13.085 1.5 9.23 1.5 5.625C1.50064 4.85499 1.74646 4.10518 2.20184 3.48425C2.65721 2.86332 3.29848 2.40352 4.03271 2.1715C4.76693 1.93948 5.55597 1.94728 6.28546 2.19379C7.01495 2.44029 7.647 2.91268 8.09 3.5425C8.13615 3.60801 8.19738 3.66147 8.26851 3.69837C8.33965 3.73527 8.41861 3.75454 8.49875 3.75454C8.57889 3.75454 8.65785 3.73527 8.72899 3.69837C8.80012 3.66147 8.86135 3.60801 8.9075 3.5425C9.35013 2.9116 9.98232 2.43819 10.7123 2.19099C11.4423 1.94379 12.232 1.93568 12.9669 2.16782C13.7018 2.39997 14.3436 2.86029 14.7991 3.48197C15.2546 4.10364 15.5001 4.85431 15.5 5.625C15.5 9.2275 9.7925 13.0825 8.5 13.91Z" fill="black"/>
</g>
<defs>
<clipPath id="clip0_496_2617">
<path d="M0.5 4C0.5 1.79086 2.29086 0 4.5 0H12.5C14.7091 0 16.5 1.79086 16.5 4V16H0.5V4Z" fill="white"/>
</clipPath>
</defs>
</svg>
