<svg width="17" height="16" viewBox="0 0 17 16" fill="none" xmlns="http://www.w3.org/2000/svg">
<path d="M1.67159 2.1716C1.30015 2.54303 1.00551 2.98399 0.804485 3.4693C0.603464 3.95461 0.5 4.47476 0.5 5.00006C0.5 5.52535 0.603464 6.0455 0.804485 6.53081C1.00551 7.01612 1.30015 7.45708 1.67159 7.82851L8.50001 14.657L15.3284 7.82851C16.0786 7.07836 16.5 6.06093 16.5 5.00006C16.5 3.93918 16.0786 2.92175 15.3284 2.1716C14.5783 1.42144 13.5609 1.00001 12.5 1.00001C11.4391 1.00001 10.4217 1.42144 9.67156 2.1716L8.50001 3.34316L7.32845 2.1716C6.95702 1.80015 6.51606 1.50551 6.03076 1.30449C5.54546 1.10347 5.02531 1 4.50002 1C3.97473 1 3.45458 1.10347 2.96928 1.30449C2.48398 1.50551 2.04302 1.80015 1.67159 2.1716Z" fill="#BF0000" stroke="#BF0000" stroke-linecap="round" stroke-linejoin="round"/>
</svg>
