<svg width="25" height="24" viewBox="0 0 25 24" fill="none" xmlns="http://www.w3.org/2000/svg">
<path fill-rule="evenodd" clip-rule="evenodd" d="M12.75 5C8.88401 5 5.75 8.13401 5.75 12C5.75 15.866 8.88401 19 12.75 19C16.2765 19 19.1939 16.3923 19.6791 13H13.75C13.1977 13 12.75 12.5523 12.75 12C12.75 11.4477 13.1977 11 13.75 11H20.75C21.3023 11 21.75 11.4477 21.75 12C21.75 16.9706 17.7206 21 12.75 21C7.77944 21 3.75 16.9706 3.75 12C3.75 7.02944 7.77944 3 12.75 3C15.2261 3 17.4702 4.00122 19.0964 5.61854C19.488 6.008 19.4897 6.64116 19.1003 7.03275C18.7108 7.42434 18.0777 7.42608 17.6861 7.03662C16.4193 5.77681 14.6764 5 12.75 5Z" fill="#4232C6"/>
</svg>
