<svg width="24" height="24" viewBox="0 0 24 24" fill="none" xmlns="http://www.w3.org/2000/svg">
<path d="M22.5085 9.76235L12.2954 0.457284C11.9634 0.154783 11.5262 -0.0089259 11.0751 0.000375732C10.6241 0.00967736 10.1941 0.19127 9.87511 0.507196L0.48204 9.80936L0.29638 9.99321C0.106712 10.181 0 10.4369 0 10.7038V23C0 23.5523 0.447715 24 1 24H8.05143C8.60371 24 9.05143 23.5523 9.05143 23V16.4437C9.05143 15.8914 9.49914 15.4437 10.0514 15.4437H12.9886C13.5409 15.4437 13.9886 15.8914 13.9886 16.4437V23C13.9886 23.5523 14.4363 24 14.9886 24H22.04C22.5923 24 23.04 23.5523 23.04 23V10.6883C23.04 10.4069 22.9215 10.1386 22.7135 9.94912L22.5085 9.76235ZM11.1105 1.62981C11.1216 1.62981 11.0994 1.62981 11.1105 1.62981V1.62981ZM21.3943 21.3702C21.3943 21.9225 20.9466 22.3702 20.3943 22.3702H16.6343C16.082 22.3702 15.6343 21.9225 15.6343 21.3702V15.4437C15.6343 15.0114 15.4609 14.5969 15.1523 14.2912C14.8436 13.9856 14.425 13.8139 13.9886 13.8139H9.05143C8.61496 13.8139 8.19636 13.9856 7.88773 14.2912C7.5791 14.5969 7.40571 15.0114 7.40571 15.4437V21.3702C7.40571 21.9225 6.958 22.3702 6.40571 22.3702H2.64572C2.09343 22.3702 1.64571 21.9225 1.64571 21.3702V11.3811C1.64571 11.1128 1.75346 10.8559 1.94476 10.6679L11.1104 1.65972C11.1105 1.65964 11.1106 1.65956 11.1106 1.65947C11.1112 1.65859 11.1125 1.65845 11.1132 1.65916L21.0652 10.664C21.2747 10.8536 21.3943 11.123 21.3943 11.4055V21.3702Z" fill="white"/>
</svg>
