<svg width="22" height="22" viewBox="0 0 22 22" fill="none" xmlns="http://www.w3.org/2000/svg">
    <mask id="mask0_465_1472" style="mask-type:alpha" x="0" y="0" width="22" height="22">
        <path fill-rule="evenodd" clip-rule="evenodd" d="M0 6.10352e-05H22V22.0001H0V6.10352e-05Z"
            fill="#301212" />
    </mask>
    <g mask="url(#mask0_465_1472)">
        <path fill-rule="evenodd" clip-rule="evenodd"
            d="M20.4952 11.5207C20.3561 11.6598 20.1711 11.7366 19.9746 11.7366H18.9984C18.6424 11.7366 18.3539 12.0251 18.3539 12.3811V19.6297C18.3539 20.2259 17.8688 20.711 17.2724 20.711H14.4059V16.1778C14.4059 14.8707 13.3426 13.8073 12.0354 13.8073H9.96454C8.65735 13.8073 7.59387 14.8707 7.59387 16.1778V20.711H4.72738C4.13119 20.711 3.64594 20.2259 3.64594 19.6297V12.3811C3.64594 12.0251 3.35741 11.7366 3.00141 11.7366H2.042C2.03193 11.7359 2.02203 11.7354 2.01179 11.7352C1.81977 11.7319 1.63967 11.6557 1.50472 11.5205C1.2177 11.2335 1.2177 10.7664 1.50472 10.4792C1.50489 10.4792 1.50489 10.479 1.50506 10.4789L1.50556 10.4784L10.4795 1.50477C10.6185 1.36563 10.8033 1.28909 11 1.28909C11.1965 1.28909 11.3813 1.36563 11.5205 1.50477L20.4924 10.4765C20.4937 10.4779 20.4953 10.4792 20.4966 10.4805C20.7821 10.7681 20.7816 11.2342 20.4953 11.5207H20.4952ZM21.408 9.56897C21.4073 9.56847 21.4068 9.5678 21.4063 9.56729L12.4321 0.59334C12.0495 0.21065 11.541 0 11 0C10.459 0 9.95045 0.21065 9.56776 0.59334L0.598197 9.56273C0.595177 9.56575 0.591987 9.56894 0.589137 9.57196C-0.196393 10.362 -0.195043 11.6439 0.592997 12.4319C0.953027 12.7921 1.42837 13.0006 1.93678 13.0225C1.95759 13.0246 1.97841 13.0256 1.99939 13.0256H2.3569V19.6297C2.3569 20.9367 3.42038 22 4.7274 22H8.23842C8.59442 22 8.88295 21.7113 8.88295 21.3555V16.1777C8.88295 15.5814 9.3682 15.0963 9.96456 15.0963H12.0354C12.6318 15.0963 13.1169 15.5814 13.1169 16.1777V21.3555C13.1169 21.7113 13.4054 22 13.7614 22H17.2724C18.5796 22 19.6429 20.9367 19.6429 19.6297V13.0256H19.9746C20.5154 13.0256 21.024 12.8149 21.4068 12.4321C22.1957 11.6428 22.1961 10.3586 21.408 9.56893L21.408 9.56897Z"
            fill="#4232C6" />
    </g>
</svg>
