<svg width="17" height="17" viewBox="0 0 17 17" fill="none" xmlns="http://www.w3.org/2000/svg">
<g clip-path="url(#clip0_496_39)">
<path d="M8.50012 0.5C6.80274 0.5 5.17488 1.17428 3.97465 2.37451C2.77441 3.57474 2.10013 5.20261 2.10013 6.89999C2.09487 8.49266 2.68886 10.0291 3.76413 11.204L8.19612 16.36C8.23367 16.4039 8.28029 16.4391 8.33277 16.4633C8.38525 16.4875 8.44234 16.5 8.50012 16.5C8.5579 16.5 8.61499 16.4875 8.66747 16.4633C8.71995 16.4391 8.76657 16.4039 8.80412 16.36L13.2361 11.204C14.3114 10.0291 14.9054 8.49266 14.9001 6.89999C14.9001 5.20261 14.2258 3.57474 13.0256 2.37451C11.8254 1.17428 10.1975 0.5 8.50012 0.5ZM12.6281 10.684L8.50012 15.488L4.37213 10.688C3.63769 9.8868 3.15227 8.88922 2.97506 7.8169C2.79786 6.74458 2.93653 5.64386 3.37416 4.64899C3.81179 3.65413 4.52948 2.80811 5.43968 2.21413C6.34987 1.62015 7.41325 1.30387 8.50012 1.30387C9.58699 1.30387 10.6504 1.62015 11.5606 2.21413C12.4708 2.80811 13.1884 3.65413 13.6261 4.64899C14.0637 5.64386 14.2024 6.74458 14.0252 7.8169C13.848 8.88922 13.3625 9.8868 12.6281 10.688V10.684Z" fill="#8A8895"/>
<path d="M8.50019 4.1001C7.9464 4.1001 7.40505 4.26431 6.9446 4.57198C6.48414 4.87965 6.12526 5.31695 5.91333 5.82858C5.70141 6.34021 5.64596 6.9032 5.754 7.44634C5.86204 7.98949 6.12871 8.4884 6.5203 8.87999C6.91188 9.27157 7.41079 9.53825 7.95394 9.64629C8.49709 9.75432 9.06007 9.69888 9.5717 9.48695C10.0833 9.27503 10.5206 8.91614 10.8283 8.45569C11.136 7.99523 11.3002 7.45388 11.3002 6.90009C11.3002 6.15749 11.0052 5.4453 10.4801 4.9202C9.95499 4.3951 9.2428 4.1001 8.50019 4.1001ZM8.50019 8.90009C8.10463 8.90009 7.71795 8.78279 7.38905 8.56303C7.06016 8.34327 6.80381 8.03091 6.65244 7.66546C6.50106 7.30001 6.46145 6.89787 6.53862 6.50991C6.61579 6.12195 6.80628 5.76559 7.08598 5.48588C7.36569 5.20618 7.72205 5.0157 8.11001 4.93853C8.49797 4.86136 8.90011 4.90096 9.26556 5.05234C9.63101 5.20371 9.94337 5.46006 10.1631 5.78895C10.3829 6.11785 10.5002 6.50453 10.5002 6.90009C10.5002 7.43052 10.2895 7.93923 9.9144 8.3143C9.53933 8.68937 9.03062 8.90009 8.50019 8.90009Z" fill="#8A8895"/>
</g>
<defs>
<clipPath id="clip0_496_39">
<rect width="16" height="16" fill="white" transform="translate(0.5 0.5)"/>
</clipPath>
</defs>
</svg>
