<svg width="10" height="16" viewBox="0 0 10 16" fill="none" xmlns="http://www.w3.org/2000/svg">
<path d="M9.0678 4.0678C9.0678 1.82481 7.24298 0 5 0C2.75702 0 0.932205 1.82481 0.932205 4.0678C0.932205 6.21939 2.61221 7.98129 4.72882 8.12176V15.7288C4.72882 15.8788 4.85031 16 5 16C5.1497 16 5.27119 15.8788 5.27119 15.7288V8.12176C7.3878 7.98129 9.0678 6.21939 9.0678 4.0678ZM3.64407 4.0678C3.04583 4.0678 2.55932 3.58129 2.55932 2.98305C2.55932 2.38481 3.04583 1.89831 3.64407 1.89831C4.24231 1.89831 4.72882 2.38481 4.72882 2.98305C4.72882 3.58129 4.24231 4.0678 3.64407 4.0678Z" fill="black"/>
</svg>
