<svg width="17" height="16" viewBox="0 0 17 16" fill="none" xmlns="http://www.w3.org/2000/svg">
<g clip-path="url(#clip0_522_15704)">
<path d="M8.40002 0C6.70264 0 5.07478 0.674283 3.87455 1.87451C2.67432 3.07474 2.00003 4.70261 2.00003 6.39999C1.99477 7.99266 2.58876 9.52906 3.66403 10.704L8.09602 15.86C8.13357 15.9039 8.18019 15.9391 8.23267 15.9633C8.28515 15.9875 8.34224 16 8.40002 16C8.4578 16 8.51489 15.9875 8.56737 15.9633C8.61985 15.9391 8.66647 15.9039 8.70402 15.86L13.136 10.704C14.2113 9.52906 14.8053 7.99266 14.8 6.39999C14.8 4.70261 14.1257 3.07474 12.9255 1.87451C11.7253 0.674283 10.0974 0 8.40002 0ZM12.528 10.184L8.40002 14.988L4.27203 10.188C3.53759 9.3868 3.05217 8.38922 2.87497 7.3169C2.69776 6.24458 2.83643 5.14386 3.27406 4.14899C3.7117 3.15413 4.42938 2.30811 5.33958 1.71413C6.24978 1.12015 7.31316 0.803872 8.40002 0.803872C9.48689 0.803872 10.5503 1.12015 11.4605 1.71413C12.3707 2.30811 13.0883 3.15413 13.526 4.14899C13.9636 5.14386 14.1023 6.24458 13.9251 7.3169C13.7479 8.38922 13.2625 9.3868 12.528 10.188V10.184Z" fill="#8A8895"/>
<path d="M8.40009 3.59999C7.84631 3.59999 7.30496 3.76421 6.8445 4.07188C6.38404 4.37955 6.02516 4.81685 5.81324 5.32848C5.60131 5.84011 5.54586 6.4031 5.6539 6.94624C5.76194 7.48939 6.02861 7.9883 6.4202 8.37988C6.81178 8.77147 7.3107 9.03814 7.85384 9.14618C8.39699 9.25422 8.95997 9.19877 9.47161 8.98685C9.98324 8.77492 10.4205 8.41604 10.7282 7.95558C11.0359 7.49513 11.2001 6.95378 11.2001 6.39999C11.2001 5.65738 10.9051 4.9452 10.38 4.42009C9.85489 3.89499 9.1427 3.59999 8.40009 3.59999ZM8.40009 8.39999C8.00453 8.39999 7.61785 8.28269 7.28896 8.06293C6.96006 7.84316 6.70371 7.53081 6.55234 7.16535C6.40096 6.7999 6.36136 6.39777 6.43853 6.00981C6.5157 5.62185 6.70618 5.26548 6.98588 4.98578C7.26559 4.70607 7.62195 4.51559 8.00991 4.43842C8.39787 4.36125 8.80001 4.40086 9.16546 4.55223C9.53091 4.70361 9.84327 4.95995 10.063 5.28885C10.2828 5.61775 10.4001 6.00443 10.4001 6.39999C10.4001 6.93042 10.1894 7.43913 9.8143 7.8142C9.43923 8.18927 8.93053 8.39999 8.40009 8.39999Z" fill="#8A8895"/>
</g>
<defs>
<clipPath id="clip0_522_15704">
<rect width="16" height="16" fill="white" transform="translate(0.399902)"/>
</clipPath>
</defs>
</svg>
