<svg width="24" height="24" viewBox="0 0 24 24" fill="none" xmlns="http://www.w3.org/2000/svg">
<rect width="24" height="24" rx="12" fill="#FFD2BF"/>
<circle cx="12" cy="12" r="9" fill="#C00319"/>
<g clip-path="url(#clip0_368_128)">
<path d="M15.589 7.48655C14.6304 6.52793 13.3559 6 12.0002 6C10.6445 6 9.36995 6.52793 8.41135 7.48655C7.45274 8.44519 6.9248 9.71973 6.9248 11.0754C6.9248 13.8179 9.51789 16.0989 10.911 17.3244C11.1046 17.4947 11.2718 17.6417 11.405 17.7661C11.5718 17.922 11.786 18 12.0002 18C12.2144 18 12.4285 17.922 12.5954 17.7661C12.7286 17.6417 12.8958 17.4947 13.0894 17.3244C14.4825 16.0989 17.0756 13.8179 17.0756 11.0754C17.0756 9.71973 16.5477 8.44519 15.589 7.48655ZM12.6251 16.7966C12.4273 16.9706 12.2564 17.1209 12.1156 17.2525C12.0509 17.3129 11.9495 17.3129 11.8848 17.2525C11.7439 17.1209 11.5731 16.9706 11.3752 16.7966C10.0656 15.6445 7.6277 13.5 7.6277 11.0754C7.6277 8.66443 9.58916 6.70296 12.0002 6.70296C14.4111 6.70296 16.3726 8.66443 16.3726 11.0754C16.3726 13.5 13.9348 15.6445 12.6251 16.7966Z" fill="white"/>
<path d="M12.0003 8.64697C10.767 8.64697 9.76367 9.65031 9.76367 10.8836C9.76367 12.1169 10.767 13.1203 12.0003 13.1203C13.2336 13.1203 14.237 12.1169 14.237 10.8836C14.237 9.65031 13.2336 8.64697 12.0003 8.64697ZM12.0003 12.4173C11.1546 12.4173 10.4666 11.7293 10.4666 10.8836C10.4666 10.0379 11.1546 9.34989 12.0003 9.34989C12.846 9.34989 13.534 10.0379 13.534 10.8836C13.534 11.7293 12.846 12.4173 12.0003 12.4173Z" fill="white"/>
</g>
<defs>
<clipPath id="clip0_368_128">
<rect width="12" height="12" fill="white" transform="translate(6 6)"/>
</clipPath>
</defs>
</svg>
