<svg width="24" height="24" viewBox="0 0 24 24" fill="none" xmlns="http://www.w3.org/2000/svg">
<rect width="24" height="24" rx="12" fill="#FFD2BF"/>
<circle cx="12" cy="12" r="9" fill="#C00319"/>
<path fill-rule="evenodd" clip-rule="evenodd" d="M12 6C12.3013 6 12.5455 6.24421 12.5455 6.54545V7.12087C14.8209 7.37241 16.6276 9.17912 16.8791 11.4545H17.4545C17.7558 11.4545 18 11.6987 18 12C18 12.3013 17.7558 12.5455 17.4545 12.5455H16.8791C16.6276 14.8209 14.8209 16.6276 12.5455 16.8791V17.4545C12.5455 17.7558 12.3013 18 12 18C11.6987 18 11.4545 17.7558 11.4545 17.4545V16.8791C9.17912 16.6276 7.37241 14.8209 7.12087 12.5455H6.54545C6.24421 12.5455 6 12.3013 6 12C6 11.6987 6.24421 11.4545 6.54545 11.4545H7.12087C7.37241 9.17912 9.17912 7.37241 11.4545 7.12087V6.54545C11.4545 6.24421 11.6987 6 12 6ZM12 8.18182C9.89128 8.18182 8.18182 9.89128 8.18182 12C8.18182 14.1087 9.89128 15.8182 12 15.8182C14.1087 15.8182 15.8182 14.1087 15.8182 12C15.8182 9.89128 14.1087 8.18182 12 8.18182ZM10.9091 12C10.9091 11.3975 11.3975 10.9091 12 10.9091C12.6025 10.9091 13.0909 11.3975 13.0909 12C13.0909 12.6025 12.6025 13.0909 12 13.0909C11.3975 13.0909 10.9091 12.6025 10.9091 12Z" fill="white"/>
</svg>
