<svg width="16" height="16" viewBox="0 0 16 16" fill="none" xmlns="http://www.w3.org/2000/svg">
<g clip-path="url(#clip0_373_18762)">
<path d="M8.27097 15.0832H12.4441C13.5783 15.0832 14.4985 14.1596 14.4985 13.0289V2.97114C14.4985 1.83701 13.5749 0.916808 12.4441 0.916808H8.20306C7.94839 0.916808 7.74465 0.713073 7.74465 0.458404C7.74465 0.203735 7.94839 0 8.20306 0H12.4441C14.0842 0 15.4153 1.33447 15.4153 2.97114V13.0289C15.4153 14.6689 14.0808 16 12.4441 16H8.27097C8.0163 16 7.81257 15.7963 7.81257 15.5416C7.81257 15.2869 8.0197 15.0832 8.27097 15.0832Z" fill="white"/>
<path d="M0.71926 7.67729L3.63267 4.76388C3.81264 4.58391 4.10126 4.58391 4.28123 4.76388C4.4612 4.94385 4.4612 5.23247 4.28123 5.41244L2.1488 7.54487H11.4493C11.704 7.54487 11.9077 7.7486 11.9077 8.00327C11.9077 8.25794 11.704 8.46167 11.4493 8.46167H2.1488L4.28123 10.5941C4.4612 10.7741 4.4612 11.0627 4.28123 11.2427C4.19294 11.3309 4.0741 11.3785 3.95865 11.3785C3.8432 11.3785 3.72435 11.3343 3.63607 11.2427L0.722654 8.32925C0.539293 8.14588 0.539294 7.85386 0.71926 7.67729Z" fill="white"/>
</g>
<defs>
<clipPath id="clip0_373_18762">
<rect width="16" height="16" fill="white" transform="matrix(-1 0 0 1 16 0)"/>
</clipPath>
</defs>
</svg>
