<svg width="24" height="24" viewBox="0 0 24 24" fill="none" xmlns="http://www.w3.org/2000/svg">
<g clip-path="url(#clip0_355_12301)">
<path d="M17.0314 22.875C17.0314 23.1734 16.9129 23.4595 16.7019 23.6705C16.4909 23.8815 16.2048 24 15.9064 24H5.30078C4.30656 23.9989 3.35338 23.6034 2.65036 22.9004C1.94734 22.1974 1.5519 21.2442 1.55078 20.25V3.75C1.5519 2.75578 1.94734 1.8026 2.65036 1.09958C3.35338 0.396563 4.30656 0.00111661 5.30078 0L15.9064 0C16.2048 0 16.4909 0.118526 16.7019 0.329505C16.9129 0.540483 17.0314 0.826631 17.0314 1.125C17.0314 1.42337 16.9129 1.70952 16.7019 1.9205C16.4909 2.13147 16.2048 2.25 15.9064 2.25H5.30078C4.90309 2.25043 4.52181 2.40861 4.2406 2.68982C3.95939 2.97103 3.80122 3.35231 3.80078 3.75V20.25C3.8012 20.6477 3.95937 21.029 4.24059 21.3102C4.5218 21.5914 4.90309 21.7496 5.30078 21.75H15.9064C16.2048 21.75 16.4909 21.8685 16.7019 22.0795C16.9129 22.2905 17.0314 22.5766 17.0314 22.875ZM22.1198 11.2045L16.7737 5.85834C16.6696 5.75196 16.5455 5.66728 16.4085 5.60919C16.2715 5.55111 16.1244 5.52078 15.9756 5.51995C15.8268 5.51913 15.6793 5.54783 15.5417 5.60439C15.4041 5.66096 15.279 5.74426 15.1738 5.84949C15.0686 5.95471 14.9853 6.07975 14.9288 6.21739C14.8722 6.35502 14.8435 6.5025 14.8444 6.6513C14.8452 6.80009 14.8756 6.94724 14.9337 7.08422C14.9918 7.22121 15.0765 7.3453 15.1829 7.44933L18.6084 10.875H9.75198C9.45362 10.875 9.16747 10.9935 8.95649 11.2045C8.74551 11.4155 8.62698 11.7016 8.62698 12C8.62698 12.2984 8.74551 12.5845 8.95649 12.7955C9.16747 13.0065 9.45362 13.125 9.75198 13.125H18.6083L15.1827 16.5506C15.0778 16.655 14.9944 16.779 14.9375 16.9156C14.8806 17.0523 14.8512 17.1988 14.851 17.3468C14.8508 17.4947 14.8798 17.6413 14.9364 17.7781C14.9929 17.9149 15.0759 18.0391 15.1805 18.1438C15.2852 18.2484 15.4094 18.3314 15.5462 18.3879C15.683 18.4445 15.8296 18.4735 15.9775 18.4733C16.1255 18.4731 16.272 18.4437 16.4087 18.3868C16.5453 18.3299 16.6693 18.2465 16.7737 18.1416L22.1198 12.7955C22.3308 12.5845 22.4493 12.2984 22.4493 12C22.4493 11.7017 22.3308 11.4155 22.1198 11.2045Z" fill="#C00319"/>
</g>
<defs>
<clipPath id="clip0_355_12301">
<rect width="24" height="24" fill="white"/>
</clipPath>
</defs>
</svg>
