<svg width="125" height="153" viewBox="0 0 125 153" fill="none" xmlns="http://www.w3.org/2000/svg">
<path fill-rule="evenodd" clip-rule="evenodd" d="M62.503 15.2109H56.2081C55.0896 15.2109 54.1821 16.1183 54.1821 17.2388V22.5355L54.1861 22.5967L54.1821 22.6282V22.6677H54.1762C54.1722 22.9557 54.1427 23.2397 54.0776 23.51V23.512H54.0756C53.6633 25.2124 52.1324 26.477 50.3057 26.477C47.8911 26.477 45.9934 24.2715 46.5122 21.7681C46.8041 20.3537 47.9365 19.172 49.3391 18.8327C50.5779 18.5329 51.7518 18.8307 52.6355 19.4936V15.5107C52.6355 10.8492 55.7386 6.59405 60.2897 5.58595C65.3418 4.46941 69.9698 7.29828 71.6762 11.5791C72.3706 13.319 71.0607 15.2109 69.1886 15.2109H62.503ZM95.8291 71.283L89.6289 18.7851C89.1002 16.7295 87.232 15.2106 85.0127 15.2106H81.3395C80.221 15.2106 79.3135 16.118 79.3135 17.2385V22.6674H79.3115C79.2938 23.6419 79.0472 24.6697 77.327 25.8986C76.9542 26.163 76.532 26.3524 76.0822 26.4234C73.3204 26.8673 70.9887 24.3935 71.6831 21.6022C72.0164 20.2607 73.1015 19.1757 74.4409 18.8403C75.666 18.5345 76.8299 18.8127 77.7136 19.4518V15.613C77.7136 7.85036 72.0638 1.03657 64.3583 0.111382C55.1734 -0.991412 47.2924 6.23471 47.2924 15.2106H39.9933C37.774 15.2106 35.9059 16.7295 35.3772 18.7851C33.3039 36.289 31.2286 53.787 29.1158 71.283C29.1178 75.2146 32.3037 78.4006 36.2353 78.4006H45.6689C47.0537 80.2628 48.7068 81.9238 50.5809 83.3127C53.8162 85.7153 57.6334 87.264 61.6222 87.7927C62.6954 87.9308 63.7705 87.9998 64.816 87.9998C68.3077 87.9998 71.6693 87.2284 74.8079 85.7055C76.4255 84.9243 78.0293 83.9182 79.5838 82.7129L79.7337 82.5965C81.7203 81.0361 83.9692 79.2685 85.9971 79.2685C86.6915 79.2685 87.3267 79.4717 87.9402 79.8919L90.3864 81.5668L89.1258 78.8839C89.0469 78.7181 88.9641 78.5564 88.8793 78.3966C92.732 78.3059 95.8272 75.1574 95.8291 71.283L95.8291 71.283Z" fill="url(#paint0_linear_198_21744)"/>
<mask id="mask0_198_21744" style="mask-type:alpha" maskUnits="userSpaceOnUse" x="29" y="0" width="67" height="88">
<path fill-rule="evenodd" clip-rule="evenodd" d="M62.503 15.2109H56.2081C55.0896 15.2109 54.1821 16.1183 54.1821 17.2388V22.5355L54.1861 22.5967L54.1821 22.6282V22.6677H54.1762C54.1722 22.9557 54.1427 23.2397 54.0776 23.51V23.512H54.0756C53.6633 25.2124 52.1324 26.477 50.3057 26.477C47.8911 26.477 45.9934 24.2715 46.5122 21.7681C46.8041 20.3537 47.9365 19.172 49.3391 18.8327C50.5779 18.5329 51.7518 18.8307 52.6355 19.4936V15.5107C52.6355 10.8492 55.7386 6.59405 60.2897 5.58595C65.3418 4.46941 69.9698 7.29828 71.6762 11.5791C72.3706 13.319 71.0607 15.2109 69.1886 15.2109H62.503ZM95.8291 71.283L89.6289 18.7851C89.1002 16.7295 87.232 15.2106 85.0127 15.2106H81.3395C80.221 15.2106 79.3135 16.118 79.3135 17.2385V22.6674H79.3115C79.2938 23.6419 79.0472 24.6697 77.327 25.8986C76.9542 26.163 76.532 26.3524 76.0822 26.4234C73.3204 26.8673 70.9887 24.3935 71.6831 21.6022C72.0164 20.2607 73.1015 19.1757 74.4409 18.8403C75.666 18.5345 76.8299 18.8127 77.7136 19.4518V15.613C77.7136 7.85036 72.0638 1.03657 64.3583 0.111382C55.1734 -0.991412 47.2924 6.23471 47.2924 15.2106H39.9933C37.774 15.2106 35.9059 16.7295 35.3772 18.7851C33.3039 36.289 31.2286 53.787 29.1158 71.283C29.1178 75.2146 32.3037 78.4006 36.2353 78.4006H45.6689C47.0537 80.2628 48.7068 81.9238 50.5809 83.3127C53.8162 85.7153 57.6334 87.264 61.6222 87.7927C62.6954 87.9308 63.7705 87.9998 64.816 87.9998C68.3077 87.9998 71.6693 87.2284 74.8079 85.7055C76.4255 84.9243 78.0293 83.9182 79.5838 82.7129L79.7337 82.5965C81.7203 81.0361 83.9692 79.2685 85.9971 79.2685C86.6915 79.2685 87.3267 79.4717 87.9402 79.8919L90.3864 81.5668L89.1258 78.8839C89.0469 78.7181 88.9641 78.5564 88.8793 78.3966C92.732 78.3059 95.8272 75.1574 95.8291 71.283L95.8291 71.283Z" fill="white"/>
</mask>
<g mask="url(#mask0_198_21744)">
<g style="mix-blend-mode:multiply">
<path fill-rule="evenodd" clip-rule="evenodd" d="M76.4194 -0.0011686C76.4194 -0.0011686 52.3578 35.6848 95.7822 58.5882L102.489 30.2789L92.1172 12.7083L76.4194 -0.0011686Z" fill="#DEA7FF"/>
</g>
</g>
<path fill-rule="evenodd" clip-rule="evenodd" d="M71.2169 80.1086C69.5875 79.1991 68.3979 78.4021 66.3167 77.7273C68.9937 76.6461 71.4517 74.9553 74.1129 73.9372C78.8731 72.1378 84.3553 73.296 86.6713 78.2284C85.3713 76.8828 82.8659 77.2419 81.1595 77.7273C79.5162 78.1969 78.5298 78.9169 76.9319 79.5444C75.7266 80.0139 74.1444 81.2353 73.2054 80.1402C72.8148 79.7002 71.9843 80.5466 71.2169 80.1086Z" fill="url(#paint1_linear_198_21744)"/>
<path fill-rule="evenodd" clip-rule="evenodd" d="M54.5473 72.8602C57.4588 76.3671 61.3883 79.1226 66.0851 77.7912L66.2587 77.7439C63.6903 79.811 61.2325 80.4678 57.3957 79.9057C55.4073 79.6078 51.0558 78.6353 49.3178 77.6039C47.5011 76.5387 45.8421 74.7695 44.9485 72.7971C44.8242 69.7912 50.1463 66.6748 54.5473 72.8602V72.8602Z" fill="url(#paint2_linear_198_21744)"/>
<path fill-rule="evenodd" clip-rule="evenodd" d="M44.6316 66.7571C44.2094 67.2109 43.8661 67.6507 43.4261 67.854C42.6132 66.7571 42.6744 66.1613 42.8776 65.6148C43.3334 64.3778 44.0535 63.4999 44.8506 62.405C46.9972 57.8161 52.6023 59.2247 55.3743 64.0641C56.1576 65.5359 57.1126 66.9602 58.2095 68.4162C60.1983 71.0796 57.8662 73.4747 55.5164 71.4702C55.0311 71.048 54.5457 70.4838 54.1215 69.9038C53.4329 68.9962 52.8075 68.0098 52.0716 67.1951C50.0039 64.8789 46.8709 64.3778 44.6316 66.7571V66.7571Z" fill="url(#paint3_linear_198_21744)"/>
<path fill-rule="evenodd" clip-rule="evenodd" d="M86.6721 78.2344C83.7917 76.2618 80.6745 78.7828 77.9816 80.8973C76.5867 81.9762 75.1465 82.8856 73.659 83.6056C71.5618 84.5603 66.5802 86.3296 65.3906 84.4182C65.14 84.0434 64.4041 84.5129 64.42 84.1224C64.4357 82.6804 63.8872 82.1952 62.2281 82.3846C56.0726 83.1045 48.0726 79.5974 45.0659 73.084C45.0324 72.9894 44.987 72.8967 44.9397 72.802C46.7724 76.7313 50.7182 78.6111 54.8061 79.2206C58.6729 79.7847 62.7765 79.1437 66.3158 77.7333C67.395 77.3427 68.8668 76.7786 70.2143 76.7313C71.8281 76.684 72.6113 77.3743 73.6294 78.5322C74.5664 79.6131 75.4128 79.5343 76.6202 79.0648C78.2163 78.4217 79.7986 77.4355 81.4419 76.966C83.1486 76.4808 85.5771 76.6524 86.6721 78.2344H86.6721Z" fill="url(#paint4_linear_198_21744)"/>
<path fill-rule="evenodd" clip-rule="evenodd" d="M63.4193 80.4704C65.0942 80.2831 65.4395 81.1133 65.4079 82.5527C65.3921 82.9432 65.4237 83.3513 65.6585 83.726C66.8639 85.6366 71.8611 84.3668 73.6604 83.6018C70.0126 85.3704 66.0353 86.027 61.7759 85.4789C54.4468 84.5088 48.1199 79.8138 45.0679 73.084C48.1357 79.5477 57.266 81.1743 63.4193 80.4704Z" fill="url(#paint5_linear_198_21744)"/>
<path fill-rule="evenodd" clip-rule="evenodd" d="M58.3564 49.5639C65.0612 42.9079 76.5707 44.5688 82.4606 52.5388C81.6003 51.7083 80.5348 52.0692 79.126 51.7871C76.4464 51.2387 76.8687 50.4555 78.6228 53.2588C79.4378 54.5747 79.1082 55.638 77.0561 56.8611C75.7893 54.6989 74.2226 52.6019 72.3422 50.9724C67.8493 47.0901 62.1942 47.0112 58.3564 49.5639Z" fill="url(#paint6_linear_198_21744)"/>
<path fill-rule="evenodd" clip-rule="evenodd" d="M82.4613 52.5389C77.467 45.6647 64.8017 45.0868 58.4129 49.5328C55.5626 51.3968 53.6849 54.6987 53.9354 58.9574C54.03 60.492 54.4206 62.0266 55.0794 63.4665C46.9213 55.4976 51.7124 43.0196 64.567 42.8795C71.9244 42.8795 78.5775 46.6371 82.4613 52.5389V52.5389Z" fill="url(#paint7_linear_198_21744)"/>
<path fill-rule="evenodd" clip-rule="evenodd" d="M82.4572 52.5416C82.9426 53.2931 83.3965 54.0761 83.7891 54.8906C86.2951 60.0244 80.405 63.2175 77.9148 58.4269C77.6484 57.8963 77.3505 57.3796 77.0525 56.8628C76.3342 55.6104 75.7699 54.5139 74.9549 53.2141C73.1534 50.3347 75.253 48.9106 77.9306 49.5359C79.7164 49.9422 81.4548 51.2261 82.4572 52.5416Z" fill="url(#paint8_linear_198_21744)"/>
<path fill-rule="evenodd" clip-rule="evenodd" d="M45.897 60.3242C45.035 61.8749 42.3899 58.5071 43.534 56.3152C45.0212 53.4485 47.0726 50.866 49.4987 48.7668C53.6625 45.1484 58.9704 42.8795 64.5603 42.8795C54.4771 43.0512 51.2522 52.8232 54.0708 61.0917C53.3036 59.0398 51.1891 60.0579 50.8281 58.006C50.4534 55.8772 51.2995 56.4237 49.6703 57.6608C48.4493 58.6177 46.5696 59.1345 45.897 60.3242Z" fill="url(#paint9_linear_198_21744)"/>
<path fill-rule="evenodd" clip-rule="evenodd" d="M43.5373 56.3095C42.6144 58.1715 44.8506 59.1579 45.7281 57.6094C46.3848 56.418 47.3097 54.5875 48.5303 53.6486C50.1571 52.3941 52.1153 53.0529 52.49 55.1812C52.8509 57.2326 53.3044 59.0336 54.0715 61.0851C54.4146 62.1028 54.8524 63.0891 55.369 64.0596C53.2255 60.7713 48.7176 59.5661 46.1501 63.0575C45.3377 64.1543 44.8053 65.5153 44.3497 66.752C43.6142 68.7561 40.9698 68.3024 41.0013 66.0163C41.0645 62.6354 41.9873 59.3156 43.5373 56.3095H43.5373Z" fill="url(#paint10_linear_198_21744)"/>
<path fill-rule="evenodd" clip-rule="evenodd" d="M44.9382 72.7984C42.6064 67.5349 48.8678 64.0417 51.8446 69.0387C52.612 70.3078 53.6062 71.5571 54.5373 72.8616C59.7867 80.2113 48.4772 80.0355 44.9382 72.7984Z" fill="url(#paint11_linear_198_21744)"/>
<path fill-rule="evenodd" clip-rule="evenodd" d="M42.3745 77.2117C43.0762 77.2117 43.6384 76.647 43.6384 75.9579C43.6384 75.2511 43.0762 74.6883 42.3745 74.6883C41.6885 74.6883 41.1263 75.251 41.1263 75.9579C41.1263 76.647 41.6885 77.2117 42.3745 77.2117Z" fill="url(#paint12_linear_198_21744)"/>
<path fill-rule="evenodd" clip-rule="evenodd" d="M60.9967 68.4728C62.3573 68.4728 63.4537 67.3763 63.4537 66.0315C63.4537 64.6689 62.3573 63.5745 60.9967 63.5745C59.6499 63.5745 58.5554 64.6689 58.5554 66.0315C58.5554 67.3763 59.6499 68.4728 60.9967 68.4728Z" fill="url(#paint13_linear_198_21744)"/>
<path fill-rule="evenodd" clip-rule="evenodd" d="M66.5081 74.9989C67.2798 74.9989 67.9072 74.3721 67.9072 73.6074C67.9072 72.8407 67.2798 72.2139 66.5081 72.2139C65.7402 72.2139 65.1109 72.8407 65.1109 73.6074C65.1109 74.3721 65.7402 74.9989 66.5081 74.9989Z" fill="url(#paint14_linear_198_21744)"/>
<path fill-rule="evenodd" clip-rule="evenodd" d="M61.1295 75.944C62.3986 75.944 63.4329 75.162 63.4329 74.1929C63.4329 73.2239 62.3986 72.4419 61.1295 72.4419C59.8603 72.4419 58.8418 73.2239 58.8418 74.1929C58.8418 75.162 59.8603 75.944 61.1295 75.944Z" fill="url(#paint15_linear_198_21744)"/>
<path fill-rule="evenodd" clip-rule="evenodd" d="M40.4795 72.7323C41.6832 72.7323 42.6682 71.7463 42.6682 70.5256C42.6682 69.305 41.6832 68.3189 40.4795 68.3189C39.2601 68.3189 38.2751 69.305 38.2751 70.5256C38.2751 71.7463 39.2601 72.7323 40.4795 72.7323Z" fill="url(#paint16_linear_198_21744)"/>
<path fill-rule="evenodd" clip-rule="evenodd" d="M11.2599 114.518C14.0932 114.575 16.6794 115.971 18.3551 118.347L18.615 118.718L20.9031 117.684L20.5669 117.151C20.1907 116.551 19.7381 115.991 19.1965 115.449C17.1338 113.32 14.4022 112.093 11.487 111.996H11.0672C8.18661 112.093 5.44412 113.318 3.34682 115.449C1.18769 117.675 -0.000874122 120.618 -0.000874122 123.738C-0.000874122 126.858 1.18769 129.802 3.34863 132.029C5.44412 134.158 8.18476 135.384 11.0854 135.48H11.2708H11.5052C14.404 135.382 17.1338 134.155 19.1893 132.033C19.7381 131.484 20.1888 130.926 20.5669 130.326L20.9031 129.793L18.6168 128.758L18.3551 129.128C16.6866 131.497 14.0969 132.904 11.2835 132.989C6.45276 132.873 2.51989 128.722 2.51989 123.738C2.51989 118.742 6.44913 114.606 11.2599 114.518L11.2599 114.518Z" fill="#072B4F"/>
<path fill-rule="evenodd" clip-rule="evenodd" d="M31.9969 127.167H40.3688V124.647H31.9969V114.803H42.9113V112.314H29.4748V135.13H43.2836V132.641H31.9969V127.167Z" fill="#072B4F"/>
<path fill-rule="evenodd" clip-rule="evenodd" d="M52.4841 112.283V114.772H64.1602L50.711 135.101H68.114V132.611H55.3812L68.8005 112.283H52.4841Z" fill="#072B4F"/>
<path fill-rule="evenodd" clip-rule="evenodd" d="M87.4252 122.495L79.0741 112.345H77.1519V135.131H79.6421V116.987L87.4723 126.467L94.9141 117.096V135.131H97.4044V112.345H95.4768L87.4252 122.495Z" fill="#072B4F"/>
<path fill-rule="evenodd" clip-rule="evenodd" d="M119.705 128.713C118.82 128.998 117.323 129.327 115.151 129.327C112.997 129.327 111.528 128.989 110.634 128.693L110.567 128.675L115.092 116.969L119.705 128.713ZM115.926 112.247H114.216L105.363 135.134H108.056L109.641 131.01C110.823 131.414 112.635 131.817 115.15 131.817C117.653 131.817 119.456 131.426 120.632 131.036L122.248 135.134H124.945L115.926 112.247Z" fill="#072B4F"/>
<path fill-rule="evenodd" clip-rule="evenodd" d="M24.5029 144.64H26.5994L28.645 149.685L30.6706 144.64H32.758V151.929H30.9813V147.558L29.3517 151.929H27.9183L26.2779 147.547V151.929H24.5029V144.64Z" fill="#072B4F"/>
<path fill-rule="evenodd" clip-rule="evenodd" d="M34.0031 144.64H35.7789V149C35.7789 149.863 36.206 150.361 37.0457 150.361C37.8891 150.361 38.3344 149.863 38.3344 149V144.64H40.112V148.991C40.112 151.004 38.6979 152.001 37.0149 152.001C35.3227 152.001 34.0031 151.004 34.0031 148.991V144.64Z" fill="#072B4F"/>
<path fill-rule="evenodd" clip-rule="evenodd" d="M43.1403 144.64V150.559H45.4648V151.929H41.3674V144.64L43.1403 144.64Z" fill="#072B4F"/>
<path fill-rule="evenodd" clip-rule="evenodd" d="M45.9193 144.64H51.5622V146.062H49.6297V151.929H47.8517V146.062H45.9193L45.9193 144.64Z" fill="#072B4F"/>
<path fill-rule="evenodd" clip-rule="evenodd" d="M52.4619 144.64H54.2375V151.929H52.4619V144.64Z" fill="#072B4F"/>
<path fill-rule="evenodd" clip-rule="evenodd" d="M62.6958 144.64H64.5773L61.9879 151.929H59.7624L57.1712 144.64H59.0655L60.8742 150.143L62.6958 144.64Z" fill="#072B4F"/>
<path fill-rule="evenodd" clip-rule="evenodd" d="M69.7738 146.062H67.0864V147.536H69.4617V148.908H67.0864V150.506H69.7738V151.929H65.3135V144.64H69.7738V146.062Z" fill="#072B4F"/>
<path fill-rule="evenodd" clip-rule="evenodd" d="M77.4588 144.64V151.929H75.6812L72.7113 147.432V151.929H70.9337V144.64H72.7113L75.6812 149.157V144.64H77.4588Z" fill="#072B4F"/>
<path fill-rule="evenodd" clip-rule="evenodd" d="M81.3616 150.39C82.703 150.39 83.4919 149.621 83.4919 148.281C83.4919 146.942 82.703 146.151 81.3617 146.151H80.5201V150.39H81.3616ZM85.3003 148.281C85.3003 150.442 83.8026 151.927 81.4761 151.927H78.7442V144.635H81.4761C83.8026 144.635 85.3003 146.109 85.3003 148.281Z" fill="#072B4F"/>
<path fill-rule="evenodd" clip-rule="evenodd" d="M89.7469 150.379C90.9102 150.379 91.6681 149.537 91.6681 148.26C91.6681 146.962 90.9101 146.14 89.7469 146.14C88.5618 146.14 87.8148 146.962 87.8148 148.26C87.8148 149.537 88.5618 150.379 89.7469 150.379ZM89.7466 152C87.68 152 85.997 150.451 85.997 148.259C85.997 146.067 87.68 144.53 89.7466 144.53C91.8241 144.53 93.4764 146.067 93.4764 148.259C93.4764 150.451 91.8133 152 89.7466 152Z" fill="#072B4F"/>
<path fill-rule="evenodd" clip-rule="evenodd" d="M97.34 146.109H96.2403V147.918H97.34C98.0052 147.918 98.3178 147.574 98.3178 147.003C98.3178 146.464 98.0052 146.109 97.34 146.109ZM97.4443 144.635C99.2329 144.635 100.125 145.662 100.125 146.93C100.125 147.845 99.6272 148.706 98.5058 149.039L100.189 151.927H98.1823L96.6664 149.173H96.2411V151.927H94.4634V144.635H97.4443Z" fill="#072B4F"/>
<defs>
<linearGradient id="paint0_linear_198_21744" x1="29.1106" y1="88.0119" x2="95.8326" y2="88.0119" gradientUnits="userSpaceOnUse">
<stop stop-color="#7813BF"/>
<stop offset="0.49" stop-color="#2342C9"/>
<stop offset="1" stop-color="#84D3EF"/>
</linearGradient>
<linearGradient id="paint1_linear_198_21744" x1="43.715" y1="-1059.75" x2="90.2634" y2="-1059.75" gradientUnits="userSpaceOnUse">
<stop stop-color="#C4D0F7"/>
<stop offset="0.51" stop-color="#FDFDFD"/>
<stop offset="1" stop-color="white"/>
</linearGradient>
<linearGradient id="paint2_linear_198_21744" x1="66.2499" y1="-1075" x2="32.4315" y2="-1075" gradientUnits="userSpaceOnUse">
<stop stop-color="#FDFDFD"/>
<stop offset="0.5" stop-color="#C6D2F7"/>
<stop offset="1" stop-color="#EEF6FF"/>
</linearGradient>
<linearGradient id="paint3_linear_198_21744" x1="81.5968" y1="-1017.01" x2="81.5968" y2="-1064.82" gradientUnits="userSpaceOnUse">
<stop stop-color="#FDFDFD"/>
<stop offset="0.49" stop-color="#C1CEF7"/>
<stop offset="1" stop-color="#F1F3FD"/>
</linearGradient>
<linearGradient id="paint4_linear_198_21744" x1="44.9471" y1="-1063.22" x2="94.8841" y2="-1063.22" gradientUnits="userSpaceOnUse">
<stop stop-color="#C4D0F7"/>
<stop offset="0.51" stop-color="#FDFDFD"/>
<stop offset="1" stop-color="white"/>
</linearGradient>
<linearGradient id="paint5_linear_198_21744" x1="45.0713" y1="-1058.49" x2="103.841" y2="-1058.49" gradientUnits="userSpaceOnUse">
<stop stop-color="#C4D0F7"/>
<stop offset="0.51" stop-color="#FDFDFD"/>
<stop offset="1" stop-color="white"/>
</linearGradient>
<linearGradient id="paint6_linear_198_21744" x1="58.2858" y1="-1032.92" x2="99.4463" y2="-1032.92" gradientUnits="userSpaceOnUse">
<stop stop-color="#FAFAFA"/>
<stop offset="1" stop-color="#CED6F7"/>
</linearGradient>
<linearGradient id="paint7_linear_198_21744" x1="82.9557" y1="-1054.56" x2="53.2826" y2="-1054.56" gradientUnits="userSpaceOnUse">
<stop stop-color="#FDFDFD"/>
<stop offset="0.3" stop-color="#CBD5F7"/>
<stop offset="0.66" stop-color="#C4D0F7"/>
<stop offset="1" stop-color="#FDFDFD"/>
</linearGradient>
<linearGradient id="paint8_linear_198_21744" x1="66.0574" y1="-1036.01" x2="85.35" y2="-1036.01" gradientUnits="userSpaceOnUse">
<stop stop-color="#FAFAFA"/>
<stop offset="1" stop-color="#CED6F7"/>
</linearGradient>
<linearGradient id="paint9_linear_198_21744" x1="78.7427" y1="-1034.23" x2="78.7427" y2="-1076.68" gradientUnits="userSpaceOnUse">
<stop stop-color="#FDFDFD"/>
<stop offset="0.49" stop-color="#C1CEF7"/>
<stop offset="1" stop-color="#F1F3FD"/>
</linearGradient>
<linearGradient id="paint10_linear_198_21744" x1="69.583" y1="-1027.15" x2="69.583" y2="-1071.83" gradientUnits="userSpaceOnUse">
<stop stop-color="#FDFDFD"/>
<stop offset="0.49" stop-color="#C1CEF7"/>
<stop offset="1" stop-color="#F1F3FD"/>
</linearGradient>
<linearGradient id="paint11_linear_198_21744" x1="65.2107" y1="-1077.41" x2="37.8871" y2="-1077.41" gradientUnits="userSpaceOnUse">
<stop stop-color="#FDFDFD"/>
<stop offset="0.5" stop-color="#C6D2F7"/>
<stop offset="1" stop-color="#EEF6FF"/>
</linearGradient>
<linearGradient id="paint12_linear_198_21744" x1="44.7154" y1="-1063.31" x2="44.7154" y2="-1067.97" gradientUnits="userSpaceOnUse">
<stop stop-color="#FDFDFD"/>
<stop offset="0.49" stop-color="#C1CEF7"/>
<stop offset="1" stop-color="#F1F3FD"/>
</linearGradient>
<linearGradient id="paint13_linear_198_21744" x1="64.5671" y1="-1054.26" x2="64.5671" y2="-1061.4" gradientUnits="userSpaceOnUse">
<stop stop-color="#FDFDFD"/>
<stop offset="0.49" stop-color="#C1CEF7"/>
<stop offset="1" stop-color="#F1F3FD"/>
</linearGradient>
<linearGradient id="paint14_linear_198_21744" x1="64.1256" y1="-1063.92" x2="68.5873" y2="-1063.92" gradientUnits="userSpaceOnUse">
<stop stop-color="#FDFDFD"/>
<stop offset="0.5" stop-color="#C6D2F7"/>
<stop offset="1" stop-color="#EEF6FF"/>
</linearGradient>
<linearGradient id="paint15_linear_198_21744" x1="58.2411" y1="-1065.3" x2="63.9905" y2="-1065.3" gradientUnits="userSpaceOnUse">
<stop stop-color="#FDFDFD"/>
<stop offset="0.5" stop-color="#C6D2F7"/>
<stop offset="1" stop-color="#EEF6FF"/>
</linearGradient>
<linearGradient id="paint16_linear_198_21744" x1="43.7486" y1="-1059.1" x2="43.7486" y2="-1065.68" gradientUnits="userSpaceOnUse">
<stop stop-color="#FDFDFD"/>
<stop offset="0.49" stop-color="#C1CEF7"/>
<stop offset="1" stop-color="#F1F3FD"/>
</linearGradient>
</defs>
</svg>
