<svg width="80" height="80" viewBox="0 0 80 80" fill="none" xmlns="http://www.w3.org/2000/svg">
<path d="M75.3522 75.1919H4.50939C3.71758 75.1838 2.94156 74.9694 2.25783 74.57C1.57411 74.1705 1.0063 73.5998 0.610381 72.914C0.214462 72.2282 0.00410859 71.4511 5.95791e-05 70.6593C-0.00398943 69.8674 0.198406 69.0882 0.587291 68.3984L36.0084 7.04707C36.4059 6.35848 36.9776 5.78666 37.6661 5.3891C38.3547 4.99153 39.1357 4.78223 39.9308 4.78223C40.7259 4.78223 41.5069 4.99153 42.1955 5.3891C42.884 5.78666 43.4558 6.35848 43.8532 7.04707L79.2744 68.3984C79.6635 69.0882 79.866 69.8675 79.862 70.6594C79.8581 71.4513 79.6477 72.2285 79.2518 72.9143C78.8558 73.6001 78.2879 74.1709 77.6041 74.5703C76.9202 74.9697 76.1441 75.1839 75.3522 75.1919ZM39.9306 6.59372C39.453 6.5909 38.9833 6.71533 38.5698 6.9542C38.1562 7.19307 37.8138 7.53778 37.5776 7.95287L2.15595 69.3042C1.92255 69.7181 1.80107 70.1857 1.80349 70.6608C1.8059 71.136 1.93213 71.6023 2.16972 72.0138C2.40732 72.4253 2.74807 72.7677 3.15837 73.0074C3.56867 73.247 4.03435 73.3755 4.50948 73.3803H75.3519C75.827 73.3755 76.2927 73.247 76.7029 73.0073C77.1132 72.7677 77.4539 72.4252 77.6915 72.0137C77.929 71.6022 78.0552 71.1358 78.0575 70.6607C78.0598 70.1856 77.9382 69.718 77.7047 69.3042L42.2839 7.95287C42.0477 7.53772 41.7052 7.19297 41.2916 6.9541C40.878 6.71522 40.4082 6.59083 39.9306 6.59372Z" fill="#C00319"/>
<path d="M74.5866 68.4099L41.4998 11.1023C41.3386 10.8296 41.1091 10.6036 40.834 10.4466C40.5589 10.2896 40.2476 10.207 39.9308 10.207C39.614 10.207 39.3027 10.2896 39.0276 10.4466C38.7524 10.6036 38.523 10.8296 38.3618 11.1023L5.2754 68.4095C5.1197 68.6853 5.0386 68.9971 5.04012 69.3138C5.04164 69.6306 5.12571 69.9415 5.28405 70.2159C5.44239 70.4903 5.66952 70.7187 5.94304 70.8785C6.21656 71.0383 6.52701 71.1241 6.84379 71.1273H73.0173C73.334 71.124 73.6444 71.0382 73.9179 70.8784C74.1914 70.7187 74.4185 70.4904 74.5769 70.2161C74.7353 69.9418 74.8195 69.631 74.8212 69.3143C74.8229 68.9976 74.7421 68.6859 74.5866 68.4099Z" fill="#FBF6F7"/>
<g clip-path="url(#clip0_1355_17873)">
<path d="M54 48.0002C53.632 48.0002 53.3333 47.7015 53.3333 47.3335C53.3333 43.4162 51.808 39.7322 49.0373 36.9629C48.7773 36.7029 48.7773 36.2802 49.0373 36.0202C49.2973 35.7602 49.72 35.7602 49.98 36.0202C53.0026 39.0415 54.6666 43.0589 54.6666 47.3335C54.6666 47.7015 54.368 48.0002 54 48.0002Z" fill="black"/>
<path d="M26 48.0002C25.632 48.0002 25.3333 47.7015 25.3333 47.3335C25.3333 43.0589 26.9973 39.0415 30.02 36.0202C30.28 35.7602 30.7026 35.7602 30.9626 36.0202C31.2226 36.2802 31.2226 36.7029 30.9626 36.9629C28.192 39.7322 26.6666 43.4162 26.6666 47.3335C26.6666 47.7015 26.368 48.0002 26 48.0002V48.0002Z" fill="black"/>
<path d="M42 39.5733C41.632 39.5733 41.3333 39.2747 41.3333 38.9067V36.6667C41.3333 35.932 40.7346 35.3333 40 35.3333C39.2653 35.3333 38.6666 35.932 38.6666 36.6667V38.9067C38.6666 39.2747 38.368 39.5733 38 39.5733C37.632 39.5733 37.3333 39.276 37.3333 38.9067V36.6667C37.3333 35.196 38.5293 34 40 34C41.4706 34 42.6666 35.196 42.6666 36.6667V38.9067C42.6666 39.276 42.368 39.5733 42 39.5733Z" fill="black"/>
<path d="M40 66.0003C37.4266 66.0003 35.3333 63.907 35.3333 61.3337C35.3333 60.9657 35.632 60.667 36 60.667C36.368 60.667 36.6666 60.9657 36.6666 61.3337C36.6666 63.171 38.1626 64.667 40 64.667C41.8373 64.667 43.3333 63.171 43.3333 61.3337C43.3333 60.9657 43.632 60.667 44 60.667C44.368 60.667 44.6666 60.9657 44.6666 61.3337C44.6666 63.907 42.5733 66.0003 40 66.0003Z" fill="black"/>
<path d="M51.3333 62H28.6666C27.564 62 26.6666 61.1027 26.6666 60C26.6666 59.4147 26.9213 58.8613 27.3666 58.48C29.468 56.704 30.6666 54.12 30.6666 51.384V47.3333C30.6666 42.1867 34.8533 38 40 38C45.1466 38 49.3333 42.1867 49.3333 47.3333V51.384C49.3333 54.1213 50.532 56.704 52.6226 58.4707C53.0786 58.8613 53.3333 59.4147 53.3333 60C53.3333 61.1027 52.4373 62 51.3333 62ZM40 39.3333C35.588 39.3333 32 42.9213 32 47.3333V51.384C32 54.5147 30.6293 57.468 28.2386 59.4893C28.0853 59.62 28 59.8053 28 60C28 60.368 28.2986 60.6667 28.6666 60.6667H51.3333C51.7013 60.6667 52 60.368 52 60C52 59.8053 51.9146 59.62 51.7666 59.4933C49.372 57.468 48 54.5133 48 51.384V47.3333C48 42.9213 44.412 39.3333 40 39.3333Z" fill="black"/>
</g>
<defs>
<clipPath id="clip0_1355_17873">
<rect width="32" height="32" fill="white" transform="translate(24 34)"/>
</clipPath>
</defs>
</svg>
