<svg width="40" height="40" viewBox="0 0 40 40" fill="none" xmlns="http://www.w3.org/2000/svg">
<path d="M28.4411 24.2217C27.0803 23.0715 26.3 21.3903 26.3 19.6092V17.1C26.3 13.9329 23.9474 11.3112 20.9 10.872V9.9C20.9 9.4023 20.4968 9 20 9C19.5032 9 19.1 9.4023 19.1 9.9V10.872C16.0517 11.3112 13.7 13.9329 13.7 17.1V19.6092C13.7 21.3903 12.9197 23.0715 11.5508 24.2289C11.2007 24.5286 11 24.9642 11 25.425C11 26.2935 11.7065 27 12.575 27H27.425C28.2935 27 29 26.2935 29 25.425C29 24.9642 28.7993 24.5286 28.4411 24.2217Z" fill="black"/>
<path d="M20 30.6C21.6299 30.6 22.9934 29.4381 23.3066 27.9H16.6934C17.0066 29.4381 18.3701 30.6 20 30.6Z" fill="black"/>
</svg>
