<svg width="25" height="24" viewBox="0 0 25 24" fill="none" xmlns="http://www.w3.org/2000/svg">
<path fill-rule="evenodd" clip-rule="evenodd" d="M19.2942 20.9764C18.8551 21.4503 18.2576 21.7114 17.6115 21.7114H7.33212C6.68604 21.7114 6.08852 21.4503 5.64946 20.9764C5.21045 20.5024 4.99586 19.8866 5.04519 19.2441L6.02789 6.86071C6.03786 6.73043 6.14803 6.62842 6.2787 6.62842H8.21925V8.21547C8.21925 8.57129 8.50774 8.85979 8.86357 8.85979C9.21939 8.85979 9.50789 8.5713 9.50789 8.21547V6.62842H15.4358V8.21547C15.4358 8.57129 15.7243 8.85979 16.0801 8.85979C16.4359 8.85979 16.7244 8.5713 16.7244 8.21547V6.62842H18.665C18.7956 6.62842 18.9058 6.73047 18.916 6.86243L19.8984 19.2424C19.9479 19.8866 19.7332 20.5023 19.2942 20.9764L19.2942 20.9764ZM9.50788 5.25256C9.50788 3.61824 10.8376 2.28862 12.4718 2.28862C14.1061 2.28862 15.4358 3.61829 15.4358 5.25256V5.33979H9.50788V5.25256ZM21.1831 19.1422L20.2007 6.76219C20.1394 5.9646 19.4649 5.3398 18.665 5.3398H16.7244V5.25257C16.7244 2.90768 14.8167 1 12.4718 1C10.1269 1 8.21926 2.90768 8.21926 5.25257V5.3398H6.2787C5.47875 5.3398 4.80418 5.96457 4.74317 6.76052L3.76039 19.1439C3.68434 20.1353 4.0283 21.1225 4.70403 21.852C5.37976 22.5815 6.33766 23 7.33208 23H17.6115C18.6059 23 19.5639 22.5816 20.2396 21.852C20.9154 21.1224 21.2593 20.1354 21.1832 19.1422L21.1831 19.1422Z" fill="#AEAEAE"/>
<path fill-rule="evenodd" clip-rule="evenodd" d="M15.3761 11.924C15.1244 11.6723 14.7162 11.6723 14.4645 11.924L11.5861 14.8018L10.4793 13.6952C10.2276 13.4435 9.81942 13.4435 9.56767 13.6952C9.31592 13.9469 9.31592 14.355 9.56767 14.6067L11.1303 16.169C11.2562 16.2948 11.4212 16.3578 11.5861 16.3578C11.751 16.3578 11.916 16.2949 12.0419 16.169L15.376 12.8355C15.6278 12.5837 15.6278 12.1757 15.3761 11.924L15.3761 11.924Z" fill="#AEAEAE"/>
</svg>
