<svg width="90" height="66" viewBox="0 0 90 66" fill="none" xmlns="http://www.w3.org/2000/svg">
<path d="M0.710546 17.8442H6.1222C6.49404 17.8442 6.84995 17.5175 6.83237 17.134C6.81478 16.7488 6.52 16.4238 6.1222 16.4238H0.710546C0.338715 16.4238 -0.017205 16.7504 0.000381659 17.134C0.0179683 17.5192 0.312754 17.8442 0.710546 17.8442Z" fill="#A80901"/>
<path d="M2.54962 9.53415C3.07806 9.83982 3.60733 10.1447 4.13577 10.4503C4.97741 10.9361 5.8199 11.4226 6.66154 11.9083L7.23771 12.2408C7.5593 12.4267 8.02995 12.3262 8.21 11.9862C8.38922 11.6471 8.29877 11.2124 7.95541 11.0139C7.42698 10.7083 6.8977 10.4034 6.36927 10.0978C5.52762 9.61203 4.68514 9.12547 3.84349 8.63974L3.26732 8.30727C2.94574 8.12135 2.47509 8.22185 2.29503 8.56186C2.11582 8.90103 2.20626 9.33567 2.54962 9.53415Z" fill="#A80901"/>
<path d="M8.30725 3.26741C8.61292 3.79585 8.91776 4.32512 9.22343 4.85356C9.70916 5.6952 10.1957 6.53769 10.6814 7.37933C10.792 7.57111 10.9034 7.76373 11.0139 7.9555C11.1998 8.27709 11.6646 8.41778 11.9862 8.21009C12.3111 8.00073 12.4401 7.58284 12.2408 7.2378C11.9351 6.70937 11.6303 6.18009 11.3246 5.65166C10.8389 4.81001 10.3523 3.96753 9.8666 3.12588C9.75606 2.9341 9.64467 2.74149 9.53413 2.54971C9.34821 2.22813 8.88342 2.08743 8.56184 2.29512C8.23691 2.50449 8.10794 2.92238 8.30725 3.26741Z" fill="#A80901"/>
<path d="M16.4238 0.710546V6.1222C16.4238 6.49403 16.7504 6.84995 17.134 6.83237C17.5192 6.81478 17.8442 6.52 17.8442 6.1222V0.710546C17.8442 0.338715 17.5175 -0.017205 17.134 0.000381659C16.7488 0.0179683 16.4238 0.312754 16.4238 0.710546Z" fill="#A80901"/>
<path d="M25.1871 58.2733H59.0438L71.2741 65.6488L74.3953 58.2733H77.0006C84.1793 58.2733 89.9997 52.4538 89.9997 45.2743V26.1367C89.9997 19.2553 84.6374 13.5664 77.7677 13.1603L23.7709 9.96955C15.7975 9.49806 9.28959 16.2614 10.0668 24.2105L12.2508 46.5397C12.9016 53.1966 18.4991 58.2733 25.1879 58.2733H25.1871Z" fill="#A80901"/>
<path d="M26.0605 38.8101L74.7822 38.8101C78.9203 38.8101 82.2749 35.4554 82.2749 31.3173C82.2749 27.1792 78.9203 23.8246 74.7822 23.8246L26.0605 23.8246C21.9224 23.8246 18.5678 27.1792 18.5678 31.3173C18.5678 35.4554 21.9224 38.8101 26.0605 38.8101Z" fill="white"/>
<g style="mix-blend-mode:multiply">
<path d="M21.1975 25.6167C24.7802 25.234 28.4851 25.033 32.2779 25.033C51.3502 25.033 68.2091 30.1114 78.3976 37.8813C80.709 36.605 82.275 34.1446 82.275 31.3173C82.275 29.2479 81.4367 27.3754 80.0809 26.0187C78.7251 24.6629 76.8517 23.8237 74.7823 23.8237H26.0606C24.2048 23.8237 22.5065 24.4987 21.1975 25.6167Z" fill="#F1F1F1"/>
</g>
<path d="M54.3716 30.639L55.7719 30.5544L54.7535 29.6207C54.3716 29.3234 54.3289 28.7296 54.6689 28.3904C54.9662 28.0085 55.56 27.9658 55.8992 28.3058L56.9602 29.1969L56.8756 27.8394C56.8329 27.3302 57.2148 26.9056 57.724 26.9056C58.1905 26.8629 58.615 27.2448 58.6578 27.7121L58.7423 29.1123L59.6334 28.094C59.9726 27.7121 60.5245 27.6694 60.9063 28.0094C61.2882 28.3067 61.3309 28.9004 60.9909 29.2823L60.0572 30.3007L61.4574 30.2161C61.9238 30.1734 62.3484 30.5553 62.3912 31.0644C62.4339 31.5309 62.052 31.9555 61.5428 31.9982L60.1853 32.0828L61.2036 32.9738C61.5855 33.313 61.6282 33.8649 61.2882 34.2468C60.949 34.6287 60.3972 34.6714 60.0153 34.3314L58.9969 33.4403L59.0815 34.7978C59.1242 35.307 58.7423 35.7316 58.2332 35.7316C57.724 35.7743 57.2994 35.3924 57.2994 34.8832L57.2148 33.5257L56.2811 34.5441C55.9838 34.9259 55.39 34.9687 55.0508 34.6287C54.6689 34.2895 54.6262 33.7376 54.9662 33.3557L55.8573 32.3374L54.4998 32.4219C53.9906 32.4647 53.566 32.0828 53.566 31.5736C53.5233 31.1071 53.9052 30.6825 54.3725 30.6398L54.3716 30.639Z" fill="black"/>
<path d="M66.9278 30.639L68.328 30.5544L67.3097 29.6207C66.9278 29.3234 66.8851 28.7296 67.2251 28.3904C67.5224 28.0085 68.1162 27.9658 68.4553 28.3058L69.5164 29.1969L69.4318 27.8394C69.3891 27.3302 69.771 26.9056 70.2801 26.9056C70.7466 26.8629 71.1712 27.2448 71.2139 27.7121L71.2985 29.1123L72.1896 28.094C72.5287 27.7121 73.0806 27.6694 73.4625 28.0094C73.8444 28.3067 73.8871 28.9004 73.5471 29.2823L72.6133 30.3007L74.0135 30.2161C74.48 30.1734 74.9046 30.5553 74.9473 31.0644C74.99 31.5309 74.6081 31.9555 74.099 31.9982L72.7414 32.0828L73.7598 32.9738C74.1417 33.313 74.1844 33.8649 73.8444 34.2468C73.5052 34.6287 72.9533 34.6714 72.5714 34.3314L71.5531 33.4403L71.6377 34.7978C71.6804 35.307 71.2985 35.7316 70.7893 35.7316C70.2801 35.7743 69.8556 35.3924 69.8556 34.8832L69.771 33.5257L68.8372 34.5441C68.5399 34.9259 67.9461 34.9687 67.607 34.6287C67.2251 34.2895 67.1824 33.7376 67.5224 33.3557L68.4134 32.3374L67.0559 32.4219C66.5468 32.4647 66.1222 32.0828 66.1222 31.5736C66.0795 31.1071 66.4613 30.6825 66.9286 30.6398L66.9278 30.639Z" fill="black"/>
<g style="mix-blend-mode:multiply">
<path d="M36.2599 35.7742H34.863C34.863 35.7742 34.863 35.7742 34.8639 35.7742H27.1032V31.6397C27.1032 29.7445 28.6449 28.2028 30.5401 28.2028C32.4352 28.2028 33.977 29.7445 33.977 31.6397V34.3865H34.2031V34.7919H33.977V35.4828H36.4618V34.7919H36.2356V34.3865H36.4618V31.6397C36.4618 28.3694 33.8104 25.718 30.5401 25.718C30.4312 25.718 30.324 25.7214 30.2168 25.7272C30.2043 25.7264 30.1909 25.7256 30.1783 25.7247C28.6876 25.8135 27.3452 26.455 26.3528 27.4474C25.2808 28.5185 24.6184 29.9983 24.6184 31.6338V35.7834C23.2818 35.8864 22.23 37.0028 22.23 38.3653V43.3222C22.23 46.8429 25.084 49.697 28.6047 49.697H31.0844C31.0844 49.697 31.0811 49.697 31.0786 49.697H32.4754C35.9961 49.697 38.8502 46.8429 38.8502 43.3222V38.3645C38.8502 36.9341 37.6903 35.7734 36.2591 35.7734L36.2599 35.7742Z" fill="#E4E4E4"/>
</g>
<path d="M49.836 31.572C49.836 32.0812 49.4114 32.4631 48.9022 32.4204L47.5447 32.3358L48.4357 33.3541C48.7749 33.736 48.733 34.2879 48.3512 34.6271C48.012 34.9662 47.4174 34.9244 47.1209 34.5425L46.1872 33.5241L46.1026 34.8817C46.1026 35.3908 45.678 35.7727 45.1688 35.73C44.6596 35.73 44.2778 35.3054 44.3205 34.7962L44.405 33.4387L43.3867 34.3298C43.0048 34.6689 42.4529 34.6271 42.1138 34.2452C41.7746 33.8633 41.8165 33.3114 42.1983 32.9722L43.2167 32.0812L41.8592 31.9966C41.35 31.9539 40.9681 31.5301 41.0108 31.0628C41.0535 30.5537 41.4773 30.1718 41.9446 30.2145L43.3448 30.2991L42.4111 29.2807C42.0719 28.8989 42.1138 28.3051 42.4956 28.0078C42.8775 27.6686 43.4294 27.7105 43.7686 28.0924L44.6596 29.1107L44.7442 27.7105C44.7869 27.244 45.2107 26.8622 45.678 26.904C46.1872 26.904 46.569 27.3286 46.5263 27.8378L46.4417 29.1953L47.5028 28.3043C47.842 27.9651 48.4366 28.007 48.733 28.3888C49.0722 28.728 49.0303 29.3226 48.6485 29.6191L47.6301 30.5528L49.0303 30.6374C49.4968 30.6801 49.8787 31.1039 49.8368 31.5712L49.836 31.572Z" fill="black"/>
<path d="M34.5256 33.5591H32.0166V34.4116H34.5256V33.5591Z" fill="#282828"/>
<path d="M31.7378 30.3911V33.7828H34.8054V30.3911C34.8054 26.3537 31.5326 23.0801 27.4944 23.0801C23.457 23.0801 20.1833 26.3529 20.1833 30.3911V35.549H23.251V30.3911C23.251 28.0512 25.1545 26.1477 27.4944 26.1477C29.8342 26.1477 31.7378 28.0512 31.7378 30.3911Z" fill="#31312F"/>
<path d="M31.7385 30.3827V31.7738H32.5198C33.2878 31.7738 33.9109 31.1507 33.9109 30.3827C33.9109 26.4953 30.8768 23.3171 27.0479 23.0876C25.2072 23.1974 23.5507 23.9888 22.3255 25.2148C21.0023 26.5371 20.1841 28.3645 20.1841 30.3827V34.0466H23.2517V30.3827C23.2517 28.1945 24.9174 26.3872 27.0487 26.1636C27.1961 26.1477 27.3452 26.1402 27.4959 26.1402C29.8358 26.1402 31.7393 28.0437 31.7393 30.3827H31.7385Z" fill="#282828"/>
<path opacity="0.25" d="M25.9098 24.3623C25.7088 24.4067 25.5087 24.4586 25.3127 24.5256C24.6042 24.7668 23.9359 25.1529 23.3598 25.6587C22.7844 26.1654 22.3021 26.7926 21.9562 27.4994C21.7066 28.0078 21.5291 28.558 21.4303 29.1258C21.3758 29.4381 21.5844 29.753 21.8992 29.7899C22.2225 29.8276 22.4997 29.583 22.5106 29.2673C22.5265 28.7858 22.6102 28.3025 22.766 27.8361C22.9771 27.1988 23.3204 26.595 23.7735 26.0724C24.2265 25.5507 24.7893 25.1118 25.4249 24.7953C25.5179 24.7492 25.6125 24.7065 25.7088 24.6663C25.8311 24.6152 25.9107 24.4946 25.9107 24.3623H25.9098Z" fill="#3243CD"/>
<path d="M20.4329 35.4946H34.5566C36.322 35.4946 37.7549 36.9275 37.7549 38.6929V44.813C37.7549 49.1569 34.2283 52.6835 29.8844 52.6835H25.1051C20.7612 52.6835 17.2346 49.1569 17.2346 44.813V38.6929C17.2346 36.9275 18.6675 35.4946 20.4329 35.4946Z" fill="#3243CD"/>
<g style="mix-blend-mode:multiply">
<path d="M37.7548 38.6936V44.8138C37.7548 49.1602 34.2308 52.6842 29.8843 52.6842H28.1592C32.5056 52.6842 36.0296 49.1602 36.0296 44.8138V38.6936C36.0296 36.9274 34.5976 35.4954 32.8314 35.4954H34.5565C36.3227 35.4954 37.7548 36.9274 37.7548 38.6936Z" fill="#E4E4E4"/>
</g>
<g style="mix-blend-mode:multiply">
<path d="M18.7279 46.6294C19.0846 46.6294 19.3576 46.3196 19.32 45.9645C19.2932 45.7082 19.2789 45.4486 19.2789 45.1857V38.6577C19.2789 37.5313 20.0025 36.5766 21.0083 36.2249H20.5426C19.1181 36.2249 17.9641 37.3797 17.9641 38.8034V44.5408C17.9641 45.1011 18.0269 45.6463 18.1458 46.1705C18.207 46.4402 18.4507 46.6294 18.727 46.6294H18.7279Z" fill="#F1F1F1"/>
</g>
<path d="M29.7914 42.5358C29.9981 41.2677 29.1377 40.0721 27.8696 39.8653C26.6014 39.6586 25.4058 40.519 25.1991 41.7871C24.9923 43.0552 25.8527 44.2509 27.1208 44.4576C28.389 44.6644 29.5846 43.804 29.7914 42.5358Z" fill="white"/>
<path d="M29.2195 48.2599L28.7405 43.478H26.2482L25.77 48.2599H29.2195Z" fill="white"/>
<path d="M34.8054 34.2827H31.7378V35.1352H34.8054V34.2827Z" fill="#31312F"/>
</svg>
