<svg width="22" height="22" viewBox="0 0 22 22" fill="none" xmlns="http://www.w3.org/2000/svg">
<path d="M11 4C9.067 4 7.5 5.567 7.5 7.5C7.5 9.433 9.067 11 11 11C12.933 11 14.5 9.433 14.5 7.5C14.5 5.567 12.933 4 11 4ZM5.75 7.5C5.75 4.60051 8.1005 2.25 11 2.25C13.8995 2.25 16.25 4.60051 16.25 7.5C16.25 10.3995 13.8995 12.75 11 12.75C8.1005 12.75 5.75 10.3995 5.75 7.5ZM7.5 16.25C6.05025 16.25 4.875 17.4253 4.875 18.875C4.875 19.3582 4.48325 19.75 4 19.75C3.51675 19.75 3.125 19.3582 3.125 18.875C3.125 16.4588 5.08376 14.5 7.5 14.5H14.5C16.9162 14.5 18.875 16.4588 18.875 18.875C18.875 19.3583 18.4832 19.75 18 19.75C17.5168 19.75 17.125 19.3583 17.125 18.875C17.125 17.4253 15.9497 16.25 14.5 16.25H7.5Z" fill="#595959"/>
</svg>
