<svg width="22" height="22" viewBox="0 0 22 22" fill="none" xmlns="http://www.w3.org/2000/svg">
<g clip-path="url(#clip0_355_10797)">
<path d="M15.8126 0H14.6667H7.33341H6.18758C4.797 0 3.66675 1.13025 3.66675 2.52083V19.4792C3.66675 20.8698 4.797 22 6.18758 22H15.8126C17.2032 22 18.3334 20.8698 18.3334 19.4792V2.52083C18.3334 1.13025 17.2032 0 15.8126 0ZM16.5001 19.25C16.5001 19.756 16.0894 20.1667 15.5834 20.1667H6.41675C5.91075 20.1667 5.50008 19.756 5.50008 19.25V2.75C5.50008 2.244 5.91075 1.83333 6.41675 1.83333H6.87508C7.38108 1.83333 7.79175 2.244 7.79175 2.75C7.79175 3.256 8.20241 3.66667 8.70842 3.66667H13.2917C13.7977 3.66667 14.2084 3.256 14.2084 2.75C14.2084 2.244 14.6191 1.83333 15.1251 1.83333H15.5834C16.0894 1.83333 16.5001 2.244 16.5001 2.75V19.25Z" fill="#595959"/>
</g>
<defs>
<clipPath id="clip0_355_10797">
<rect width="22" height="22" fill="white"/>
</clipPath>
</defs>
</svg>
