<svg width="19" height="18" viewBox="0 0 19 18" fill="none" xmlns="http://www.w3.org/2000/svg">
<path d="M18.734 6.80118C18.6104 6.42084 18.273 6.15157 17.8755 6.1156L12.4533 5.62334L10.3105 0.606473C10.1523 0.237889 9.79228 0 9.39159 0C8.99091 0 8.63078 0.237889 8.47357 0.606473L6.33071 5.62334L0.907714 6.1156C0.510182 6.15229 0.173555 6.42156 0.0491655 6.80118C-0.074508 7.18151 0.0397072 7.59868 0.340364 7.86236L4.43907 11.4563L3.23057 16.779C3.14215 17.1704 3.29405 17.5751 3.61878 17.8098C3.79333 17.9367 3.9984 18 4.20419 18C4.38103 18 4.55801 17.953 4.71608 17.8584L9.39159 15.0628L14.0662 17.8584C14.4092 18.0633 14.8404 18.0446 15.1644 17.8098C15.4891 17.5751 15.641 17.1704 15.5526 16.779L14.3441 11.4563L18.4428 7.86236C18.7433 7.59868 18.8577 7.18237 18.734 6.80118Z" fill="#C00319"/>
</svg>
