<svg width="40" height="40" viewBox="0 0 40 40" fill="none" xmlns="http://www.w3.org/2000/svg">
<rect width="40" height="40" rx="4" fill="#FCF5F5"/>
<path d="M25.25 14H22.5V13.5C22.5 12.6729 21.8271 12 21 12H19C18.1729 12 17.5 12.6729 17.5 13.5V14H14.75C14.0608 14 13.5 14.5608 13.5 15.25V17C13.5 17.2761 13.7239 17.5 14 17.5H14.2733L14.7052 26.5713C14.7434 27.3725 15.4015 28 16.2035 28H23.7965C24.5985 28 25.2567 27.3725 25.2948 26.5713L25.7268 17.5H26C26.2761 17.5 26.5 17.2761 26.5 17V15.25C26.5 14.5608 25.9392 14 25.25 14ZM18.5 13.5C18.5 13.2243 18.7243 13 19 13H21C21.2757 13 21.5 13.2243 21.5 13.5V14H18.5V13.5ZM14.5 15.25C14.5 15.1122 14.6122 15 14.75 15H25.25C25.3878 15 25.5 15.1122 25.5 15.25V16.5C25.3459 16.5 15.1385 16.5 14.5 16.5V15.25ZM24.2959 26.5238C24.2832 26.7908 24.0638 27 23.7965 27H16.2035C15.9362 27 15.7168 26.7908 15.7041 26.5238L15.2744 17.5H24.7256L24.2959 26.5238Z" fill="#BF0000"/>
<path d="M20 26C20.2761 26 20.5 25.7761 20.5 25.5V19C20.5 18.7239 20.2761 18.5 20 18.5C19.7239 18.5 19.5 18.7239 19.5 19V25.5C19.5 25.7761 19.7238 26 20 26Z" fill="#BF0000"/>
<path d="M22.5 26C22.7761 26 23 25.7761 23 25.5V19C23 18.7239 22.7761 18.5 22.5 18.5C22.2239 18.5 22 18.7239 22 19V25.5C22 25.7761 22.2238 26 22.5 26Z" fill="#BF0000"/>
<path d="M17.5 26C17.7761 26 18 25.7761 18 25.5V19C18 18.7239 17.7761 18.5 17.5 18.5C17.2239 18.5 17 18.7239 17 19V25.5C17 25.7761 17.2238 26 17.5 26Z" fill="#BF0000"/>
</svg>
