<svg width="25" height="25" viewBox="0 0 25 25" fill="none" xmlns="http://www.w3.org/2000/svg">
<path d="M24.1737 6.89554C24.0862 6.89554 23.9966 6.90809 23.907 6.9327L22.8939 7.21179L21.8418 4.64907C21.5437 3.92305 20.6628 3.3324 19.8779 3.3324H10.0319C9.24714 3.3324 8.36614 3.92305 8.06803 4.64907L7.0175 7.2083L6.01707 6.9327C5.92753 6.90799 5.83789 6.89554 5.75043 6.89554C5.27164 6.89554 4.92412 7.26129 4.92412 7.76539V8.36262C4.92412 8.38871 4.92621 8.41421 4.928 8.43981C4.69652 8.61233 4.4758 8.80267 4.26792 9.01054C3.14747 10.131 2.53042 11.6206 2.53042 13.2051C2.53042 14.4896 2.93611 15.7118 3.68663 16.7254L0.260042 20.1522C-0.0866807 20.4988 -0.0866807 21.061 0.260042 21.4077C0.433354 21.5811 0.660551 21.6678 0.887749 21.6678C1.11495 21.6678 1.34214 21.5811 1.51546 21.4077L4.94224 17.9809C5.95592 18.7315 7.17806 19.1372 8.46256 19.1372C10.0471 19.1372 11.5367 18.5202 12.6571 17.3997C13.0186 17.0383 13.3268 16.6379 13.5796 16.2089H20.9491V17.4803C20.9491 18.0686 21.4277 18.5472 22.0159 18.5472H23.4093C23.9976 18.5472 24.4762 18.0686 24.4762 17.4803V12.3888C24.4762 11.6597 24.2509 10.5177 23.974 9.84314L23.8041 9.42948H23.9328C24.5211 9.42948 24.9997 8.95088 24.9997 8.36252V7.76529C25 7.26129 24.6525 6.89554 24.1737 6.89554ZM9.37394 4.97358C9.55223 4.5393 10.0821 4.18401 10.5517 4.18401H19.3585C19.8279 4.18401 20.3579 4.5393 20.5362 4.97358L22.1276 8.85008C22.3059 9.28436 22.0676 9.63964 21.5982 9.63964H13.2038C13.0376 9.41952 12.8557 9.20896 12.6573 9.01054C11.5368 7.89009 10.0473 7.27304 8.46276 7.27304C8.4517 7.27304 8.44085 7.27374 8.42979 7.27384L9.37394 4.97358ZM8.46256 17.3616C7.35237 17.3616 6.30852 16.9292 5.52344 16.1441C4.73835 15.3591 4.30607 14.3154 4.30607 13.2051C4.30607 12.0948 4.73845 11.051 5.52344 10.266C6.30852 9.48098 7.35227 9.04859 8.46256 9.04859C9.57285 9.04859 10.6166 9.48098 11.4017 10.266C12.1868 11.051 12.6191 12.0948 12.6191 13.205C12.6191 14.3153 12.1868 15.359 11.4017 16.1441C10.6166 16.9292 9.57285 17.3616 8.46256 17.3616ZM22.4229 13.7533C22.4229 13.9881 22.2309 14.1801 21.9961 14.1801H18.973C18.7383 14.1801 18.5462 13.9881 18.5462 13.7533V12.3025C18.5462 12.0678 18.7382 11.8757 18.973 11.8757H21.9961C22.2309 11.8757 22.4229 12.0677 22.4229 12.3025V13.7533Z" fill="black"/>
</svg>
