<svg width="17" height="16" viewBox="0 0 17 16" fill="none" xmlns="http://www.w3.org/2000/svg">
<path d="M16.2483 15.1295L12.1174 11.0646C13.1992 9.8893 13.8638 8.33495 13.8638 6.62455C13.8633 2.96568 10.8496 0 7.13172 0C3.41385 0 0.400146 2.96568 0.400146 6.62455C0.400146 10.2834 3.41385 13.2491 7.13172 13.2491C8.7381 13.2491 10.2114 12.6935 11.3687 11.7697L15.5157 15.8507C15.7178 16.0498 16.0458 16.0498 16.2479 15.8507C16.4504 15.6517 16.4504 15.3286 16.2483 15.1295ZM7.13172 12.2299C3.986 12.2299 1.43589 9.72029 1.43589 6.62455C1.43589 3.52881 3.986 1.01923 7.13172 1.01923C10.2775 1.01923 12.8276 3.52881 12.8276 6.62455C12.8276 9.72029 10.2775 12.2299 7.13172 12.2299Z" fill="#4232C6"/>
</svg>
