<svg width="24" height="24" viewBox="0 0 24 24" fill="none" xmlns="http://www.w3.org/2000/svg">
<path d="M24 0C22.9544 0 22.8439 17.6465 22.837 22.8702C22.8368 23.0601 22.7934 23.247 22.7108 23.4134C22.6281 23.5799 22.509 23.7207 22.3642 23.8228C22.2195 23.9249 22.0539 23.985 21.8827 23.9975C21.7114 24.0101 21.5401 23.9747 21.3845 23.8947L12.9708 19.5717C12.6667 19.4155 12.3354 19.3345 12.0001 19.3345C11.6647 19.3345 11.3335 19.4155 11.0293 19.5717L2.61566 23.8947C2.46003 23.9747 2.2887 24.0101 2.11747 23.9975C1.94623 23.985 1.78062 23.9249 1.63589 23.8228C1.49117 23.7207 1.372 23.5799 1.28937 23.4134C1.20674 23.247 1.16332 23.0601 1.16311 22.8702C1.15623 17.6465 1.04517 0 0 0H24Z" fill="#BF0000"/>
<path d="M17.8899 9.37584L17.89 9.37585C18.0351 9.38898 18.1585 9.48718 18.204 9.6267C18.2495 9.76706 18.2074 9.91942 18.0974 10.016C18.0974 10.016 18.0974 10.0161 18.0974 10.0161L15.365 12.412L15.2306 12.5298L15.2702 12.704L16.0758 16.2521C16.0758 16.2522 16.0758 16.2523 16.0759 16.2524C16.1083 16.3967 16.0523 16.5445 15.9339 16.6301L15.9336 16.6303C15.8148 16.7163 15.6572 16.7232 15.5315 16.6481C15.5314 16.6481 15.5314 16.6481 15.5314 16.6481L12.415 14.7844L12.2611 14.6923L12.1071 14.7844L8.9901 16.6481L8.99001 16.6482C8.93204 16.6829 8.86743 16.7 8.80279 16.7C8.72734 16.7 8.65268 16.6769 8.58887 16.6305L8.58827 16.6301C8.46976 16.5444 8.41375 16.3967 8.4463 16.2523C8.44631 16.2522 8.44632 16.2522 8.44634 16.2521L9.25193 12.704L9.29149 12.5298L9.15717 12.412L6.42472 10.016C6.31474 9.91957 6.27269 9.76689 6.31797 9.62722C6.36386 9.48756 6.48726 9.38929 6.63253 9.37581C6.63259 9.37581 6.63265 9.3758 6.63271 9.3758L10.2476 9.04767L10.426 9.03147L10.4964 8.86674L11.9249 5.52216L11.925 5.52201C11.9826 5.38686 12.1141 5.3 12.2611 5.3C12.4077 5.3 12.5395 5.38667 12.5979 5.52243C12.5979 5.5225 12.5979 5.52257 12.598 5.52265L14.0263 8.86674L14.0967 9.03147L14.2751 9.04767L17.8899 9.37584Z" fill="white" stroke="white" stroke-width="0.6"/>
</svg>
