<svg width="375" height="812" viewBox="0 0 375 812" fill="none" xmlns="http://www.w3.org/2000/svg">
<g clip-path="url(#clip0_198_22022)">
<g opacity="0.2">
<path d="M40.9392 841.037C42.8306 842.617 45.2605 843.4 47.7173 843.223C50.1741 843.045 52.4663 841.92 54.1111 840.084C73.9384 820.008 99.1844 806.161 126.755 800.24C155.133 794.088 184.778 798.457 210.182 812.537C227.388 822.653 243.167 835.025 257.102 849.324C265.729 857.715 277.921 843.545 269.322 835.181C242.992 809.569 212.248 786.554 175.139 780.553C143.627 775.985 111.479 781.428 83.2185 796.115C67.1623 804.238 52.5558 814.961 39.988 827.849C38.3901 829.734 37.5947 832.171 37.7726 834.637C37.9504 837.103 39.0874 839.401 40.9392 841.037Z" fill="#FFE383"/>
<path d="M355.274 817.844C351.463 824.602 347.871 831.484 344.602 838.52C341.581 845.021 338.214 851.859 338.992 859.239C340.629 874.77 357.839 878.36 370.632 877.359C388.764 875.767 406.496 871.119 423.081 863.612C431.601 859.826 428.02 848.031 420.618 847.129C411.613 836.384 401.828 826.319 391.344 817.015C386.194 812.439 379.743 805.067 372.541 804.153C363.471 803.003 359.048 811.154 355.274 817.844ZM378.884 828.858C382.516 832.007 386.051 835.263 389.489 838.623C394.194 843.25 398.715 848.049 403.053 853.018C397.429 854.959 391.687 856.539 385.862 857.749C377.781 859.41 367.68 862.047 359.485 859.724C357.669 859.209 356.105 858.405 355.985 857.056C355.641 853.187 359.052 848.107 360.614 844.745C362.805 840.026 365.121 835.359 367.601 830.787C368.773 828.625 370.054 825.476 371.686 822.958C372.101 823.235 372.509 823.5 372.819 823.753C374.867 825.424 376.888 827.126 378.884 828.858Z" fill="#BAD6EA"/>
<path d="M40.9392 841.037C42.8306 842.617 45.2605 843.4 47.7173 843.223C50.1741 843.045 52.4663 841.92 54.1111 840.084C73.9384 820.008 99.1844 806.161 126.755 800.24C155.133 794.088 184.778 798.457 210.182 812.537C227.388 822.653 243.167 835.025 257.102 849.324C265.729 857.715 277.921 843.545 269.322 835.181C242.992 809.569 212.248 786.554 175.139 780.553C143.627 775.985 111.479 781.428 83.2185 796.115C67.1623 804.238 52.5558 814.961 39.988 827.849C38.3901 829.734 37.5947 832.171 37.7726 834.637C37.9504 837.103 39.0874 839.401 40.9392 841.037Z" fill="#FFE383"/>
<path d="M390.116 648.327C398.178 646.289 406.124 643.805 413.943 640.971C430.09 635.007 445.818 627.964 461.023 619.891C477.856 611.081 494.199 601.377 510.524 591.662C520.848 585.519 511.464 569.345 501.099 575.515C474.778 591.179 448.27 607.158 419.841 618.752C405.449 624.857 390.473 629.481 375.146 632.551C371.803 633.328 368.339 633.435 364.955 632.864C361.57 632.293 358.333 631.056 355.429 629.224C349.458 625.142 343.874 620.519 338.748 615.413C325.947 603.588 314.302 590.567 303.972 576.527C302.673 574.44 300.625 572.93 298.25 572.306C295.874 571.682 293.35 571.992 291.196 573.172C289.071 574.437 287.528 576.487 286.901 578.881C286.274 581.275 286.613 583.82 287.845 585.966C297.872 599.767 309.053 612.69 321.268 624.593C332.997 635.928 346.309 649.548 363.259 651.589C372.335 652.149 381.437 651.044 390.116 648.327Z" fill="#FFCC18"/>
<path d="M373.596 744.407C373.596 732.374 354.919 732.354 354.919 744.407C354.919 756.44 373.596 756.46 373.596 744.407Z" fill="#FFCC18"/>
<path d="M358.35 213.396C373.475 202.081 381.333 183.418 384.241 165.233C386.262 152.366 385.752 139.229 382.74 126.558C387.699 125.298 392.726 124.326 397.796 123.648C418.46 120.927 439.788 125.309 454.863 140.447C456.811 141.97 459.281 142.664 461.737 142.377C464.192 142.091 466.436 140.847 467.983 138.915C469.462 136.948 470.129 134.486 469.844 132.04C469.559 129.594 468.345 127.352 466.453 125.778C442.403 101.63 408.202 100.846 377.031 109.126C376.497 107.867 375.939 106.618 375.359 105.379C366.856 87.2999 355.862 70.9055 353.964 50.5082C352.253 30.4613 358.076 10.4968 370.292 -5.4777C382.508 -21.4522 400.239 -32.2867 420.013 -35.8606C431.814 -37.9209 429.505 -56.4855 417.617 -54.4096C404.368 -52.2355 391.702 -47.3759 380.395 -40.1285C369.087 -32.8812 359.376 -23.3986 351.857 -12.2617C344.338 -1.12475 339.168 11.432 336.665 24.6395C334.162 37.8469 334.379 51.4269 337.301 64.5477C341.486 82.8216 351.741 98.0343 359.203 114.906C355.588 116.289 352.056 117.766 348.633 119.311C330.169 127.648 312.256 139.308 302.885 157.927C298.755 166.4 297.221 175.908 298.474 185.253C299.727 194.598 303.712 203.363 309.928 210.446C323.053 224.415 343.386 224.588 358.35 213.396ZM316.855 181.404C315.223 164.802 328.553 152.201 341.424 144.097C348.882 139.436 356.756 135.481 364.946 132.282C367.572 144.594 367.371 157.341 364.361 169.564C361.24 182.239 353.925 196.975 340.963 201.868C327.468 206.962 318.079 193.852 316.855 181.404Z" fill="#FFCC18"/>
<path d="M427.405 538.992C427.646 538.421 427.847 537.833 428.003 537.233C432.328 530.688 434.628 523.011 434.617 515.164C434.606 507.316 432.283 499.646 427.94 493.114C423.236 485.969 416.31 480.579 408.234 477.779C400.159 474.979 391.386 474.925 383.277 477.627C374.843 480.156 367.363 485.167 361.809 492.009C356.256 498.85 352.885 507.205 352.136 515.99C351.463 525.04 353.672 534.07 358.445 541.784C363.219 549.499 370.311 555.5 378.704 558.925C396.586 565.564 419.797 556.894 427.405 538.992ZM388.532 543.786C377.847 542.273 370.425 532.129 369.355 521.745C368.811 516.479 369.903 511.173 372.481 506.551C375.059 501.929 378.998 498.216 383.761 495.917C388.007 493.407 392.956 492.356 397.854 492.924C402.752 493.491 407.331 495.646 410.892 499.061C417.856 506.32 420.269 519.567 414.233 527.329C413.424 528.361 412.79 529.521 412.357 530.76C410.296 535.194 406.871 538.851 402.584 541.195C398.297 543.539 393.373 544.447 388.533 543.787L388.532 543.786Z" fill="#FAD4CC"/>
<path d="M283.492 15.2569C294.921 2.5232 292.206 -17.178 280.377 -28.8204C274.202 -34.4918 266.402 -38.0759 258.081 -39.0658C249.76 -40.0556 241.339 -38.4011 234.009 -34.3363C226.678 -30.2714 220.809 -24.0019 217.232 -16.4145C213.655 -8.82699 212.551 -0.305523 214.075 7.94482C215.7 15.524 219.675 22.3951 225.433 27.5766C231.191 32.7581 238.438 35.9849 246.137 36.7959C253.836 37.6069 261.594 35.9606 268.303 32.0924C275.012 28.2241 280.328 22.3317 283.492 15.2569ZM246.122 19.4185C243.49 18.7925 241.01 17.6467 238.826 16.0481C236.642 14.4495 234.799 12.4303 233.405 10.1091C232.011 7.78788 231.094 5.21127 230.708 2.53042C230.321 -0.150429 230.473 -2.88155 231.155 -5.50276C233.021 -11.4677 237.144 -16.4647 242.642 -19.4247C248.14 -22.3847 254.577 -23.0727 260.576 -21.3414C267.897 -18.9417 274.924 -10.3661 273.832 -2.56433C272.776 -2.06798 271.847 -1.33758 271.116 -0.428467C270.384 0.480644 269.868 1.54464 269.607 2.68289C267.513 13.1902 257.153 21.8545 246.122 19.4185Z" fill="#EF7C9B"/>
<path d="M239.869 154.883C246.077 150.239 252.136 145.391 257.962 140.274C263.344 135.545 269.179 130.647 271.44 123.578C276.196 108.705 261.894 98.4718 249.784 94.2204C232.551 88.3564 214.452 85.4496 196.252 85.6225C186.931 85.6463 185.457 97.8863 191.868 101.701C195.781 115.169 200.681 128.331 206.528 141.077C209.398 147.344 212.332 156.695 218.555 160.439C226.391 165.154 233.721 159.481 239.869 154.883ZM222.699 135.271C220.644 130.923 218.706 126.522 216.927 122.053C214.486 115.919 212.281 109.703 210.313 103.405C216.241 103.9 222.131 104.772 227.949 106.017C236.013 107.759 246.318 109.425 252.881 114.86C254.335 116.065 255.444 117.432 255.009 118.714C253.765 122.394 248.6 125.666 245.815 128.112C241.911 131.544 237.911 134.881 233.801 138.063C231.857 139.568 229.417 141.933 226.909 143.578C226.64 143.157 226.375 142.75 226.193 142.392C224.993 140.036 223.828 137.662 222.699 135.271Z" fill="#F5A77B"/>
<path d="M351.676 289.727C385.137 276.051 419.072 263.633 453.48 252.473C469.207 246.845 485.257 242.17 501.545 238.472C512.41 236.37 525.886 235.208 534.879 242.996C541.741 248.937 544.204 258.659 546.724 267.005C549.82 277.262 552.914 287.519 556.007 297.778C556.52 299.981 557.856 301.904 559.742 303.151C561.628 304.398 563.919 304.873 566.144 304.48C568.367 304.006 570.314 302.676 571.567 300.777C572.819 298.878 573.276 296.562 572.838 294.329L564.044 265.176C561.803 255.807 558.2 246.819 553.35 238.499C544.033 224.464 528.26 219.004 511.936 219.921C495.227 220.86 479.271 226.422 463.417 231.372C444.315 237.336 425.339 243.685 406.489 250.418C385.485 257.906 364.663 265.875 344.02 274.325C341.996 275.357 340.457 277.144 339.734 279.301C339.012 281.458 339.164 283.813 340.157 285.859C341.206 287.869 342.991 289.395 345.139 290.116C347.286 290.837 349.629 290.698 351.676 289.727Z" fill="#CEA1CA"/>
<path d="M76.2908 25.2311C79.7729 14.699 63.1902 10.1837 59.727 20.6589C54.3165 37.023 35.4159 45.6319 19.0982 43.3842C-0.350204 40.704 -15.8882 25.7929 -24.8788 9.13277C-35.748 -11.0082 -37.5519 -33.5652 -41.0412 -55.7409C-44.3815 -76.9702 -52.4924 -96.8179 -71.3746 -108.569C-80.5081 -114.249 -90.9332 -117.511 -101.671 -118.051C-112.409 -118.59 -123.108 -116.389 -132.764 -111.654C-142.644 -106.686 -133.957 -91.844 -124.093 -96.802C-116.458 -100.308 -108.013 -101.664 -99.6656 -100.724C-91.3186 -99.7842 -83.3853 -96.584 -76.7187 -91.4676C-59.4471 -78.3685 -58.0971 -54.8183 -55.389 -35.0457C-52.2576 -12.1792 -46.1738 11.1241 -31.993 29.7868C-18.8632 47.066 0.769135 60.0243 22.9105 60.888C46.0476 61.791 68.9365 47.4756 76.2908 25.2311Z" fill="#A9D7D2"/>
<path d="M-12.3031 744.961C19.7028 738.349 50.8846 728.229 80.679 714.784C82.6337 713.622 84.0528 711.736 84.6295 709.534C85.2061 707.332 84.8939 704.991 83.7603 703.018C82.5732 701.09 80.69 699.694 78.5018 699.119C76.3137 698.545 73.9886 698.836 72.0093 699.933C45.9695 711.55 18.8291 720.517 -9.00243 726.697C-14.8174 727.995 -21.817 730.469 -27.8563 729.607C-32.7653 728.906 -34.4992 723.477 -36.402 719.55C-42.7078 706.538 -48.5138 693.302 -53.8198 679.841C-54.4828 677.679 -55.9463 675.853 -57.9105 674.736C-59.8748 673.619 -62.1911 673.297 -64.3851 673.835C-66.5729 674.455 -68.429 675.912 -69.5516 677.892C-70.6742 679.872 -70.9732 682.215 -70.3837 684.414C-64.3323 699.737 -57.8101 714.918 -50.5236 729.697C-49.1386 733.184 -47.0809 736.363 -44.4681 739.054C-41.8553 741.745 -38.7386 743.893 -35.2962 745.377C-27.8702 748.094 -19.7947 746.487 -12.3031 744.961Z" fill="#B5B8DC"/>
<path d="M-10.9461 623.697C-7.23072 624.17 -3.47537 624.244 0.255644 623.916C4.63423 623.828 9.01093 623.675 13.3857 623.459C32.4183 622.503 51.3719 620.349 70.1343 617.01C71.0894 616.851 72.0007 616.494 72.8098 615.961C73.6189 615.428 74.3078 614.732 74.8324 613.917C75.3569 613.102 75.7056 612.187 75.8559 611.229C76.0063 610.271 75.955 609.292 75.7053 608.355C76.543 606.853 76.8251 605.104 76.5022 603.414C76.1793 601.724 75.272 600.203 73.9398 599.116C61.3806 586.852 48.6357 574.782 35.705 562.908C29.1546 556.897 22.557 550.938 15.9121 545.032C12.6634 542.146 8.81941 539.354 4.2576 541.164C-0.370943 543.001 -1.52573 547.446 -2.84489 551.76L-18.4779 602.883C-20.229 606.787 -20.9098 611.087 -20.4505 615.341C-19.8672 617.517 -18.6533 619.473 -16.9619 620.96C-15.2705 622.447 -13.1772 623.399 -10.9461 623.697ZM-4.6025 605.448C-2.75138 599.394 -0.900148 593.34 0.951218 587.286C2.80258 581.232 4.65384 575.178 6.50495 569.124L9.38454 559.706C9.50556 559.311 9.62696 558.85 9.75137 558.354C10.6617 559.166 11.5718 559.979 12.4817 560.792C14.8586 562.922 17.2293 565.059 19.5939 567.202C24.8301 571.948 30.0361 576.727 35.2119 581.539C43.3634 589.117 51.4369 596.778 59.4325 604.522C38.8238 607.818 18.0078 609.647 -2.85921 609.995C-3.90353 610.011 -4.95803 610.054 -6.00649 610.039C-5.53824 608.509 -5.07012 606.978 -4.60212 605.448H-4.6025Z" fill="#EF7C9B"/>
<path d="M12.3216 142.64C12.3216 131.573 -4.85571 131.554 -4.85571 142.64C-4.85571 153.707 12.3216 153.727 12.3216 142.64Z" fill="#F5A77B"/>
<path d="M189.849 198.865C175.752 193.158 160.747 190.029 145.546 189.627C145.431 189.123 145.335 188.621 145.205 188.117C143.364 180.109 139.422 172.739 133.786 166.765C128.151 160.792 121.025 156.433 113.145 154.138C97.3683 149.908 75.3208 154.716 71.3471 173.096C68.3408 187.001 78.9627 201.134 91.4605 206.103C103.62 210.935 116.551 208.745 129.27 207.419C129.094 208.693 128.866 209.948 128.581 211.179C125.264 225.496 114.869 237.15 103.261 245.557C90.5215 255.361 74.682 260.243 58.6419 259.309C51.1982 258.761 44.0322 256.249 37.8734 252.027C31.7146 247.806 26.7828 242.025 23.58 235.275C19.1988 225.098 3.39384 231.846 7.77205 242.015C11.2449 249.743 16.3683 256.613 22.7809 262.142C29.1936 267.672 36.7395 271.725 44.8867 274.018C61.857 278.561 79.8826 276.982 95.8075 269.558C120.787 258.46 144.167 234.553 146.707 206.776C163.245 207.25 179.424 211.718 193.866 219.8C201.477 224.304 209.077 230.625 211.683 239.438C213.523 245.661 213.118 253.813 208.149 258.537C206.416 259.99 205.306 262.054 205.049 264.303C204.793 266.551 205.408 268.813 206.769 270.62C208.196 272.391 210.262 273.529 212.52 273.787C214.778 274.046 217.047 273.404 218.837 272.001C224.21 266.683 227.835 259.849 229.228 252.414C230.621 244.978 229.715 237.294 226.633 230.388C220.161 214.826 204.866 204.945 189.849 198.865ZM100.875 191.062C98.6456 190.639 96.5282 189.758 94.6564 188.475C92.7846 187.191 91.1992 185.532 90.0004 183.604C89.1019 182.123 88.4597 180.502 88.101 178.807C87.9238 178.134 87.8956 177.431 88.0183 176.746C88.1411 176.062 88.4119 175.412 88.8117 174.843C91.9167 170.411 98.727 169.286 103.765 169.765C109.744 170.364 115.378 172.855 119.847 176.877C123.796 180.498 126.656 185.153 128.104 190.315C125.908 190.514 123.711 190.737 121.512 190.985C114.685 192.16 107.71 192.186 100.875 191.062Z" fill="#BAD6EA"/>
<path d="M188.098 554.705C180.04 565.512 172.23 576.98 169.117 590.299C165.384 606.261 172.04 620.285 182.057 632.39C187.545 638.564 192.352 645.312 196.395 652.517C187.74 651.724 179.017 652.159 170.484 653.809C154.141 657.272 140.08 669.664 141.998 687.574C142.785 694.575 145.596 701.194 150.086 706.618C154.575 712.043 160.548 716.038 167.273 718.113C182.454 722.45 198.711 714.883 208.336 703.072C215.083 694.608 218.709 684.075 218.605 673.247C230.001 675.515 241.177 678.781 252.003 683.007C267.172 688.947 282.79 697.445 291.238 712.006C297.318 722.486 299.342 737.347 292.195 747.824C290.816 749.617 290.177 751.872 290.41 754.124C290.643 756.376 291.73 758.452 293.447 759.924C295.223 761.345 297.485 762.01 299.746 761.775C302.007 761.541 304.085 760.426 305.532 758.671C309.94 751.971 312.683 744.313 313.531 736.336C314.379 728.358 313.308 720.293 310.407 712.815C304.397 696.097 291.046 683.886 275.948 675.272C259.76 666.576 242.352 660.379 224.315 656.891C221.6 656.305 218.818 655.739 215.998 655.208C213.427 646.818 209.354 638.966 203.978 632.035C197.78 623.929 188.92 616.367 186.032 606.256C181.815 591.5 193.178 576.629 201.435 565.553C208.021 556.715 194.737 545.798 188.098 554.705ZM174.116 702.032C170.089 701.502 166.41 699.47 163.815 696.342C157.92 689.202 156.511 679.861 164.784 674.124C170.701 670.783 177.449 669.204 184.232 669.574C190 669.502 195.765 669.829 201.487 670.553C201.95 675.901 200.987 681.275 198.697 686.129C196.407 690.982 192.873 695.14 188.453 698.179C184.279 701.118 179.199 702.483 174.116 702.031V702.032Z" fill="#A9D7D2"/>
<path d="M135.698 83.1488C147.414 69.3171 153.21 51.4169 151.827 33.3331C150.566 16.6228 141.969 2.21941 134.143 -12.1315C126.38 -26.3666 120.377 -40.4793 123.82 -56.9665C127.724 -72.9302 136.591 -87.2396 149.142 -97.8306C161.767 -108.771 177.848 -116.346 194.854 -114.627C205.821 -113.519 208.315 -130.539 197.289 -131.652C161.478 -135.272 129.015 -110.131 113.659 -79.2102C109.278 -70.802 106.652 -61.5887 105.943 -52.1316C105.233 -42.6746 106.455 -33.1719 109.532 -24.2028C115.049 -8.54417 125.429 4.81697 131.317 20.3136C134.667 29.011 135.592 38.4567 133.994 47.6402C132.396 56.8237 128.335 65.3994 122.245 72.4498C115.025 80.8748 128.512 91.5342 135.698 83.1488Z" fill="#F9CFE3"/>
</g>
<rect x="1" y="19" width="375" height="812" fill="url(#paint0_linear_198_22022)"/>
</g>
<defs>
<linearGradient id="paint0_linear_198_22022" x1="188.5" y1="19" x2="188.5" y2="831" gradientUnits="userSpaceOnUse">
<stop stop-color="white" stop-opacity="0.28"/>
<stop offset="0.607523" stop-color="#FFFEFD"/>
</linearGradient>
<clipPath id="clip0_198_22022">
<rect width="639.871" height="926" fill="white" transform="translate(-132 -57)"/>
</clipPath>
</defs>
</svg>
