<svg width="12" height="14" viewBox="0 0 12 14" fill="none" xmlns="http://www.w3.org/2000/svg">
<path fill-rule="evenodd" clip-rule="evenodd" d="M10.1418 12.7122C9.86239 13.0139 9.48214 13.18 9.071 13.18H2.52956C2.11842 13.18 1.73818 13.0138 1.45877 12.7122C1.1794 12.4106 1.04285 12.0187 1.07424 11.6099L1.69959 3.72955C1.70594 3.64664 1.77605 3.58172 1.8592 3.58172H3.0941V4.59167C3.0941 4.8181 3.27768 5.00169 3.50412 5.00169C3.73055 5.00169 3.91414 4.8181 3.91414 4.59167V3.58172H7.68643V4.59167C7.68643 4.8181 7.87001 5.00169 8.09645 5.00169C8.32288 5.00169 8.50647 4.8181 8.50647 4.59167V3.58172H9.7414C9.82452 3.58172 9.89463 3.64667 9.90109 3.73064L10.5263 11.6088C10.5578 12.0187 10.4212 12.4106 10.1418 12.7122L10.1418 12.7122ZM3.91396 2.70616C3.91396 1.66614 4.76011 0.820017 5.8001 0.820017C6.84009 0.820017 7.68625 1.66617 7.68625 2.70616V2.76167H3.91396V2.70616ZM11.3438 11.545L10.7186 3.66685C10.6796 3.15929 10.2504 2.76169 9.74137 2.76169H8.50644V2.70618C8.50644 1.21398 7.29246 0 5.80026 0C4.30805 0 3.09408 1.21398 3.09408 2.70618V2.76169H1.85918C1.35012 2.76169 0.920844 3.15927 0.88202 3.66579L0.256614 11.5461C0.208219 12.177 0.427103 12.8052 0.857113 13.2695C1.28712 13.7337 1.8967 14 2.52951 14H9.07098C9.70377 14 10.3134 13.7337 10.7434 13.2695C11.1734 12.8052 11.3923 12.177 11.3438 11.545L11.3438 11.545Z" fill="white"/>
<path fill-rule="evenodd" clip-rule="evenodd" d="M7.64847 6.9516C7.48832 6.79143 7.22857 6.79143 7.06839 6.9516L5.23667 8.78295L4.53233 8.07876C4.37216 7.91859 4.1124 7.91859 3.9522 8.07876C3.79199 8.23893 3.79199 8.4986 3.9522 8.65878L4.9466 9.65297C5.0267 9.73306 5.1317 9.77313 5.23664 9.77313C5.34158 9.77313 5.44661 9.73308 5.52668 9.65297L7.64844 7.53165C7.80867 7.37145 7.80867 7.11178 7.64846 6.95161L7.64847 6.9516Z" fill="white"/>
</svg>
