<svg width="129" height="48" viewBox="0 0 129 48" fill="none" xmlns="http://www.w3.org/2000/svg">
<path fill-rule="evenodd" clip-rule="evenodd" d="M19.0331 8.2969H15.5995C14.9894 8.2969 14.4944 8.79184 14.4944 9.40304V12.2922L14.4966 12.3255L14.4944 12.3427V12.3642H14.4912C14.489 12.5213 14.4729 12.6763 14.4374 12.8237V12.8248H14.4363C14.2114 13.7523 13.3764 14.442 12.38 14.442C11.063 14.442 10.0278 13.239 10.3108 11.8736C10.4701 11.1021 11.0877 10.4575 11.8528 10.2724C12.5285 10.1089 13.1688 10.2714 13.6508 10.6329V8.46044C13.6508 5.91779 15.3434 3.59683 17.8258 3.04696C20.5815 2.43794 23.1058 3.98095 24.0366 6.31592C24.4154 7.26498 23.7009 8.2969 22.6797 8.2969H19.0331ZM37.2108 38.8816L33.8288 10.2464C33.5404 9.12524 32.5214 8.29672 31.3109 8.29672H29.3073C28.6973 8.29672 28.2023 8.79166 28.2023 9.40285V12.3641H28.2012C28.1915 12.8956 28.057 13.4562 27.1187 14.1266C26.9154 14.2708 26.6851 14.3741 26.4398 14.4128C24.9333 14.6549 23.6615 13.3056 24.0402 11.783C24.2221 11.0513 24.8139 10.4595 25.5445 10.2766C26.2127 10.1098 26.8476 10.2615 27.3296 10.6101V8.51623C27.3296 4.28207 24.2479 0.565463 20.0449 0.0608181C15.035 -0.540705 10.7362 3.4008 10.7362 8.29672H6.75497C5.54443 8.29672 4.52545 9.12525 4.23706 10.2464C3.10617 19.794 1.9742 29.3384 0.821777 38.8816C0.822837 41.0261 2.56063 42.7639 4.70514 42.7639H9.8507C10.6061 43.7797 11.5078 44.6857 12.53 45.4432C14.2947 46.7538 16.3768 47.5985 18.5525 47.8869C19.1379 47.9622 19.7243 47.9998 20.2946 47.9998C22.1991 47.9998 24.0327 47.5791 25.7447 46.7484C26.627 46.3223 27.5018 45.7735 28.3497 45.1161L28.4315 45.0526C29.515 44.2015 30.7417 43.2373 31.8479 43.2373C32.2266 43.2373 32.5731 43.3482 32.9077 43.5774L34.242 44.4909L33.5544 43.0276C33.5114 42.9371 33.4662 42.8489 33.4199 42.7618C35.5214 42.7123 37.2097 40.9949 37.2108 38.8816L37.2108 38.8816Z" fill="url(#paint0_linear_207_15289)"/>
<mask id="mask0_207_15289" style="mask-type:alpha" maskUnits="userSpaceOnUse" x="0" y="0" width="38" height="48">
<path fill-rule="evenodd" clip-rule="evenodd" d="M19.0331 8.2969H15.5995C14.9894 8.2969 14.4944 8.79184 14.4944 9.40304V12.2922L14.4966 12.3255L14.4944 12.3427V12.3642H14.4912C14.489 12.5213 14.4729 12.6763 14.4374 12.8237V12.8248H14.4363C14.2114 13.7523 13.3764 14.442 12.38 14.442C11.063 14.442 10.0278 13.239 10.3108 11.8736C10.4701 11.1021 11.0877 10.4575 11.8528 10.2724C12.5285 10.1089 13.1688 10.2714 13.6508 10.6329V8.46044C13.6508 5.91779 15.3434 3.59683 17.8258 3.04696C20.5815 2.43794 23.1058 3.98095 24.0366 6.31592C24.4154 7.26498 23.7009 8.2969 22.6797 8.2969H19.0331ZM37.2108 38.8816L33.8288 10.2464C33.5404 9.12524 32.5214 8.29672 31.3109 8.29672H29.3073C28.6973 8.29672 28.2023 8.79166 28.2023 9.40285V12.3641H28.2012C28.1915 12.8956 28.057 13.4562 27.1187 14.1266C26.9154 14.2708 26.6851 14.3741 26.4398 14.4128C24.9333 14.6549 23.6615 13.3056 24.0402 11.783C24.2221 11.0513 24.8139 10.4595 25.5445 10.2766C26.2127 10.1098 26.8476 10.2615 27.3296 10.6101V8.51623C27.3296 4.28207 24.2479 0.565463 20.0449 0.0608181C15.035 -0.540705 10.7362 3.4008 10.7362 8.29672H6.75497C5.54443 8.29672 4.52545 9.12525 4.23706 10.2464C3.10617 19.794 1.9742 29.3384 0.821777 38.8816C0.822837 41.0261 2.56063 42.7639 4.70514 42.7639H9.8507C10.6061 43.7797 11.5078 44.6857 12.53 45.4432C14.2947 46.7538 16.3768 47.5985 18.5525 47.8869C19.1379 47.9622 19.7243 47.9998 20.2946 47.9998C22.1991 47.9998 24.0327 47.5791 25.7447 46.7484C26.627 46.3223 27.5018 45.7735 28.3497 45.1161L28.4315 45.0526C29.515 44.2015 30.7417 43.2373 31.8479 43.2373C32.2266 43.2373 32.5731 43.3482 32.9077 43.5774L34.242 44.4909L33.5544 43.0276C33.5114 42.9371 33.4662 42.8489 33.4199 42.7618C35.5214 42.7123 37.2097 40.9949 37.2108 38.8816L37.2108 38.8816Z" fill="white"/>
</mask>
<g mask="url(#mask0_207_15289)">
<g style="mix-blend-mode:multiply">
<path fill-rule="evenodd" clip-rule="evenodd" d="M26.6238 -0.00047096C26.6238 -0.00047096 13.4993 19.4645 37.1853 31.9573L40.8435 16.5159L35.1862 6.93194L26.6238 -0.00047096Z" fill="#DEA7FF"/>
</g>
</g>
<path fill-rule="evenodd" clip-rule="evenodd" d="M23.7858 43.6956C22.897 43.1995 22.2481 42.7648 21.1129 42.3967C22.5731 41.807 23.9138 40.8847 25.3654 40.3294C27.9618 39.3479 30.9521 39.9796 32.2154 42.6701C31.5063 41.9361 30.1397 42.132 29.209 42.3967C28.3126 42.6528 27.7746 43.0456 26.903 43.3879C26.2456 43.644 25.3826 44.3102 24.8704 43.7128C24.6574 43.4729 24.2044 43.9345 23.7858 43.6956Z" fill="url(#paint1_linear_207_15289)"/>
<path fill-rule="evenodd" clip-rule="evenodd" d="M14.6934 39.742C16.2815 41.6548 18.4249 43.1578 20.9868 42.4316L21.0814 42.4058C19.6805 43.5333 18.3399 43.8916 16.2471 43.5849C15.1626 43.4225 12.789 42.892 11.841 42.3294C10.8501 41.7484 9.94516 40.7834 9.45775 39.7075C9.38996 38.068 12.2929 36.3681 14.6934 39.742V39.742Z" fill="url(#paint2_linear_207_15289)"/>
<path fill-rule="evenodd" clip-rule="evenodd" d="M9.28481 36.4131C9.0545 36.6606 8.86726 36.9005 8.62726 37.0114C8.18388 36.4131 8.21724 36.0881 8.32809 35.79C8.57669 35.1153 8.96949 34.6364 9.40426 34.0392C10.5751 31.5362 13.6325 32.3045 15.1445 34.9442C15.5717 35.747 16.0926 36.5239 16.6909 37.318C17.7757 38.7708 16.5036 40.0772 15.222 38.9839C14.9572 38.7536 14.6925 38.4458 14.4611 38.1294C14.0855 37.6344 13.7444 37.0964 13.343 36.652C12.2152 35.3886 10.5062 35.1153 9.28481 36.4131V36.4131Z" fill="url(#paint3_linear_207_15289)"/>
<path fill-rule="evenodd" clip-rule="evenodd" d="M32.2159 42.6734C30.6448 41.5975 28.9445 42.9725 27.4756 44.1259C26.7148 44.7144 25.9292 45.2104 25.1179 45.6031C23.9739 46.1239 21.2567 47.089 20.6078 46.0464C20.4712 45.842 20.0698 46.098 20.0784 45.885C20.087 45.0985 19.7878 44.8338 18.8828 44.9371C15.5253 45.3298 11.1617 43.4169 9.52168 39.8641C9.50338 39.8125 9.47862 39.7619 9.45281 39.7103C10.4525 41.8535 12.6048 42.8789 14.8345 43.2113C16.9436 43.5191 19.182 43.1694 21.1125 42.4001C21.7012 42.1871 22.504 41.8793 23.2389 41.8535C24.1192 41.8277 24.5464 42.2043 25.1017 42.8358C25.6128 43.4254 26.0745 43.3824 26.7331 43.1264C27.6037 42.7756 28.4667 42.2376 29.3631 41.9816C30.294 41.7169 31.6187 41.8105 32.2159 42.6734H32.2159Z" fill="url(#paint4_linear_207_15289)"/>
<path fill-rule="evenodd" clip-rule="evenodd" d="M19.5326 43.8929C20.4462 43.7907 20.6345 44.2436 20.6173 45.0287C20.6087 45.2417 20.6259 45.4643 20.754 45.6687C21.4115 46.7108 24.1372 46.0182 25.1186 45.6009C23.1289 46.5656 20.9595 46.9238 18.6362 46.6248C14.6385 46.0957 11.1875 43.5348 9.52274 39.864C11.1961 43.3896 16.1762 44.2769 19.5326 43.8929Z" fill="url(#paint5_linear_207_15289)"/>
<path fill-rule="evenodd" clip-rule="evenodd" d="M16.7711 27.0348C20.4283 23.4043 26.7062 24.3102 29.9189 28.6575C29.4496 28.2045 28.8684 28.4013 28.1 28.2475C26.6384 27.9483 26.8687 27.5211 27.8255 29.0502C28.27 29.7679 28.0903 30.3479 26.971 31.0151C26.28 29.8357 25.4254 28.6919 24.3997 27.8031C21.9491 25.6854 18.8645 25.6424 16.7711 27.0348Z" fill="url(#paint6_linear_207_15289)"/>
<path fill-rule="evenodd" clip-rule="evenodd" d="M29.9191 28.6575C27.1949 24.908 20.2866 24.5927 16.8018 27.0179C15.2471 28.0346 14.2229 29.8356 14.3595 32.1585C14.4112 32.9956 14.6242 33.8326 14.9835 34.6181C10.5337 30.2714 13.147 23.4652 20.1586 23.3888C24.1717 23.3888 27.8006 25.4384 29.9191 28.6575V28.6575Z" fill="url(#paint7_linear_207_15289)"/>
<path fill-rule="evenodd" clip-rule="evenodd" d="M29.9169 28.6591C30.1816 29.069 30.4292 29.496 30.6434 29.9403C32.0103 32.7406 28.7975 34.4823 27.4392 31.8692C27.2939 31.5798 27.1314 31.298 26.9688 31.0161C26.5771 30.333 26.2693 29.7349 25.8247 29.0259C24.8421 27.4553 25.9873 26.6785 27.4478 27.0196C28.4219 27.2412 29.3701 27.9415 29.9169 28.6591Z" fill="url(#paint8_linear_207_15289)"/>
<path fill-rule="evenodd" clip-rule="evenodd" d="M9.97496 32.9041C9.50481 33.7499 8.06204 31.9129 8.68605 30.7173C9.49727 29.1537 10.6162 27.745 11.9395 26.6C14.2107 24.6263 17.1059 23.3888 20.1549 23.3888C14.655 23.4824 12.896 28.8126 14.4334 33.3227C14.0149 32.2035 12.8616 32.7588 12.6647 31.6396C12.4603 30.4784 12.9218 30.7765 12.0331 31.4513C11.3672 31.9732 10.3418 32.2551 9.97496 32.9041Z" fill="url(#paint9_linear_207_15289)"/>
<path fill-rule="evenodd" clip-rule="evenodd" d="M8.68805 30.7143C8.18466 31.7299 9.40442 32.2679 9.88307 31.4233C10.2412 30.7735 10.7457 29.775 11.4115 29.2629C12.2989 28.5786 13.367 28.938 13.5713 30.0989C13.7682 31.2178 14.0156 32.2001 14.434 33.3191C14.6211 33.8743 14.8599 34.4122 15.1417 34.9416C13.9725 33.148 11.5137 32.4906 10.1132 34.395C9.67011 34.9933 9.37968 35.7356 9.13121 36.4102C8.73001 37.5033 7.28762 37.2559 7.30482 36.0089C7.33925 34.1648 7.84264 32.354 8.68805 30.7143H8.68805Z" fill="url(#paint10_linear_207_15289)"/>
<path fill-rule="evenodd" clip-rule="evenodd" d="M9.45197 39.7082C8.18011 36.8372 11.5954 34.9318 13.2191 37.6575C13.6377 38.3497 14.18 39.0311 14.6878 39.7427C17.5511 43.7515 11.3823 43.6557 9.45197 39.7082Z" fill="url(#paint11_linear_207_15289)"/>
<path fill-rule="evenodd" clip-rule="evenodd" d="M8.05375 42.1155C8.43652 42.1155 8.74316 41.8075 8.74316 41.4316C8.74316 41.0461 8.43652 40.7391 8.05375 40.7391C7.67956 40.7391 7.37294 41.0461 7.37294 41.4316C7.37294 41.8075 7.67957 42.1155 8.05375 42.1155Z" fill="url(#paint12_linear_207_15289)"/>
<path fill-rule="evenodd" clip-rule="evenodd" d="M18.2112 37.3489C18.9533 37.3489 19.5514 36.7508 19.5514 36.0173C19.5514 35.2741 18.9533 34.6771 18.2112 34.6771C17.4766 34.6771 16.8796 35.2741 16.8796 36.0173C16.8796 36.7508 17.4766 37.3489 18.2112 37.3489Z" fill="url(#paint13_linear_207_15289)"/>
<path fill-rule="evenodd" clip-rule="evenodd" d="M21.2172 40.9084C21.6382 40.9084 21.9804 40.5665 21.9804 40.1494C21.9804 39.7312 21.6382 39.3894 21.2172 39.3894C20.7984 39.3894 20.4552 39.7312 20.4552 40.1494C20.4552 40.5665 20.7984 40.9084 21.2172 40.9084Z" fill="url(#paint14_linear_207_15289)"/>
<path fill-rule="evenodd" clip-rule="evenodd" d="M18.2836 41.424C18.9759 41.424 19.5401 40.9975 19.5401 40.4689C19.5401 39.9403 18.9759 39.5138 18.2836 39.5138C17.5913 39.5138 17.0358 39.9403 17.0358 40.4689C17.0358 40.9975 17.5913 41.424 18.2836 41.424Z" fill="url(#paint15_linear_207_15289)"/>
<path fill-rule="evenodd" clip-rule="evenodd" d="M7.01998 39.6722C7.67653 39.6722 8.2138 39.1344 8.2138 38.4685C8.2138 37.8028 7.67653 37.2649 7.01998 37.2649C6.35485 37.2649 5.81756 37.8028 5.81756 38.4685C5.81756 39.1344 6.35485 39.6722 7.01998 39.6722Z" fill="url(#paint16_linear_207_15289)"/>
<path fill-rule="evenodd" clip-rule="evenodd" d="M59.9666 13.511C61.6666 13.5448 63.2183 14.3826 64.2237 15.8084L64.3797 16.031L65.7525 15.4102L65.5508 15.0906C65.3251 14.7306 65.0536 14.3946 64.7286 14.0695C63.4909 12.792 61.852 12.0556 60.1029 11.9979H59.851C58.1227 12.0556 56.4772 12.7909 55.2188 14.0695C53.9233 15.4048 53.2102 17.171 53.2102 19.043C53.2102 20.915 53.9233 22.6812 55.2199 24.0176C56.4772 25.2951 58.1215 26.0304 59.8619 26.0882H59.9731H60.1138C61.8531 26.0293 63.4909 25.2929 64.7242 24.0198C65.0536 23.6904 65.324 23.3555 65.5508 22.9954L65.7525 22.6758L64.3808 22.055L64.2237 22.2765C63.2227 23.698 61.6688 24.5424 59.9808 24.5937C57.0823 24.5238 54.7226 22.0332 54.7226 19.043C54.7226 16.0452 57.0802 13.5633 59.9666 13.511L59.9666 13.511Z" fill="#072B4F"/>
<path fill-rule="evenodd" clip-rule="evenodd" d="M72.4089 21.1003H77.432V19.5881H72.4089V13.682H78.9575V12.1884H70.8956V25.8784H79.1809V24.3848H72.4089V21.1003Z" fill="#072B4F"/>
<path fill-rule="evenodd" clip-rule="evenodd" d="M84.7012 12.1699V13.6635H91.7068L83.6373 25.8605H94.0791V24.3665H86.4394L94.491 12.1699H84.7012Z" fill="#072B4F"/>
<path fill-rule="evenodd" clip-rule="evenodd" d="M105.666 18.2967L100.655 12.2067H99.5017V25.8783H100.996V14.9922L105.694 20.6802L110.159 15.0576V25.8783H111.653V12.2067H110.497L105.666 18.2967Z" fill="#072B4F"/>
<path fill-rule="evenodd" clip-rule="evenodd" d="M125.034 22.0275C124.503 22.1987 123.604 22.3961 122.301 22.3961C121.009 22.3961 120.128 22.1932 119.591 22.0155L119.551 22.0046L122.266 14.9814L125.034 22.0275ZM122.767 12.1482H121.741L116.428 25.8805H118.045L118.996 23.406C119.704 23.6481 120.792 23.8902 122.301 23.8902C123.803 23.8902 124.885 23.6558 125.59 23.4213L126.56 25.8805H128.178L122.767 12.1482Z" fill="#072B4F"/>
<path fill-rule="evenodd" clip-rule="evenodd" d="M67.9127 31.5839H69.1705L70.3979 34.611L71.6133 31.5839H72.8657V35.9573H71.7997V33.3345L70.8219 35.9573H69.9619L68.9776 33.328V35.9573H67.9127V31.5839Z" fill="#072B4F"/>
<path fill-rule="evenodd" clip-rule="evenodd" d="M73.6125 31.5839H74.678V34.2C74.678 34.7178 74.9343 35.0164 75.4381 35.0164C75.9441 35.0164 76.2113 34.7178 76.2113 34.2V31.5839H77.2779V34.1945C77.2779 35.4023 76.4294 36.0008 75.4196 36.0008C74.4043 36.0008 73.6125 35.4023 73.6125 34.1945V31.5839Z" fill="#072B4F"/>
<path fill-rule="evenodd" clip-rule="evenodd" d="M79.0949 31.5839V35.1353H80.4896V35.9572H78.0311V31.5839L79.0949 31.5839Z" fill="#072B4F"/>
<path fill-rule="evenodd" clip-rule="evenodd" d="M80.7622 31.5839H84.1479V32.4374H82.9884V35.9572H81.9216V32.4374H80.7622L80.7622 31.5839Z" fill="#072B4F"/>
<path fill-rule="evenodd" clip-rule="evenodd" d="M84.6879 31.5839H85.7533V35.9573H84.6879V31.5839Z" fill="#072B4F"/>
<path fill-rule="evenodd" clip-rule="evenodd" d="M90.8281 31.5839H91.957L90.4033 35.9573H89.068L87.5133 31.5839H88.6499L89.7351 34.8857L90.8281 31.5839Z" fill="#072B4F"/>
<path fill-rule="evenodd" clip-rule="evenodd" d="M95.0749 32.4374H93.4624V33.3215H94.8876V34.1445H93.4624V35.1038H95.0749V35.9572H92.3987V31.5839H95.0749V32.4374Z" fill="#072B4F"/>
<path fill-rule="evenodd" clip-rule="evenodd" d="M99.6859 31.5839V35.9573H98.6193L96.8374 33.2593V35.9573H95.7708V31.5839H96.8374L98.6193 34.2938V31.5839H99.6859Z" fill="#072B4F"/>
<path fill-rule="evenodd" clip-rule="evenodd" d="M102.028 35.0337C102.833 35.0337 103.306 34.5724 103.306 33.7687C103.306 32.9649 102.833 32.4905 102.028 32.4905H101.523V35.0337H102.028ZM104.391 33.7685C104.391 35.0651 103.492 35.9562 102.096 35.9562H100.457V31.5808H102.096C103.492 31.5808 104.391 32.4653 104.391 33.7685Z" fill="#072B4F"/>
<path fill-rule="evenodd" clip-rule="evenodd" d="M107.059 35.0269C107.757 35.0269 108.212 34.522 108.212 33.7553C108.212 32.9767 107.757 32.4837 107.059 32.4837C106.348 32.4837 105.9 32.9767 105.9 33.7553C105.9 34.522 106.348 35.0269 107.059 35.0269ZM107.059 35.9997C105.819 35.9997 104.809 35.0705 104.809 33.7553C104.809 32.4401 105.819 31.5175 107.059 31.5175C108.305 31.5175 109.296 32.4401 109.296 33.7553C109.296 35.0705 108.299 35.9997 107.059 35.9997Z" fill="#072B4F"/>
<path fill-rule="evenodd" clip-rule="evenodd" d="M111.615 32.4656H110.955V33.5506H111.615C112.014 33.5506 112.201 33.3445 112.201 33.002C112.201 32.6782 112.014 32.4656 111.615 32.4656ZM111.677 31.5808C112.751 31.5808 113.286 32.197 113.286 32.9582C113.286 33.5068 112.987 34.0237 112.314 34.2232L113.324 35.9562H112.12L111.211 34.304H110.956V35.9562H109.889V31.5808H111.677Z" fill="#072B4F"/>
<defs>
<linearGradient id="paint0_linear_207_15289" x1="0.818851" y1="48.0064" x2="37.2126" y2="48.0064" gradientUnits="userSpaceOnUse">
<stop stop-color="#7813BF"/>
<stop offset="0.49" stop-color="#2342C9"/>
<stop offset="1" stop-color="#84D3EF"/>
</linearGradient>
<linearGradient id="paint1_linear_207_15289" x1="8.78476" y1="-578.045" x2="34.1747" y2="-578.045" gradientUnits="userSpaceOnUse">
<stop stop-color="#C4D0F7"/>
<stop offset="0.51" stop-color="#FDFDFD"/>
<stop offset="1" stop-color="white"/>
</linearGradient>
<linearGradient id="paint2_linear_207_15289" x1="21.0767" y1="-586.361" x2="2.63028" y2="-586.361" gradientUnits="userSpaceOnUse">
<stop stop-color="#FDFDFD"/>
<stop offset="0.5" stop-color="#C6D2F7"/>
<stop offset="1" stop-color="#EEF6FF"/>
</linearGradient>
<linearGradient id="paint3_linear_207_15289" x1="29.4476" y1="-554.729" x2="29.4476" y2="-580.809" gradientUnits="userSpaceOnUse">
<stop stop-color="#FDFDFD"/>
<stop offset="0.49" stop-color="#C1CEF7"/>
<stop offset="1" stop-color="#F1F3FD"/>
</linearGradient>
<linearGradient id="paint4_linear_207_15289" x1="9.45685" y1="-579.937" x2="36.6952" y2="-579.937" gradientUnits="userSpaceOnUse">
<stop stop-color="#C4D0F7"/>
<stop offset="0.51" stop-color="#FDFDFD"/>
<stop offset="1" stop-color="white"/>
</linearGradient>
<linearGradient id="paint5_linear_207_15289" x1="9.52462" y1="-577.356" x2="41.5809" y2="-577.356" gradientUnits="userSpaceOnUse">
<stop stop-color="#C4D0F7"/>
<stop offset="0.51" stop-color="#FDFDFD"/>
<stop offset="1" stop-color="white"/>
</linearGradient>
<linearGradient id="paint6_linear_207_15289" x1="16.7326" y1="-563.409" x2="39.1837" y2="-563.409" gradientUnits="userSpaceOnUse">
<stop stop-color="#FAFAFA"/>
<stop offset="1" stop-color="#CED6F7"/>
</linearGradient>
<linearGradient id="paint7_linear_207_15289" x1="30.1887" y1="-575.215" x2="14.0035" y2="-575.215" gradientUnits="userSpaceOnUse">
<stop stop-color="#FDFDFD"/>
<stop offset="0.3" stop-color="#CBD5F7"/>
<stop offset="0.66" stop-color="#C4D0F7"/>
<stop offset="1" stop-color="#FDFDFD"/>
</linearGradient>
<linearGradient id="paint8_linear_207_15289" x1="20.9715" y1="-565.096" x2="31.4947" y2="-565.096" gradientUnits="userSpaceOnUse">
<stop stop-color="#FAFAFA"/>
<stop offset="1" stop-color="#CED6F7"/>
</linearGradient>
<linearGradient id="paint9_linear_207_15289" x1="27.8907" y1="-564.125" x2="27.8907" y2="-587.278" gradientUnits="userSpaceOnUse">
<stop stop-color="#FDFDFD"/>
<stop offset="0.49" stop-color="#C1CEF7"/>
<stop offset="1" stop-color="#F1F3FD"/>
</linearGradient>
<linearGradient id="paint10_linear_207_15289" x1="22.8948" y1="-560.262" x2="22.8948" y2="-584.635" gradientUnits="userSpaceOnUse">
<stop stop-color="#FDFDFD"/>
<stop offset="0.49" stop-color="#C1CEF7"/>
<stop offset="1" stop-color="#F1F3FD"/>
</linearGradient>
<linearGradient id="paint11_linear_207_15289" x1="20.5097" y1="-587.674" x2="5.60595" y2="-587.674" gradientUnits="userSpaceOnUse">
<stop stop-color="#FDFDFD"/>
<stop offset="0.5" stop-color="#C6D2F7"/>
<stop offset="1" stop-color="#EEF6FF"/>
</linearGradient>
<linearGradient id="paint12_linear_207_15289" x1="9.33059" y1="-579.983" x2="9.33059" y2="-582.528" gradientUnits="userSpaceOnUse">
<stop stop-color="#FDFDFD"/>
<stop offset="0.49" stop-color="#C1CEF7"/>
<stop offset="1" stop-color="#F1F3FD"/>
</linearGradient>
<linearGradient id="paint13_linear_207_15289" x1="20.1587" y1="-575.048" x2="20.1587" y2="-578.942" gradientUnits="userSpaceOnUse">
<stop stop-color="#FDFDFD"/>
<stop offset="0.49" stop-color="#C1CEF7"/>
<stop offset="1" stop-color="#F1F3FD"/>
</linearGradient>
<linearGradient id="paint14_linear_207_15289" x1="19.9177" y1="-580.319" x2="22.3513" y2="-580.319" gradientUnits="userSpaceOnUse">
<stop stop-color="#FDFDFD"/>
<stop offset="0.5" stop-color="#C6D2F7"/>
<stop offset="1" stop-color="#EEF6FF"/>
</linearGradient>
<linearGradient id="paint15_linear_207_15289" x1="16.7082" y1="-581.071" x2="19.8442" y2="-581.071" gradientUnits="userSpaceOnUse">
<stop stop-color="#FDFDFD"/>
<stop offset="0.5" stop-color="#C6D2F7"/>
<stop offset="1" stop-color="#EEF6FF"/>
</linearGradient>
<linearGradient id="paint16_linear_207_15289" x1="8.80314" y1="-577.692" x2="8.80314" y2="-581.277" gradientUnits="userSpaceOnUse">
<stop stop-color="#FDFDFD"/>
<stop offset="0.49" stop-color="#C1CEF7"/>
<stop offset="1" stop-color="#F1F3FD"/>
</linearGradient>
</defs>
</svg>
