<svg width="17" height="16" viewBox="0 0 17 16" fill="none" xmlns="http://www.w3.org/2000/svg">
<g clip-path="url(#clip0_454_23070)">
<path d="M5.12511 11.8537C4.42609 11.818 4.43925 10.8348 5.12508 10.8007C7.06783 10.8074 12.192 10.8025 14.1965 10.8039C14.7448 10.8039 15.2138 10.4308 15.3372 9.89661L16.4754 4.96771C16.5406 4.6855 16.4748 4.39341 16.295 4.16638C16.1151 3.93935 15.8459 3.80731 15.5562 3.80731C14.7499 3.80731 7.90481 3.77633 4.39879 3.76235L3.84303 1.70023C3.70961 1.20743 3.2599 0.863281 2.74938 0.863281H0.968999C0.709987 0.863281 0.5 1.07327 0.5 1.33228C0.5 1.59129 0.709987 1.80128 0.968999 1.80128H2.74938C2.83727 1.80128 2.91466 1.86053 2.93751 1.94486L5.07193 9.86394C4.69664 9.87757 4.34708 10.0302 4.082 10.2992C3.80347 10.5818 3.65389 10.956 3.6608 11.3527C3.67462 12.1461 4.3315 12.7917 5.12511 12.7917H5.80898C5.70733 13.005 5.65027 13.2436 5.65027 13.4952C5.65027 14.4004 6.38666 15.1368 7.29183 15.1368C8.197 15.1368 8.93339 14.4004 8.93339 13.4952C8.93339 13.2435 8.87629 13.005 8.77465 12.7917H11.7361C11.6345 13.005 11.5775 13.2434 11.5775 13.495C11.5775 14.4001 12.3139 15.1365 13.219 15.1365C14.1242 15.1365 14.8606 14.4001 14.8606 13.495C14.8606 13.2336 14.7989 12.9865 14.6898 12.7669C14.8754 12.7044 15.0092 12.5294 15.0092 12.3227C15.0092 12.0637 14.7992 11.8537 14.5402 11.8537H5.12511ZM7.99536 13.4952C7.99536 13.8832 7.67975 14.1988 7.2918 14.1988C6.90384 14.1988 6.58823 13.8832 6.58823 13.4952C6.58823 13.1075 6.90353 12.792 7.2912 12.7917H7.29239C7.68006 12.792 7.99536 13.1075 7.99536 13.4952ZM13.2191 14.1986C12.8311 14.1986 12.5155 13.8829 12.5155 13.495C12.5155 13.1109 12.825 12.7979 13.2077 12.7917H13.2305C13.6132 12.7979 13.9227 13.1109 13.9227 13.495C13.9227 13.8829 13.607 14.1986 13.2191 14.1986ZM15.5597 4.74875C15.5625 4.75225 15.5621 4.75391 15.5615 4.7566L15.0819 6.83348H13.4578L13.7344 4.7379L15.5525 4.74522C15.5553 4.74528 15.5569 4.74528 15.5597 4.74875ZM10.7245 9.86584V7.77148H12.3879L12.1115 9.86584H10.7245ZM8.39879 9.86584L8.12014 7.77148H9.78646V9.86584H8.39879ZM6.23974 9.86584H6.23827C6.12396 9.86581 6.02325 9.78871 5.99351 9.67887L5.47943 7.77148H7.17386L7.45251 9.86584H6.23974ZM7.99533 6.83351L7.71327 4.71367L9.78643 4.72202V6.83351H7.99533ZM10.7245 6.83351V4.7258L12.7887 4.73412L12.5117 6.83351H10.7245ZM6.76649 4.70982L7.04904 6.83348H5.2266L4.65192 4.70129L6.76649 4.70982ZM14.1965 9.86584H13.0576L13.334 7.77148H14.8652L14.4232 9.68553C14.3987 9.79171 14.3055 9.86584 14.1965 9.86584Z" fill="#3F8527"/>
</g>
<defs>
<clipPath id="clip0_454_23070">
<rect width="16" height="16" fill="white" transform="translate(0.5)"/>
</clipPath>
</defs>
</svg>
