<svg width="25" height="24" viewBox="0 0 25 24" fill="none" xmlns="http://www.w3.org/2000/svg">
<mask id="mask0_465_1463" style="mask-type:alpha" x="0" y="0" width="23" height="22">
<path fill-rule="evenodd" clip-rule="evenodd" d="M0.25 22V0H22.25V22H0.25Z" fill="#127E52"/>
</mask>
<g mask="url(#mask0_465_1463)">
<path fill-rule="evenodd" clip-rule="evenodd" d="M2.63436 5.86786C2.63436 6.07031 2.7985 6.23444 3.00094 6.23444C22.9461 6.23444 21.9572 6.27009 22.1029 6.15833C22.1791 6.09972 22.2289 6.01518 22.2425 5.91859C22.263 5.77127 22.3945 6.13354 19.8335 0.223383C19.7753 0.0893035 19.6432 0.00256348 19.4971 0.00256348H3.0009C2.85482 0.00256348 2.72262 0.0893535 2.66456 0.223383L0.281783 5.7221C0.239673 5.81934 0.251543 5.665 0.251543 8.14213C0.254203 9.80939 1.61087 11.1658 3.27584 11.1658C4.42045 11.1658 5.41933 10.5248 5.93278 9.58238C7.07954 11.6898 10.1001 11.6921 11.249 9.5838C12.3969 11.6904 15.4162 11.6909 16.5644 9.5838C17.0775 10.5254 18.0765 11.1658 19.2221 11.1658C20.8898 11.1658 22.2464 9.80916 22.2464 8.14153C22.2464 7.93909 22.0823 7.77495 21.8799 7.77495C21.6774 7.77495 21.5133 7.93909 21.5133 8.14153C21.5133 9.40486 20.4855 10.4327 19.2222 10.4327C17.9588 10.4327 16.931 9.40487 16.931 8.14153C16.931 7.93909 16.7669 7.77495 16.5644 7.77495C16.362 7.77495 16.1979 7.93909 16.1979 8.14153C16.1979 9.40486 15.1701 10.4327 13.9067 10.4327C12.6434 10.4327 11.6156 9.40487 11.6156 8.14153C11.6156 7.93909 11.4514 7.77495 11.249 7.77495C11.0466 7.77495 10.8824 7.93909 10.8824 8.14153C10.8824 9.40486 9.85462 10.4327 8.59129 10.4327C7.35605 10.4327 6.30015 9.43997 6.30015 8.12321C6.30015 7.92077 6.13601 7.75663 5.93357 7.75663C5.73112 7.75663 5.56699 7.92077 5.56699 8.12321C5.56699 9.42884 4.5177 10.4327 3.27585 10.4327C2.01453 10.4327 0.986693 9.40459 0.984713 8.14153V5.94383L3.24162 0.735713H19.2565L21.3215 5.50127H3.00096C2.79847 5.50127 2.63438 5.66536 2.63438 5.86785L2.63436 5.86786ZM21.1467 12.4205V20.1646C21.1467 21.1752 20.3245 21.9975 19.3138 21.9975H3.18423C2.17356 21.9975 1.35132 21.1752 1.35132 20.1646V12.4205C1.35132 12.2181 1.51546 12.0539 1.7179 12.0539C1.92034 12.0539 2.08448 12.2181 2.08448 12.4205V20.1646C2.08448 20.771 2.57781 21.2643 3.18422 21.2643H7.1708V15.0782C7.1708 14.0676 7.99304 13.2453 9.00371 13.2453H13.4943C14.505 13.2453 15.3273 14.0676 15.3273 15.0782V19.798C15.3273 20.0004 15.1631 20.1646 14.9607 20.1646C14.7582 20.1646 14.5941 20.0004 14.5941 19.798V15.0782C14.5941 14.4719 14.1007 13.9785 13.4944 13.9785H9.00372C8.39735 13.9785 7.90398 14.4719 7.90398 15.0782V21.2643H10.8825V15.4906C10.8825 15.2882 11.0466 15.1241 11.249 15.1241C11.4515 15.1241 11.6156 15.2882 11.6156 15.4906V21.2643H19.3138C19.9202 21.2643 20.4136 20.771 20.4136 20.1646V12.4205C20.4136 12.2181 20.5777 12.0539 20.7802 12.0539C20.9826 12.0539 21.1467 12.218 21.1467 12.4205Z" fill="#AEAEAE"/>
</g>
</svg>
