<svg width="17" height="16" viewBox="0 0 17 16" fill="none" xmlns="http://www.w3.org/2000/svg">
<path d="M8.5 3C8.224 3 8 2.776 8 2.5V2C8 1.724 8.224 1.5 8.5 1.5C8.776 1.5 9 1.724 9 2V2.5C9 2.776 8.776 3 8.5 3Z" fill="#FF8204"/>
<path d="M12.8635 7.36396C12.5875 7.36396 12.3635 7.13996 12.3635 6.86396C12.3635 4.83196 10.7135 3.10046 8.68548 3.00446C6.65498 2.91071 4.84473 4.47446 4.65348 6.49471C4.64198 6.61546 4.63623 6.73946 4.63623 6.86396C4.63623 7.13996 4.41223 7.36396 4.13623 7.36396C3.86023 7.36396 3.63623 7.13996 3.63623 6.86396C3.63623 6.70796 3.64348 6.55196 3.65798 6.40046C3.89873 3.85646 6.17798 1.88546 8.73273 2.00571C11.2862 2.12646 13.3635 4.30596 13.3635 6.86396C13.3635 7.14021 13.1395 7.36396 12.8635 7.36396Z" fill="#FF8204"/>
<path d="M13.8008 10.7742C13.6775 10.7742 13.5538 10.7287 13.457 10.6375C12.762 9.97945 12.3633 9.05295 12.3633 8.0957C12.3633 7.8197 12.5873 7.5957 12.8633 7.5957C13.1393 7.5957 13.3633 7.8197 13.3633 8.0957C13.3633 8.77945 13.648 9.44145 14.1445 9.9112C14.345 10.101 14.3538 10.4175 14.164 10.6182C14.0658 10.7217 13.9333 10.7742 13.8008 10.7742Z" fill="#FF8204"/>
<path d="M3.19877 10.7742C3.06602 10.7742 2.93377 10.722 2.83552 10.618C2.64577 10.4175 2.65452 10.101 2.85502 9.9112C3.35152 9.44145 3.63627 8.7797 3.63627 8.0957C3.63627 7.8197 3.86027 7.5957 4.13627 7.5957C4.41227 7.5957 4.63627 7.8197 4.63627 8.0957C4.63627 9.05345 4.23752 9.97995 3.54252 10.6375C3.44552 10.7287 3.32202 10.7742 3.19877 10.7742Z" fill="#FF8204"/>
<path d="M8.5 14.5C7.145 14.5 6 13.355 6 12C6 11.724 6.224 11.5 6.5 11.5C6.776 11.5 7 11.724 7 12C7 12.813 7.687 13.5 8.5 13.5C9.313 13.5 10 12.813 10 12C10 11.724 10.224 11.5 10.5 11.5C10.776 11.5 11 11.724 11 12C11 13.355 9.855 14.5 8.5 14.5Z" fill="#FF8204"/>
<path d="M3.88604 12.4999C3.27679 12.4999 2.73479 12.1274 2.50504 11.5509C2.27504 10.9737 2.41229 10.3299 2.85479 9.91093C3.05529 9.72093 3.37154 9.72968 3.56179 9.93018C3.75154 10.1307 3.74304 10.4472 3.54254 10.6372C3.32354 10.8447 3.40404 11.1059 3.43404 11.1809C3.46379 11.2554 3.58454 11.4999 3.88604 11.4999C4.16204 11.4999 4.38604 11.7239 4.38604 11.9999C4.38604 12.2759 4.16229 12.4999 3.88604 12.4999Z" fill="#FF8204"/>
<path d="M13.1138 12.5002C12.8378 12.5002 12.6138 12.2762 12.6138 12.0002C12.6138 11.7242 12.8378 11.5002 13.1138 11.5002C13.4155 11.5002 13.5365 11.2547 13.5665 11.1795C13.5963 11.1047 13.6765 10.8445 13.4575 10.6372C13.257 10.4472 13.2483 10.131 13.438 9.93021C13.628 9.72971 13.9443 9.72096 14.145 9.91071C14.5875 10.3297 14.725 10.973 14.4955 11.5492C14.2655 12.127 13.723 12.5002 13.1138 12.5002Z" fill="#FF8204"/>
<path d="M4.13623 8.59527C3.86023 8.59527 3.63623 8.37127 3.63623 8.09527V6.86377C3.63623 6.58777 3.86023 6.36377 4.13623 6.36377C4.41223 6.36377 4.63623 6.58777 4.63623 6.86377V8.09527C4.63623 8.37127 4.41248 8.59527 4.13623 8.59527Z" fill="#FF8204"/>
<path d="M12.8638 8.59527C12.5878 8.59527 12.3638 8.37127 12.3638 8.09527V6.86377C12.3638 6.58777 12.5878 6.36377 12.8638 6.36377C13.1398 6.36377 13.3638 6.58777 13.3638 6.86377V8.09527C13.3638 8.37127 13.1398 8.59527 12.8638 8.59527Z" fill="#FF8204"/>
<path d="M13.1137 12.5H3.88623C3.61023 12.5 3.38623 12.276 3.38623 12C3.38623 11.724 3.61023 11.5 3.88623 11.5H13.1135C13.3895 11.5 13.6135 11.724 13.6135 12C13.6135 12.276 13.3897 12.5 13.1137 12.5Z" fill="#FF8204"/>
</svg>
