<svg width="25" height="24" viewBox="0 0 25 24" fill="none" xmlns="http://www.w3.org/2000/svg">
<g clip-path="url(#clip0_682_4906)">
<path d="M24.6667 10.0001C24.6668 9.92709 24.6587 9.85431 24.6427 9.78308L23.3428 3.91508C23.1012 2.80132 22.4841 1.80447 21.5949 1.09167C20.7056 0.378865 19.5984 -0.00653638 18.4587 8.38888e-05H6.87475C5.7358 -0.00561641 4.62948 0.380206 3.74108 1.09293C2.85268 1.80565 2.23615 2.802 1.99475 3.91508L0.690749 9.78308C0.674758 9.85431 0.666708 9.92709 0.666749 10.0001V11.0001C0.665943 11.9737 1.02167 12.9139 1.66675 13.6431V19.0001C1.66834 20.3257 2.19563 21.5965 3.13297 22.5339C4.07031 23.4712 5.34115 23.9985 6.66675 24.0001H18.6667C19.9923 23.9985 21.2632 23.4712 22.2005 22.5339C23.1379 21.5965 23.6652 20.3257 23.6667 19.0001V13.6431C24.3118 12.9139 24.6676 11.9737 24.6667 11.0001V10.0001ZM2.66675 10.1091L3.94675 4.34908C4.09179 3.68134 4.46177 3.08366 4.99476 2.65606C5.52776 2.22846 6.19144 1.99689 6.87475 2.00008H7.66675V5.00008C7.66675 5.2653 7.77211 5.51965 7.95964 5.70719C8.14718 5.89473 8.40153 6.00008 8.66675 6.00008C8.93197 6.00008 9.18632 5.89473 9.37386 5.70719C9.56139 5.51965 9.66675 5.2653 9.66675 5.00008V2.00008H15.6667V5.00008C15.6667 5.2653 15.7721 5.51965 15.9596 5.70719C16.1472 5.89473 16.4015 6.00008 16.6667 6.00008C16.932 6.00008 17.1863 5.89473 17.3739 5.70719C17.5614 5.51965 17.6667 5.2653 17.6667 5.00008V2.00008H18.4587C19.1421 1.99689 19.8057 2.22846 20.3387 2.65606C20.8717 3.08366 21.2417 3.68134 21.3867 4.34908L22.6667 10.1091V11.0001C22.6667 11.5305 22.456 12.0392 22.081 12.4143C21.7059 12.7894 21.1972 13.0001 20.6667 13.0001H19.6667C19.1363 13.0001 18.6276 12.7894 18.2525 12.4143C17.8775 12.0392 17.6667 11.5305 17.6667 11.0001C17.6667 10.7349 17.5614 10.4805 17.3739 10.293C17.1863 10.1054 16.932 10.0001 16.6667 10.0001C16.4015 10.0001 16.1472 10.1054 15.9596 10.293C15.7721 10.4805 15.6667 10.7349 15.6667 11.0001C15.6667 11.5305 15.456 12.0392 15.081 12.4143C14.7059 12.7894 14.1972 13.0001 13.6667 13.0001H11.6667C11.1363 13.0001 10.6276 12.7894 10.2525 12.4143C9.87746 12.0392 9.66675 11.5305 9.66675 11.0001C9.66675 10.7349 9.56139 10.4805 9.37386 10.293C9.18632 10.1054 8.93197 10.0001 8.66675 10.0001C8.40153 10.0001 8.14718 10.1054 7.95964 10.293C7.77211 10.4805 7.66675 10.7349 7.66675 11.0001C7.66675 11.5305 7.45604 12.0392 7.08096 12.4143C6.70589 12.7894 6.19718 13.0001 5.66675 13.0001H4.66675C4.13632 13.0001 3.62761 12.7894 3.25254 12.4143C2.87746 12.0392 2.66675 11.5305 2.66675 11.0001V10.1091ZM18.6667 22.0001H6.66675C5.8711 22.0001 5.10804 21.684 4.54543 21.1214C3.98282 20.5588 3.66675 19.7957 3.66675 19.0001V14.8731C3.99335 14.9577 4.32938 15.0003 4.66675 15.0001H5.66675C6.23456 15.0004 6.7959 14.8795 7.31325 14.6455C7.8306 14.4115 8.29205 14.0697 8.66675 13.6431C9.04145 14.0697 9.50289 14.4115 10.0202 14.6455C10.5376 14.8795 11.0989 15.0004 11.6667 15.0001H13.6667C14.2346 15.0004 14.7959 14.8795 15.3133 14.6455C15.8306 14.4115 16.292 14.0697 16.6667 13.6431C17.0415 14.0697 17.5029 14.4115 18.0202 14.6455C18.5376 14.8795 19.0989 15.0004 19.6667 15.0001H20.6667C21.0041 15.0003 21.3402 14.9577 21.6667 14.8731V19.0001C21.6667 19.7957 21.3507 20.5588 20.7881 21.1214C20.2255 21.684 19.4624 22.0001 18.6667 22.0001Z" fill="#AEAEAE"/>
</g>
<defs>
<clipPath id="clip0_682_4906">
<rect width="24" height="24" fill="white" transform="translate(0.666748)"/>
</clipPath>
</defs>
</svg>
