<svg width="17" height="17" viewBox="0 0 17 17" fill="none" xmlns="http://www.w3.org/2000/svg">
<path d="M8.49991 4.94444V8.5L11.1666 11.1667L8.49991 4.94444ZM16.4998 8.5C16.4998 9.55058 16.2929 10.5909 15.8909 11.5615C15.4888 12.5321 14.8996 13.414 14.1567 14.1569C13.4138 14.8997 12.5319 15.489 11.5613 15.891C10.5908 16.2931 9.55048 16.5 8.49991 16.5C7.44935 16.5 6.40907 16.2931 5.43848 15.891C4.46788 15.489 3.58598 14.8997 2.84312 14.1569C2.10026 13.414 1.51099 12.5321 1.10896 11.5615C0.706924 10.5909 0.5 9.55058 0.5 8.5C0.5 6.37827 1.34285 4.34344 2.84312 2.84315C4.34339 1.34285 6.3782 0.5 8.49991 0.5C10.6216 0.5 12.6564 1.34285 14.1567 2.84315C15.657 4.34344 16.4998 6.37827 16.4998 8.5Z" stroke="#8A8895" stroke-linecap="round" stroke-linejoin="round"/>
</svg>
