<svg width="16" height="16" viewBox="0 0 16 16" fill="none" xmlns="http://www.w3.org/2000/svg">
<circle cx="8" cy="8" r="8" fill="#C00319"/>
<path d="M7.75 3C5.68188 3 4 4.68187 4 6.75C4 9.34937 7.385 12.7644 7.52875 12.9088C7.59 12.9694 7.67 13 7.75 13C7.83 13 7.91 12.9694 7.97125 12.9088C8.115 12.7644 11.5 9.34937 11.5 6.75C11.5 4.68187 9.81813 3 7.75 3ZM7.75 12.2356C7.00375 11.4369 4.625 8.73563 4.625 6.75C4.625 5.02688 6.02688 3.625 7.75 3.625C9.47313 3.625 10.875 5.02688 10.875 6.75C10.875 8.73375 8.49625 11.4369 7.75 12.2356Z" fill="white"/>
<path d="M7.75 4.875C6.71625 4.875 5.875 5.71625 5.875 6.75C5.875 7.78375 6.71625 8.625 7.75 8.625C8.78375 8.625 9.625 7.78375 9.625 6.75C9.625 5.71625 8.78375 4.875 7.75 4.875ZM7.75 8C7.06063 8 6.5 7.43938 6.5 6.75C6.5 6.06063 7.06063 5.5 7.75 5.5C8.43938 5.5 9 6.06063 9 6.75C9 7.43938 8.43938 8 7.75 8Z" fill="white"/>
</svg>
