<svg width="368" height="205" viewBox="0 0 368 205" fill="none" xmlns="http://www.w3.org/2000/svg">
<g filter="url(#filter0_d_372_209)">
<path d="M103.032 178.904L38.7115 190.611C37.0678 190.91 35.7144 189.668 35.7144 187.85V24.2084C35.7144 22.3901 37.0678 21.1478 38.7115 21.4471L103.032 33.1546C104.244 33.376 105.23 34.8213 105.23 36.3711V175.687C105.23 177.235 104.244 178.682 103.032 178.904Z" fill="#0D1323"/>
<path d="M103.113 38.6507L41.9845 27.9517C41.8455 27.9271 41.7085 27.9148 41.5736 27.9148C38.3557 27.3859 36.4748 28.9275 36.4748 28.9275C36.4748 28.9275 36.0679 181.191 36.4748 183.198C36.8816 185.205 41.9866 184.106 41.9866 184.106L43.4647 183.848L103.115 173.407C104.281 173.202 105.229 171.769 105.229 170.22V41.8384C105.229 40.2886 104.281 38.8557 103.115 38.6507H103.113Z" fill="#D1D3D4"/>
<path d="M39.9686 30.7542C40.0729 32.3224 40.1547 33.8906 40.2508 35.4589L40.5002 40.1636L40.7312 44.8684L40.9418 49.5732C40.9745 50.3563 40.952 51.1414 40.9398 51.9245C40.9275 52.7076 40.9336 53.4928 40.9316 54.2759V162.485C40.7905 165.622 40.6474 168.758 40.4859 171.895L40.2406 176.599C40.1486 178.168 40.0668 179.736 39.9686 181.304C39.8705 179.736 39.7867 178.168 39.6967 176.599L39.4514 171.895C39.2878 168.758 39.1468 165.622 39.0057 162.485V54.2759C39.0057 53.4907 39.0098 52.7076 38.9975 51.9245C38.9853 51.1414 38.9628 50.3563 38.9955 49.5732L39.2061 44.8684L39.4371 40.1636L39.6865 35.4589C39.7805 33.8906 39.8644 32.3224 39.9686 30.7542Z" fill="white"/>
<path d="M62.7744 159.449L59.4727 159.806V84.0787L62.7744 84.2202V159.449Z" fill="#BCBEC0"/>
<path d="M51.5278 135.318L48.0747 135.519V49.9319L51.5278 50.305V135.318Z" fill="#BCBEC0"/>
<path d="M83.7872 130.946L80.7573 131.106V53.4579L83.7872 53.7859V130.946Z" fill="#BCBEC0"/>
<path d="M95.7004 155.896L92.8218 156.206V80.5015L95.7004 80.6552V155.896Z" fill="#BCBEC0"/>
<path d="M71.4593 133.822L68.272 134.007V52.1111L71.4593 52.4555V133.822Z" fill="#BCBEC0"/>
<path d="M43.1519 154.119V148.713L92.7664 144.587V149.476L43.1519 154.119Z" fill="#BCBEC0"/>
<path d="M50.2378 135.394V130.062L102.8 127.541V132.328L50.2378 135.394Z" fill="#BCBEC0"/>
<path d="M81.5483 109.111V104.105L102.719 104.165V108.951L81.5483 109.111Z" fill="#BCBEC0"/>
<path d="M43.1519 87.6129V82.207L82.4154 83.9659V88.9618L43.1519 87.6129Z" fill="#BCBEC0"/>
<path d="M49.269 65.1633V59.821L70.7827 61.7337V66.8525L49.269 65.1633Z" fill="#BCBEC0"/>
<path d="M78.3594 60.7128C68.8956 58.4967 59.8408 65.7701 59.3992 77.2542C58.5712 98.7649 76.3129 113.863 76.3129 113.863C76.3129 113.863 91.405 97.6558 92.0653 80.485C92.4149 71.4179 86.67 62.6582 78.3594 60.7128ZM77.2022 90.7289C71.2795 90.6489 66.3094 84.9315 66.5772 77.9635C66.8451 70.9976 72.2179 66.3031 78.1018 67.3896C83.5175 68.39 87.4163 74.005 87.1852 80.0033C86.9542 85.9995 82.6548 90.8047 77.2022 90.7289Z" fill="#C00319"/>
<path d="M250.121 32.4453C241.492 31.9574 234.224 38.9438 234.205 48.0663C234.17 65.1551 250.025 78.5888 250.025 78.5888C250.025 78.5888 264.845 64.7472 264.878 48.6608C264.896 40.1677 258.418 32.9148 250.121 32.4474V32.4453ZM250.066 58.5049C244.615 58.5275 240.105 53.9068 240.118 48.1811C240.13 42.4555 244.658 38.009 250.109 38.2427C255.422 38.4703 259.626 43.0869 259.616 48.5583C259.603 54.0298 255.382 58.4824 250.068 58.5049H250.066Z" fill="#C00319"/>
<path d="M87.1935 114.753C86.621 114.753 86.0486 114.55 85.5886 114.138C84.597 113.248 84.5112 111.721 85.3985 110.727L85.4414 110.679C86.3348 109.689 87.8579 109.613 88.8454 110.509C89.8329 111.405 89.9085 112.932 89.0151 113.923L88.9926 113.947C88.5162 114.48 87.8579 114.753 87.1955 114.753H87.1935Z" fill="#65020D"/>
<path d="M94.018 108.23C93.3229 108.23 92.6319 107.928 92.1556 107.348C91.3092 106.317 91.4584 104.796 92.4847 103.947L92.5583 103.886C93.5867 103.039 95.1057 103.189 95.9501 104.22C96.7944 105.251 96.6452 106.774 95.6168 107.621L95.5452 107.678C95.0975 108.049 94.5537 108.228 94.016 108.228L94.018 108.23ZM101.711 102.687C100.912 102.687 100.129 102.287 99.6709 101.557C98.9615 100.427 99.2988 98.9351 100.425 98.2258L100.501 98.1786C101.625 97.4652 103.114 97.8014 103.825 98.9289C104.537 100.056 104.201 101.549 103.077 102.262L102.993 102.316C102.594 102.568 102.151 102.687 101.711 102.687ZM109.983 98.0495C109.098 98.0495 108.245 97.5575 107.824 96.7088C107.231 95.5136 107.716 94.0643 108.908 93.4698L109 93.4247C110.194 92.8343 111.639 93.3263 112.226 94.5235C112.815 95.7207 112.324 97.168 111.13 97.7584L111.052 97.7973C110.707 97.9695 110.341 98.0515 109.981 98.0515L109.983 98.0495ZM118.647 94.1975C117.687 94.1975 116.779 93.6174 116.405 92.6682C115.916 91.428 116.523 90.0237 117.76 89.5338L117.844 89.501C119.081 89.009 120.481 89.6158 120.972 90.856C121.463 92.0963 120.858 93.5005 119.621 93.9925L119.529 94.0294C119.238 94.1442 118.938 94.1996 118.645 94.1996L118.647 94.1975ZM127.582 91.02C126.557 91.02 125.609 90.3599 125.284 89.3308C124.883 88.0578 125.588 86.7007 126.856 86.2989L126.938 86.2722C128.205 85.8663 129.561 86.5674 129.966 87.8405C130.37 89.1115 129.671 90.4706 128.402 90.8765L128.305 90.9073C128.064 90.9831 127.821 91.02 127.58 91.02H127.582ZM136.702 88.4227C135.627 88.4227 134.645 87.6949 134.369 86.6002C134.042 85.3067 134.821 83.9926 136.111 83.6626L136.201 83.64C137.491 83.31 138.802 84.091 139.131 85.3846C139.46 86.6781 138.679 87.9922 137.391 88.3222L137.299 88.3448C137.101 88.396 136.9 88.4206 136.704 88.4206L136.702 88.4227ZM145.951 86.3317C144.827 86.3317 143.821 85.5383 143.592 84.3903C143.33 83.0824 144.176 81.8094 145.481 81.547L145.579 81.5265C146.885 81.2682 148.151 82.121 148.408 83.4289C148.666 84.7388 147.816 86.0098 146.511 86.2661L146.427 86.2825C146.268 86.3153 146.108 86.3296 145.951 86.3296V86.3317ZM240.363 85.9319C240.212 85.9319 240.059 85.9176 239.903 85.8868L239.811 85.8684C238.505 85.6162 237.65 84.3493 237.902 83.0373C238.153 81.7274 239.419 80.8684 240.725 81.1226L240.817 81.1411C242.124 81.3932 242.978 82.6601 242.727 83.9721C242.504 85.1283 241.496 85.9319 240.363 85.9319ZM155.286 84.6876C154.114 84.6876 153.088 83.8307 152.906 82.6355C152.706 81.3153 153.61 80.0833 154.926 79.8824L155.018 79.868C156.333 79.6671 157.563 80.5732 157.764 81.8914C157.964 83.2116 157.061 84.4436 155.746 84.6445L155.652 84.6589C155.529 84.6773 155.407 84.6876 155.286 84.6876ZM231.012 84.3616C230.898 84.3616 230.783 84.3534 230.669 84.337L230.577 84.3247C229.26 84.1361 228.344 82.9123 228.532 81.59C228.72 80.2678 229.941 79.3514 231.258 79.54L231.35 79.5523C232.666 79.7409 233.582 80.9648 233.394 82.287C233.222 83.4924 232.192 84.3616 231.012 84.3616ZM164.686 83.4473C163.476 83.4473 162.433 82.5351 162.294 81.2989C162.147 79.9726 163.098 78.7774 164.421 78.6298L164.521 78.6196C165.843 78.4761 167.033 79.4334 167.178 80.7598C167.324 82.0861 166.367 83.2792 165.044 83.4248L164.958 83.435C164.866 83.4453 164.776 83.4494 164.686 83.4494V83.4473ZM221.6 83.2116C221.52 83.2116 221.438 83.2075 221.356 83.1993L221.264 83.189C219.939 83.0558 218.972 81.8729 219.105 80.5445C219.238 79.2161 220.418 78.2485 221.743 78.3797L221.837 78.39C223.161 78.5232 224.126 79.7061 223.996 81.0345C223.871 82.2809 222.824 83.2116 221.602 83.2116H221.6ZM174.134 82.574C172.882 82.574 171.823 81.6044 171.734 80.3313C171.637 79.0009 172.635 77.8426 173.964 77.7483L174.05 77.7422C175.377 77.6417 176.534 78.6401 176.634 79.9705C176.734 81.301 175.739 82.4613 174.412 82.5617L174.31 82.5699C174.25 82.574 174.191 82.5761 174.134 82.5761V82.574ZM212.15 82.4244C212.097 82.4244 212.042 82.4244 211.989 82.4182L211.903 82.4121C210.574 82.328 209.566 81.18 209.65 79.8475C209.734 78.515 210.881 77.5044 212.207 77.5884L212.308 77.5946C213.636 77.6827 214.64 78.8348 214.552 80.1653C214.469 81.4424 213.407 82.4223 212.15 82.4223V82.4244ZM183.612 82.0472C182.324 82.0472 181.257 81.0263 181.205 79.7245C181.154 78.392 182.189 77.2686 183.52 77.2153L183.622 77.2112C184.953 77.162 186.069 78.2055 186.116 79.538C186.163 80.8725 185.125 81.9918 183.794 82.039L183.706 82.0431C183.673 82.0431 183.642 82.0431 183.61 82.0431L183.612 82.0472ZM202.678 81.9754C202.654 81.9754 202.629 81.9754 202.605 81.9754H202.511C201.18 81.9324 200.135 80.8192 200.174 79.4847C200.213 78.1501 201.323 77.1005 202.656 77.1415H202.75C204.081 77.1846 205.125 78.2977 205.087 79.6323C205.048 80.9422 203.976 81.9754 202.68 81.9754H202.678ZM193.098 81.8483C191.771 81.8483 190.692 80.7721 190.688 79.4396C190.683 78.105 191.759 77.0206 193.09 77.0165H193.176C193.176 77.0165 193.186 77.0165 193.19 77.0165C194.515 77.0165 195.592 78.0886 195.598 79.4191C195.606 80.7536 194.533 81.8422 193.202 81.8504H193.1C193.1 81.8504 193.096 81.8504 193.092 81.8504L193.098 81.8483Z" fill="#65020D"/>
<path d="M249.543 88.0024C249.34 88.0024 249.136 87.9779 248.931 87.9225L248.886 87.9102C247.598 87.574 246.828 86.2538 247.163 84.9623C247.498 83.6708 248.815 82.8979 250.103 83.2341L250.152 83.2464C251.44 83.5847 252.211 84.9049 251.873 86.1943C251.589 87.2808 250.614 88.0004 249.543 88.0004V88.0024Z" fill="#65020D"/>
<g filter="url(#filter1_d_372_209)">
<path d="M311.216 132.251L302.825 125.549C298.983 122.48 294.176 116.312 292.139 111.84L288.362 103.542C286.327 99.0732 280.637 95.4143 275.718 95.4143H222.053C217.134 95.4143 211.444 99.0732 209.409 103.545L205.632 111.842C203.595 116.314 198.788 122.482 194.946 125.551L186.555 132.253C182.713 135.318 179.569 141.848 179.569 146.759V184.709C179.569 187.165 181.582 189.174 184.041 189.174H201.929C204.389 189.174 206.401 187.165 206.401 184.709V178.012H291.37V184.709C291.37 187.165 293.382 189.174 295.842 189.174H313.73C316.189 189.174 318.202 187.165 318.202 184.709V146.759C318.202 141.848 315.058 135.318 311.216 132.251Z" fill="white"/>
<path d="M311.216 132.251L302.825 125.549C298.983 122.48 294.176 116.312 292.139 111.84L288.362 103.542C286.327 99.0732 280.637 95.4143 275.718 95.4143H222.053C217.134 95.4143 211.444 99.0732 209.409 103.545L205.632 111.842C203.595 116.314 198.788 122.482 194.946 125.551L186.555 132.253C182.713 135.318 179.569 141.848 179.569 146.759V169.083C179.569 173.994 183.594 178.012 188.513 178.012H309.258C314.177 178.012 318.202 173.994 318.202 169.083V146.759C318.202 141.848 315.058 135.318 311.216 132.251Z" fill="#A80901"/>
<path d="M285.587 172.239C283.847 170.502 280.413 169.083 277.953 169.083H218.699C216.24 169.083 212.805 170.502 211.066 172.239L205.283 178.012H291.369L285.587 172.239Z" fill="white"/>
<path d="M311.494 119.97L300.313 122.203V113.273H311.494V119.97Z" fill="white"/>
<path d="M186.277 119.97L197.457 122.203V113.273H186.277V119.97Z" fill="white"/>
<path d="M286.897 140.062L291.369 144.527H309.258C314.769 144.527 315.751 140.011 315.925 138.399C314.68 135.936 313.034 133.702 311.216 132.251L308.513 130.09L289.133 137.829L286.897 140.062Z" fill="white"/>
<path d="M188.513 144.527H206.401L210.873 140.062L208.637 137.829L189.258 130.09L186.552 132.251C184.737 133.702 183.089 135.936 181.843 138.399C182.02 140.011 183.002 144.527 188.513 144.527Z" fill="white"/>
<path d="M292.141 111.84L288.364 103.542C286.327 99.0732 280.637 95.4143 275.717 95.4143H222.053C217.134 95.4143 211.443 99.0732 209.409 103.545L205.632 111.842C204.814 113.639 203.539 115.707 202.068 117.74H295.705C294.234 115.704 292.957 113.637 292.141 111.84Z" fill="white"/>
<path d="M312.614 130.507L304.225 123.806C304.191 123.779 304.157 123.745 304.124 123.719L311.934 122.158C312.979 121.951 313.73 121.035 313.73 119.97V113.273C313.73 112.041 312.728 111.041 311.494 111.041H300.314C299.08 111.041 298.078 112.041 298.078 113.273V117.184C298.026 117.115 297.975 117.046 297.924 116.977C297.783 116.588 297.532 116.271 297.215 116.019C295.956 114.24 294.878 112.458 294.176 110.918L290.397 102.62C287.989 97.3274 281.54 93.1819 275.718 93.1819H222.054C216.231 93.1819 209.782 97.3274 207.374 102.62L203.598 110.916C202.896 112.456 201.818 114.24 200.559 116.019C200.241 116.271 199.993 116.588 199.85 116.977C199.799 117.046 199.749 117.113 199.696 117.184V113.273C199.696 112.041 198.694 111.041 197.46 111.041H186.278C185.043 111.041 184.042 112.041 184.042 113.273V119.97C184.042 121.035 184.793 121.951 185.839 122.158L193.65 123.719C193.616 123.745 193.583 123.779 193.549 123.806L185.157 130.507C180.77 134.012 177.333 141.151 177.333 146.759V184.709C177.333 188.402 180.343 191.406 184.042 191.406H201.93C205.628 191.406 208.638 188.402 208.638 184.709V180.245H289.134V184.709C289.134 188.402 292.143 191.406 295.842 191.406H313.73C317.428 191.406 320.438 188.402 320.438 184.709V146.759C320.438 141.151 317.001 134.012 312.614 130.507ZM292.295 175.78L287.168 170.661C284.993 168.489 281.03 166.85 277.954 166.85H218.7C215.623 166.85 211.661 168.489 209.485 170.661L204.358 175.78H188.514C184.815 175.78 181.806 172.775 181.806 169.083V157.921H184.042V160.153C184.042 165.078 188.053 169.083 192.986 169.083H199.694C200.928 169.083 201.93 168.083 201.93 166.85C201.93 165.618 200.928 164.618 199.694 164.618H192.986C190.519 164.618 188.514 162.615 188.514 160.153V157.921H192.986C194.841 157.921 197.726 159.113 199.038 160.423C199.474 160.859 200.047 161.077 200.619 161.077C201.192 161.077 201.764 160.859 202.2 160.423C203.074 159.55 203.074 158.14 202.2 157.267C200.024 155.095 196.065 153.456 192.986 153.456H181.806V146.759C181.806 145.971 181.931 145.12 182.107 144.252C183.538 145.743 185.62 146.759 188.514 146.759H206.402C206.994 146.759 207.562 146.525 207.982 146.105L210.874 143.218L213.765 146.105C214.183 146.525 214.753 146.759 215.346 146.759H241.252L247.305 152.802C247.741 153.237 248.313 153.456 248.886 153.456C249.458 153.456 250.031 153.237 250.467 152.802L256.519 146.759H282.426C283.018 146.759 283.588 146.525 284.007 146.105L286.898 143.218L289.789 146.105C290.207 146.525 290.777 146.759 291.37 146.759H309.258C312.151 146.759 314.233 145.743 315.664 144.252C315.841 145.12 315.966 145.971 315.966 146.759V153.456H304.786C301.709 153.456 297.747 155.095 295.571 157.267C294.697 158.14 294.697 159.55 295.571 160.423C296.007 160.859 296.58 161.077 297.152 161.077C297.724 161.077 298.297 160.859 298.733 160.423C300.045 159.113 302.93 157.921 304.786 157.921H309.258V160.153C309.258 162.615 307.252 164.618 304.786 164.618H298.078C296.844 164.618 295.842 165.618 295.842 166.85C295.842 168.083 296.844 169.083 298.078 169.083H304.786C309.718 169.083 313.73 165.078 313.73 160.153V157.921H315.966V169.083C315.966 172.775 312.956 175.78 309.258 175.78H292.295ZM285.972 175.78H210.681L212.647 173.818C213.959 172.507 216.844 171.315 218.7 171.315H277.954C279.81 171.315 282.694 172.507 284.007 173.818L285.972 175.78ZM203.182 119.97H294.59C296.756 122.83 299.232 125.536 301.43 127.293L304.119 129.44L288.304 135.756C288.302 135.756 288.302 135.758 288.3 135.758C288.029 135.867 287.774 136.03 287.555 136.249L285.319 138.481L281.5 142.294H255.594C255.001 142.294 254.431 142.529 254.013 142.948L248.886 148.067L243.759 142.948C243.34 142.529 242.77 142.294 242.178 142.294H216.271L212.454 138.483L210.218 136.251C209.999 136.032 209.744 135.869 209.474 135.76C209.472 135.76 209.472 135.758 209.469 135.758L193.654 129.442L196.344 127.295C198.54 125.536 201.015 122.83 203.182 119.97ZM313.598 138.765C313.148 141.098 311.7 142.294 309.258 142.294H292.295L290.059 140.062L290.39 139.731L308.133 132.646L309.819 133.994C311.237 135.126 312.545 136.847 313.598 138.765ZM302.55 115.506H309.258V118.14L302.55 119.479V115.506ZM207.665 112.764L211.442 104.469C213.127 100.77 217.986 97.6466 222.054 97.6466H275.718C279.785 97.6466 284.644 100.77 286.328 104.467L290.106 112.764C290.5 113.626 291.012 114.557 291.573 115.506H206.198C206.759 114.557 207.274 113.626 207.665 112.764ZM188.514 115.506H195.222V119.479L188.514 118.14V115.506ZM187.95 133.994L189.636 132.646L207.381 139.731L207.712 140.062L205.476 142.294H188.514C186.072 142.294 184.623 141.098 184.173 138.765C185.227 136.847 186.532 135.126 187.95 133.994ZM201.93 186.942H184.042C182.809 186.942 181.806 185.939 181.806 184.709V177.956C183.679 179.372 185.987 180.245 188.514 180.245H204.166V184.709C204.166 185.939 203.162 186.942 201.93 186.942ZM313.73 186.942H295.842C294.61 186.942 293.606 185.939 293.606 184.709V180.245H309.258C311.785 180.245 314.092 179.372 315.966 177.956V184.709C315.966 185.939 314.962 186.942 313.73 186.942Z" fill="#2E2D2D"/>
</g>
</g>
<defs>
<filter id="filter0_d_372_209" x="-4" y="0" width="376" height="213" filterUnits="userSpaceOnUse" color-interpolation-filters="sRGB">
<feFlood flood-opacity="0" result="BackgroundImageFix"/>
<feColorMatrix in="SourceAlpha" type="matrix" values="0 0 0 0 0 0 0 0 0 0 0 0 0 0 0 0 0 0 127 0" result="hardAlpha"/>
<feOffset dy="4"/>
<feGaussianBlur stdDeviation="2"/>
<feComposite in2="hardAlpha" operator="out"/>
<feColorMatrix type="matrix" values="0 0 0 0 0 0 0 0 0 0 0 0 0 0 0 0 0 0 0.25 0"/>
<feBlend mode="normal" in2="BackgroundImageFix" result="effect1_dropShadow_372_209"/>
<feBlend mode="normal" in="SourceGraphic" in2="effect1_dropShadow_372_209" result="shape"/>
</filter>
<filter id="filter1_d_372_209" x="176.379" y="93.1819" width="145.013" height="100.133" filterUnits="userSpaceOnUse" color-interpolation-filters="sRGB">
<feFlood flood-opacity="0" result="BackgroundImageFix"/>
<feColorMatrix in="SourceAlpha" type="matrix" values="0 0 0 0 0 0 0 0 0 0 0 0 0 0 0 0 0 0 127 0" result="hardAlpha"/>
<feOffset dy="0.954029"/>
<feGaussianBlur stdDeviation="0.477015"/>
<feComposite in2="hardAlpha" operator="out"/>
<feColorMatrix type="matrix" values="0 0 0 0 0 0 0 0 0 0 0 0 0 0 0 0 0 0 0.25 0"/>
<feBlend mode="normal" in2="BackgroundImageFix" result="effect1_dropShadow_372_209"/>
<feBlend mode="normal" in="SourceGraphic" in2="effect1_dropShadow_372_209" result="shape"/>
</filter>
</defs>
</svg>
